<svg width="40" height="40" viewBox="0 0 40 40" fill="none" xmlns="http://www.w3.org/2000/svg">
<g id="ph:star-duotone">
<g id="Group">
<path id="Vector" opacity="0.2" d="M28.7704 23.0781C28.5991 23.2286 28.4717 23.4227 28.4018 23.6398C28.3319 23.8568 28.3222 24.0888 28.3735 24.3109L30.486 33.4578C30.5418 33.6967 30.5261 33.9468 30.4408 34.1768C30.3556 34.4068 30.2045 34.6067 30.0064 34.7514C29.8083 34.8962 29.572 34.9795 29.327 34.9909C29.0819 35.0023 28.8389 34.9414 28.6282 34.8156L20.6438 29.9719C20.4498 29.8539 20.2271 29.7915 20.0001 29.7915C19.773 29.7915 19.5503 29.8539 19.3563 29.9719L11.3719 34.8156C11.1613 34.9414 10.9183 35.0023 10.6732 34.9909C10.4281 34.9795 10.1918 34.8962 9.99376 34.7514C9.79568 34.6067 9.64459 34.4068 9.5593 34.1768C9.47402 33.9468 9.45831 33.6967 9.51413 33.4578L11.6266 24.3109C11.678 24.0888 11.6682 23.8568 11.5983 23.6398C11.5284 23.4227 11.4011 23.2286 11.2298 23.0781L4.18132 16.9297C3.99288 16.7695 3.85619 16.5571 3.78853 16.3192C3.72087 16.0813 3.7253 15.8287 3.80124 15.5934C3.87718 15.358 4.02123 15.1505 4.21516 14.997C4.40909 14.8435 4.64419 14.7511 4.8907 14.7312L14.1813 13.9281C14.408 13.9079 14.6248 13.8262 14.8085 13.6919C14.9922 13.5575 15.1357 13.3755 15.2235 13.1656L18.8532 4.51562C18.9501 4.29198 19.1104 4.10157 19.3141 3.96781C19.5179 3.83405 19.7563 3.76279 20.0001 3.76279C20.2438 3.76279 20.4823 3.83405 20.686 3.96781C20.8898 4.10157 21.05 4.29198 21.1469 4.51562L24.7766 13.1656C24.8645 13.3755 25.008 13.5575 25.1916 13.6919C25.3753 13.8262 25.5922 13.9079 25.8188 13.9281L35.1094 14.7312C35.356 14.7511 35.5911 14.8435 35.785 14.997C35.9789 15.1505 36.123 15.358 36.1989 15.5934C36.2748 15.8287 36.2793 16.0813 36.2116 16.3192C36.144 16.5571 36.0073 16.7695 35.8188 16.9297L28.7704 23.0781Z" fill="black"/>
<path id="Vector_2" d="M37.375 15.2016C37.2237 14.735 36.9384 14.3232 36.5547 14.0176C36.171 13.712 35.7058 13.526 35.2172 13.4828L25.9375 12.6828L22.3 4.03281C22.1107 3.57892 21.7912 3.19122 21.3819 2.91852C20.9727 2.64582 20.4918 2.50031 20 2.50031C19.5082 2.50031 19.0274 2.64582 18.6181 2.91852C18.2089 3.19122 17.8894 3.57892 17.7 4.03281L14.0735 12.6828L4.78285 13.4875C4.29228 13.5287 3.8248 13.7139 3.43903 14.0197C3.05327 14.3256 2.76639 14.7385 2.61437 15.2067C2.46235 15.675 2.45196 16.1777 2.5845 16.6518C2.71704 17.1259 2.98661 17.5503 3.35941 17.8719L10.4078 24.0312L8.29535 33.1781C8.18364 33.6568 8.21552 34.1577 8.38698 34.6184C8.55845 35.079 8.8619 35.4789 9.2594 35.768C9.6569 36.0572 10.1308 36.2227 10.6219 36.2439C11.1129 36.2652 11.5994 36.1412 12.0203 35.8875L19.9891 31.0437L27.975 35.8875C28.396 36.1412 28.8825 36.2652 29.3735 36.2439C29.8646 36.2227 30.3385 36.0572 30.736 35.768C31.1335 35.4789 31.4369 35.079 31.6084 34.6184C31.7799 34.1577 31.8117 33.6568 31.7 33.1781L29.5891 24.0219L36.636 17.8719C37.0087 17.5492 37.2778 17.1236 37.4093 16.6485C37.5408 16.1733 37.5289 15.6699 37.375 15.2016ZM34.9969 15.9828L27.95 22.1328C27.6071 22.4311 27.3519 22.8173 27.2121 23.2499C27.0722 23.6824 27.0529 24.1448 27.1563 24.5875L29.2735 33.75L21.2938 28.9062C20.9045 28.6692 20.4574 28.5437 20.0016 28.5437C19.5458 28.5437 19.0987 28.6692 18.7094 28.9062L10.7407 33.75L12.8438 24.5937C12.9471 24.1511 12.9279 23.6886 12.788 23.2561C12.6481 22.8236 12.393 22.4374 12.05 22.1391L5.00004 15.9922C4.99946 15.9875 4.99946 15.9828 5.00004 15.9781L14.2875 15.175C14.741 15.135 15.1749 14.972 15.5425 14.7035C15.9101 14.4351 16.1974 14.0713 16.3735 13.6516L20 5.01249L23.625 13.6516C23.8011 14.0713 24.0884 14.4351 24.456 14.7035C24.8236 14.972 25.2575 15.135 25.711 15.175L35 15.9781V15.9891L34.9969 15.9828Z" fill="black"/>
</g>
</g>
</svg>
