<svg width="430" height="463" viewBox="0 0 430 463" fill="none" xmlns="http://www.w3.org/2000/svg">
<path d="M119.506 125.383C118.804 124.207 117.777 123.293 116.568 122.767C115.423 122.197 114.14 122.021 112.896 122.265C112.253 122.428 111.646 122.727 111.111 123.144C110.577 123.561 110.125 124.087 109.783 124.693C109.371 125.423 109.133 126.249 109.088 127.1C108.504 126.653 107.835 126.35 107.129 126.21C106.47 126.088 105.795 126.109 105.144 126.273C104.493 126.437 103.879 126.739 103.34 127.163C102.347 128.003 101.622 129.151 101.264 130.449C100.859 131.757 100.838 133.167 101.206 134.488C101.706 136.169 102.693 137.635 104.026 138.675C105.487 139.663 107.149 140.262 108.872 140.422C111.702 140.778 115.384 141.155 115.384 141.155C115.384 141.155 117.019 138.015 118.634 135.472C119.658 133.98 120.329 132.246 120.593 130.417C120.747 128.658 120.366 126.893 119.506 125.383Z" fill="#E0E0E0"/>
<path d="M327.847 207.014C327.603 205.658 326.974 204.416 326.045 203.456C325.174 202.473 324.037 201.807 322.794 201.551C321.736 201.367 320.65 201.559 319.704 202.098C318.758 202.636 318.003 203.492 317.556 204.534C317.164 203.889 316.642 203.345 316.028 202.943C315.458 202.57 314.823 202.325 314.161 202.225C313.499 202.124 312.825 202.169 312.18 202.357C310.967 202.742 309.898 203.526 309.125 204.597C308.3 205.659 307.801 206.967 307.696 208.344C307.584 210.098 308.002 211.845 308.89 213.325C309.917 214.815 311.259 216.024 312.807 216.852C315.314 218.286 318.623 220.065 318.623 220.065C318.623 220.065 321.228 217.752 323.587 216.046C325.05 215.053 326.268 213.7 327.142 212.101C327.88 210.53 328.127 208.747 327.847 207.014Z" fill="#E0E0E0"/>
<path d="M241.604 54.961C241.617 53.1862 241.125 51.4492 240.194 49.9794C239.334 48.519 238.072 47.3785 236.581 46.7142C235.293 46.1887 233.878 46.1315 232.556 46.5514C231.234 46.9714 230.078 47.8451 229.267 49.0375C228.926 48.1156 228.398 47.2863 227.72 46.6095C227.088 45.988 226.345 45.5091 225.536 45.2016C224.727 44.8941 223.868 44.7643 223.01 44.8199C221.392 44.9801 219.861 45.6792 218.634 46.8188C217.341 47.9305 216.398 49.439 215.931 51.1411C215.375 53.3225 215.488 55.6373 216.254 57.7448C217.187 59.9 218.587 61.787 220.337 63.2497C223.167 65.7405 226.898 68.8906 226.898 68.8906C226.898 68.8906 230.736 66.6824 234.124 65.1753C236.195 64.3177 238.045 62.9434 239.519 61.1671C240.821 59.3926 241.553 57.2159 241.604 54.961Z" fill="#E0E0E0"/>
<path d="M381.895 132.291C381.735 128.536 380.501 124.923 378.361 121.94C376.364 118.94 373.54 116.682 370.283 115.483C368.544 114.905 366.715 114.71 364.904 114.91C363.093 115.11 361.339 115.7 359.747 116.645C357.848 117.778 356.238 119.391 355.057 121.344C353.879 118.604 351.916 116.336 349.451 114.868C346.987 113.401 344.149 112.81 341.349 113.181C337.942 113.729 334.781 115.405 332.312 117.974C329.699 120.485 327.873 123.796 327.083 127.456C326.136 132.158 326.634 137.062 328.503 141.438C330.51 145.875 334.055 149.653 337.766 152.573C344.022 157.481 352.286 163.666 352.286 163.666C352.286 163.666 360.119 158.496 367.14 154.886C371.291 152.73 375.414 149.653 378.136 145.728C380.707 141.797 382.025 137.085 381.895 132.291Z" fill="#F5EFE9"/>
<path d="M97.847 34.8986C96.2997 31.5268 93.822 28.7434 90.7482 26.9239C87.8073 25.0226 84.3838 24.1517 80.9568 24.4331C78.0419 24.7446 75.3046 26.0756 73.1696 28.2195C71.0345 30.3634 69.621 33.2004 69.1484 36.2906C67.0444 34.292 64.4007 33.0599 61.5988 32.7721C58.797 32.4843 55.9821 33.1557 53.5605 34.6893C50.6384 36.6376 48.3639 39.5191 47.059 42.9257C45.5982 46.3463 45.1572 50.1645 45.7959 53.8621C46.6797 58.5566 48.9563 62.8213 52.2876 66.0231C55.7831 69.2464 60.4341 71.193 64.9381 72.3024C72.5068 74.1338 82.3864 76.3002 82.3864 76.3002C82.3864 76.3002 87.6737 68.179 92.7359 61.8997C95.7418 58.153 98.3855 53.6319 99.4038 48.8178C100.298 44.1198 99.7521 39.2389 97.847 34.8986Z" fill="#F5EFE9"/>
<path d="M309.429 16.0817C309.179 12.6908 307.959 9.46439 305.934 6.84062C304.05 4.18533 301.433 2.23027 298.453 1.25204C295.906 0.484144 293.193 0.634981 290.735 1.6812C288.276 2.72742 286.209 4.61068 284.853 7.03947C284.051 5.33866 282.908 3.84836 281.504 2.67535C280.193 1.60926 278.695 0.836461 277.098 0.403114C275.502 -0.0302333 273.84 -0.115243 272.212 0.153161C269.146 0.758874 266.335 2.37663 264.173 4.77891C261.879 7.13704 260.317 10.1909 259.699 13.5281C258.979 17.7978 259.566 22.2017 261.373 26.0867C263.498 30.044 266.48 33.3994 270.068 35.8719C275.864 40.0581 283.511 45.4479 283.511 45.4479C283.511 45.4479 290.493 40.5186 296.71 37.0755C300.538 35.0635 303.862 32.1033 306.404 28.4414C308.633 24.7784 309.695 20.4426 309.429 16.0817Z" fill="#F5EFE9"/>
<path d="M74.4454 243.016C74.3268 241.43 73.7561 239.922 72.8102 238.694C71.9291 237.453 70.7068 236.538 69.3147 236.077C68.1276 235.717 66.8626 235.786 65.7156 236.272C64.5686 236.758 63.6036 237.635 62.9699 238.767C62.4357 237.634 61.5795 236.71 60.5241 236.13C59.4687 235.549 58.2683 235.34 57.0951 235.533C55.647 235.814 54.32 236.58 53.3058 237.72C52.2353 238.82 51.5072 240.245 51.2202 241.802C50.8852 243.795 51.1599 245.85 52.0035 247.662C52.9932 249.511 54.3833 251.08 56.0572 252.236C58.7694 254.214 62.3432 256.705 62.3432 256.705C62.3432 256.705 65.594 254.402 68.502 252.77C70.2908 251.83 71.8447 250.449 73.0354 248.74C74.0631 247.041 74.557 245.036 74.4454 243.016Z" fill="#F5EFE9"/>
<path d="M175.199 12.3037C175.255 10.4197 174.766 8.56311 173.799 6.9872C172.913 5.40752 171.583 4.16623 170 3.4394C169.151 3.08117 168.243 2.9104 167.331 2.93738C166.419 2.96436 165.522 3.18853 164.693 3.59638C163.698 4.08266 162.831 4.82305 162.167 5.75227C161.822 4.76474 161.277 3.87116 160.571 3.1359C159.91 2.46214 159.129 1.93782 158.274 1.59435C157.42 1.25088 156.509 1.09532 155.597 1.13698C153.877 1.27851 152.242 1.98804 150.916 3.1673C149.526 4.3204 148.501 5.90229 147.979 7.69886C147.343 10.0001 147.419 12.459 148.194 14.7108C149.141 17.0244 150.595 19.0599 152.434 20.6447C155.372 23.3553 159.288 26.7775 159.288 26.7775C159.288 26.7775 163.41 24.5065 167.023 22.989C169.247 22.1111 171.242 20.6755 172.839 18.8028C174.255 16.9611 175.082 14.6837 175.199 12.3037Z" fill="#F5EFE9"/>
<path d="M56.1748 156.686C56.2658 153.601 55.4658 150.561 53.8836 147.978C52.4157 145.382 50.2196 143.346 47.6073 142.16C45.3899 141.217 42.9446 141.078 40.6458 141.762C38.347 142.446 36.3213 143.917 34.8785 145.948C34.0652 143.63 32.5833 141.649 30.6472 140.291C28.7111 138.933 26.421 138.268 24.108 138.392C21.2874 138.62 18.6037 139.783 16.4315 141.72C14.1502 143.607 12.4654 146.197 11.6044 149.14C10.5633 152.919 10.6869 156.955 11.9569 160.652C13.5133 164.441 15.8932 167.778 18.899 170.385C23.7947 174.823 30.1493 180.432 30.1493 180.432C30.1493 180.432 36.8956 176.717 42.8193 174.216C46.459 172.806 49.7293 170.484 52.3562 167.444C54.6817 164.392 56.0212 160.618 56.1748 156.686Z" fill="#F5EFE9"/>
<path d="M422.725 190.626C422.781 188.661 422.272 186.725 421.267 185.079C420.332 183.434 418.943 182.139 417.291 181.374C415.874 180.76 414.307 180.664 412.833 181.102C411.36 181.539 410.063 182.485 409.145 183.792C408.631 182.313 407.69 181.049 406.457 180.183C405.224 179.317 403.764 178.894 402.291 178.977C400.494 179.107 398.78 179.839 397.395 181.071C395.942 182.274 394.869 183.925 394.321 185.801C393.652 188.205 393.731 190.775 394.546 193.127C395.533 195.54 397.048 197.664 398.962 199.322C402.046 202.148 406.129 205.717 406.129 205.717C406.129 205.717 410.418 203.352 414.197 201.761C416.512 200.859 418.593 199.381 420.268 197.449C421.753 195.517 422.615 193.124 422.725 190.626Z" fill="#F5EFE9"/>
<path d="M357.642 60.4868C357.694 58.7622 357.246 57.0625 356.359 55.6204C355.55 54.18 354.338 53.0485 352.893 52.3865C351.658 51.8514 350.292 51.7664 349.007 52.1448C347.722 52.5232 346.589 53.3438 345.785 54.4796C345.454 53.5924 344.942 52.7951 344.287 52.1458C343.686 51.5319 342.976 51.0541 342.199 50.7411C341.421 50.4282 340.593 50.2866 339.763 50.3248C338.193 50.4469 336.699 51.0951 335.494 52.1772C334.226 53.2259 333.289 54.6651 332.811 56.3006C332.228 58.3951 332.296 60.6354 333.007 62.6846C333.873 64.7899 335.195 66.6446 336.865 68.0953C339.557 70.5547 343.121 73.6839 343.121 73.6839C343.121 73.6839 346.862 71.5907 350.161 70.2302C352.183 69.4444 354 68.1525 355.459 66.4626C356.77 64.7742 357.536 62.6782 357.642 60.4868Z" fill="#F5EFE9"/>
<path d="M58.5151 406.707C69.2857 422.405 88.5453 436.397 105.514 443.441C122.482 450.484 135.309 453.906 153.139 457.956C188.682 466.067 234.858 463.482 273.749 456.648C312.641 449.814 352.022 436.764 378.233 405.367L58.5151 406.707Z" fill="#EBEBEB"/>
<path d="M344.953 407.659L344.434 408.13C344.062 408.434 343.543 408.884 342.867 409.459C341.506 410.631 339.43 412.274 336.698 414.305C333.967 416.335 330.52 418.679 326.388 421.16C321.711 423.949 316.9 426.475 311.975 428.726C299.108 434.521 285.666 438.734 271.909 441.285C256.409 444.309 239.078 445.67 220.915 445.796C202.752 445.921 185.412 445.283 169.775 443.127C162.372 442.123 155.034 440.63 147.803 438.658C141.506 436.937 135.335 434.729 129.336 432.054C120.624 428.223 112.431 423.161 104.975 417.005C102.361 414.797 100.422 412.955 99.1593 411.667L97.72 410.192C97.3969 409.857 97.25 409.669 97.25 409.669L97.7592 410.15L99.2279 411.584C100.52 412.85 102.469 414.661 105.103 416.817C112.586 422.889 120.783 427.886 129.483 431.678C135.474 434.324 141.636 436.503 147.92 438.198C155.137 440.134 162.459 441.595 169.843 442.572C185.441 444.665 202.762 445.23 220.915 445.199C239.069 445.168 256.35 443.734 271.831 440.741C285.564 438.218 298.987 434.051 311.848 428.318C316.766 426.1 321.573 423.613 326.251 420.867C330.383 418.407 333.82 416.084 336.581 414.106C339.342 412.128 341.428 410.485 342.808 409.334L344.395 408.046C344.757 407.795 344.953 407.659 344.953 407.659Z" fill="white"/>
<path d="M283.022 405.168C283.022 405.168 282.943 405.252 282.757 405.399L281.964 406.016C281.269 406.56 280.202 407.314 278.802 408.245C274.82 410.821 270.621 412.99 266.259 414.723C259.785 417.285 253.082 419.13 246.255 420.228C237.899 421.564 229.461 422.221 221.013 422.196C212.572 422.316 204.132 421.932 195.732 421.045C188.855 420.31 182.086 418.694 175.571 416.231C171.179 414.545 167.005 412.274 163.146 409.47C161.795 408.423 160.796 407.596 160.13 407L159.396 406.299L159.151 406.058C159.249 406.113 159.341 406.179 159.425 406.257L160.199 406.916C160.874 407.492 161.892 408.298 163.253 409.292C167.13 412.005 171.299 414.208 175.669 415.854C182.172 418.246 188.916 419.813 195.761 420.521C204.147 421.378 212.57 421.749 220.993 421.631C229.414 421.657 237.825 421.017 246.157 419.716C252.961 418.644 259.646 416.842 266.112 414.336C270.469 412.654 274.674 410.552 278.674 408.057C280.084 407.167 281.171 406.445 281.886 405.964L282.708 405.388L283.022 405.168Z" fill="white"/>
<path d="M428.287 405.88C428.287 406.027 333.31 406.152 216.254 406.152C99.1982 406.152 4.20215 406.027 4.20215 405.88C4.20215 405.734 99.1199 405.608 216.254 405.608C333.389 405.608 428.287 405.723 428.287 405.88Z" fill="#263238"/>
<path d="M449.319 312.151C448.1 312.284 446.928 312.721 445.895 313.426C444.863 314.131 444 315.085 443.376 316.212C449.955 305.254 451.63 290.425 447.752 277.625C446.989 275.145 445.853 272.508 443.757 271.534C443.05 271.26 442.278 271.242 441.56 271.482C440.842 271.722 440.217 272.207 439.782 272.863C440.34 269.125 440.36 265.316 439.841 261.571C439.606 259.897 439.175 258.086 437.99 257.092C436.355 255.71 433.937 256.621 432.683 258.421C431.43 260.221 431.029 262.607 430.725 264.931C424.233 247.139 409.184 233.974 392.881 231.734C389.64 231.284 386.027 231.347 383.55 233.722C381.073 236.098 380.564 241.498 383.403 243.455C380.329 242.252 377.108 241.153 373.916 241.603C370.724 242.053 367.551 244.45 366.827 248.112C365.847 252.864 369.235 257.374 372.701 260.169C377.431 263.957 382.835 266.375 387.858 269.588C392.881 272.801 397.718 277.144 400.049 283.266C402.986 291.073 401.273 300.22 397.973 307.703C391.814 321.696 380.241 332.182 367.091 335.667L377.803 360.962C391.354 370.842 428.052 362.794 438.725 349.314C440.409 347.221 441.975 344.552 441.809 341.622C441.643 338.692 438.872 335.887 436.659 337.174C443.953 331.91 452.491 315.741 449.319 312.151Z" fill="#FF6B6C"/>
<g opacity="0.6">
<path d="M366.807 248.081C365.828 252.832 369.215 257.343 372.682 260.137C377.411 263.926 382.816 266.343 387.839 269.556C389.957 270.901 391.956 272.449 393.811 274.182C395.858 272.267 396.631 268.677 396.142 265.527C395.584 261.906 393.743 258.735 391.951 255.69C394.274 258.867 397.175 261.508 400.479 263.455C401.684 264.156 403.074 264.763 404.327 264.229C406.354 263.35 406.677 260.043 405.874 257.636C405.072 255.229 403.524 253.23 402.937 250.771C404.675 252.658 406.653 254.275 408.812 255.574C409.856 256.203 411.019 256.574 412.215 256.661C413.411 256.748 414.61 256.549 415.725 256.077C418.231 254.831 419.808 251.734 420.121 248.552C420.165 248.079 420.185 247.604 420.18 247.129C412.758 238.756 403.074 233.084 392.901 231.692C389.66 231.242 386.047 231.305 383.57 233.681C381.092 236.056 380.583 241.456 383.423 243.413C380.348 242.21 377.127 241.111 373.935 241.561C370.743 242.011 367.502 244.418 366.807 248.081Z" fill="white"/>
</g>
<path d="M362.89 300.607L333.869 283.863C333.869 283.863 316.156 273.198 307.226 263.926C291.374 247.464 287.643 233.168 287.643 233.168L202.067 275.155L184.687 281.047C186.861 290.77 187.184 309.158 193.019 327.964C194.635 333.197 199.403 338.011 199.619 336.263C199.785 334.809 199.619 337.226 199.619 337.226C202.644 345.766 206.14 356.849 216.509 364.562C224.274 377.121 240.87 384.3 247.655 388.445C257.692 394.567 295.78 406.581 295.78 406.581L325.399 408.999L399.637 346.028C399.637 346.028 395.202 318.524 362.89 300.607Z" fill="#FF6B6C"/>
<path d="M262.206 369.732C267.278 374.484 269.226 381.987 269.921 389.146C270.616 396.304 270.303 403.63 271.987 410.6C268.648 409.554 264.947 412.421 264.213 416.063C263.478 419.705 265.26 423.546 268.012 425.827C270.878 427.993 274.293 429.176 277.803 429.218C283.678 429.564 290.013 427.816 294.047 423.18C297.748 418.931 299.041 412.976 300.509 407.377C303.016 397.79 306.384 388.476 308.969 378.91C311.554 369.345 313.287 359.34 312.386 349.429L314.913 350.371C318.036 351.344 315.05 340.157 311.926 335.123" fill="#FF6B6C"/>
<path d="M311.907 335.123C312.157 335.481 312.386 335.855 312.592 336.243C313.203 337.373 313.745 338.544 314.218 339.749C314.983 341.683 315.586 343.686 316.019 345.735C316.152 346.362 316.247 346.999 316.303 347.64C316.394 348.338 316.358 349.049 316.195 349.733C316.153 349.934 316.059 350.119 315.924 350.266C315.789 350.414 315.619 350.519 315.432 350.57C315.241 350.607 315.045 350.607 314.854 350.57L314.355 350.382L312.318 349.638L312.514 349.461C312.943 354.408 312.824 359.393 312.161 364.311C311.33 370.294 310.056 376.198 308.352 381.966C306.6 388.246 304.436 394.745 302.36 401.673C301.312 405.127 300.402 408.716 299.423 412.358C298.533 416.138 296.927 419.682 294.703 422.771C291.615 426.415 287.38 428.717 282.807 429.239C280.625 429.56 278.415 429.588 276.227 429.323C274.084 429.092 271.994 428.469 270.049 427.481C268.149 426.499 266.534 424.983 265.378 423.096C264.239 421.274 263.705 419.096 263.86 416.911C264.213 412.578 268.374 409.229 272.046 410.359L271.782 410.631C270.303 404.247 270.372 398.219 270.039 392.987C269.899 388.46 269.184 383.975 267.914 379.654C267.091 376.879 265.804 374.287 264.115 372.003C263.672 371.404 263.194 370.834 262.685 370.297C262.343 369.942 262.167 369.732 262.167 369.732C262.92 370.385 263.608 371.118 264.223 371.92C265.96 374.189 267.288 376.783 268.139 379.57C269.451 383.912 270.192 388.427 270.342 392.987C270.705 398.219 270.675 404.247 272.154 410.537L272.242 410.924L271.889 410.82C268.531 409.773 264.575 412.913 264.281 416.974C264.136 419.05 264.65 421.119 265.74 422.845C266.852 424.653 268.406 426.101 270.235 427.031C272.127 427.992 274.161 428.595 276.247 428.81C278.392 429.075 280.56 429.047 282.699 428.726C287.184 428.22 291.335 425.957 294.351 422.374C296.528 419.338 298.101 415.859 298.972 412.149C299.951 408.538 300.842 404.917 301.91 401.464C303.966 394.525 306.179 387.995 307.951 381.778C309.665 376.035 310.952 370.156 311.799 364.196C312.478 359.312 312.626 354.36 312.24 349.44V349.188L312.465 349.272L314.501 350.036C314.805 350.199 315.141 350.279 315.481 350.266C315.618 350.224 315.741 350.141 315.838 350.029C315.935 349.916 316.001 349.778 316.029 349.628C316.184 348.986 316.224 348.318 316.146 347.66C316.091 347.031 316.002 346.406 315.882 345.787C315.468 343.75 314.892 341.754 314.159 339.822C313.708 338.617 313.195 337.439 312.622 336.295C312.426 335.918 312.269 335.636 312.161 335.416C312.067 335.328 311.981 335.23 311.907 335.123Z" fill="#263238"/>
<path d="M275.952 414.085C275.952 414.169 275.228 414.514 274.161 415.32C272.761 416.351 271.582 417.687 270.701 419.24C269.82 420.793 269.257 422.528 269.049 424.331C268.873 425.712 268.932 426.591 268.854 426.602C268.646 425.852 268.589 425.064 268.687 424.289C268.804 422.401 269.345 420.571 270.263 418.953C271.182 417.335 272.452 415.978 273.965 414.996C274.559 414.544 275.237 414.233 275.952 414.085Z" fill="#263238"/>
<path d="M283.267 414.587C283.315 414.661 282.562 415.173 281.563 416.23C280.253 417.589 279.228 419.23 278.557 421.045C277.895 422.867 277.595 424.816 277.676 426.769C277.744 428.266 277.96 429.187 277.881 429.208C277.546 428.45 277.356 427.628 277.323 426.79C277.124 424.771 277.383 422.731 278.079 420.842C278.774 418.952 279.885 417.27 281.318 415.937C281.875 415.35 282.538 414.891 283.267 414.587Z" fill="#263238"/>
<path d="M210.928 360.219C214.09 367.273 217.625 373.238 218.31 380.396C218.996 387.555 218.702 394.881 220.376 401.851C217.038 400.804 213.346 403.682 212.612 407.314C211.878 410.945 213.65 414.807 216.401 417.089C219.272 419.244 222.685 420.422 226.193 420.469C232.067 420.825 238.402 419.067 242.436 414.43C246.138 410.181 249.163 395.467 250.27 389.774" fill="#FF6B6C"/>
<path d="M250.289 389.774C250.298 389.878 250.298 389.983 250.289 390.088C250.25 390.318 250.201 390.621 250.142 390.998C249.996 391.794 249.78 392.976 249.467 394.483C248.624 398.734 247.545 402.928 246.236 407.042C245.815 408.35 245.257 409.69 244.708 411.071C244.097 412.52 243.259 413.847 242.231 414.996C239.866 417.439 236.925 419.15 233.722 419.946C230.194 420.87 226.523 420.98 222.952 420.27C221.06 419.909 219.242 419.201 217.576 418.177C215.844 417.108 214.416 415.556 213.444 413.687C212.722 412.319 212.313 410.788 212.25 409.219C212.183 407.661 212.573 406.121 213.366 404.813C214.132 403.551 215.219 402.549 216.499 401.924C217.119 401.623 217.78 401.429 218.458 401.349C219.132 401.294 219.811 401.361 220.465 401.547L220.161 401.861C218.722 395.697 218.751 389.763 218.438 384.551C218.364 382.091 218.102 379.641 217.655 377.226C217.211 375.176 216.598 373.173 215.824 371.239C214.414 367.702 213.062 364.96 212.22 363.097C211.79 362.145 211.457 361.423 211.241 360.92C211.143 360.69 211.065 360.502 211.006 360.345C210.948 360.188 210.928 360.156 210.938 360.146C210.98 360.204 211.016 360.268 211.045 360.334C211.114 360.481 211.202 360.659 211.32 360.878C211.564 361.402 211.917 362.113 212.357 362.972C213.248 364.845 214.639 367.524 216.098 371.072C216.915 373.016 217.57 375.033 218.056 377.1C218.52 379.514 218.799 381.964 218.888 384.426C219.241 389.659 219.241 395.561 220.67 401.642L220.778 402.092L220.367 401.956C217.978 401.192 215.217 402.646 213.797 405.012C213.103 406.277 212.746 407.721 212.765 409.188C212.784 410.654 213.178 412.087 213.904 413.332C214.828 415.11 216.18 416.592 217.821 417.622C219.434 418.617 221.197 419.304 223.03 419.653C226.516 420.346 230.099 420.246 233.546 419.36C236.672 418.6 239.548 416.951 241.869 414.587C242.871 413.477 243.688 412.192 244.287 410.788C244.869 409.493 245.385 408.166 245.834 406.812C247.174 402.693 248.305 398.501 249.222 394.253C249.548 392.774 249.803 391.623 249.986 390.799C250.064 390.423 250.133 390.13 250.182 389.899C250.215 389.855 250.251 389.813 250.289 389.774Z" fill="#263238"/>
<path d="M224.352 405.336C224.352 405.42 223.627 405.765 222.55 406.571C221.153 407.604 219.976 408.94 219.095 410.493C218.214 412.046 217.65 413.78 217.439 415.582C217.263 416.973 217.331 417.853 217.243 417.853C217.036 417.106 216.979 416.322 217.077 415.55C217.2 413.662 217.743 411.833 218.661 410.215C219.579 408.597 220.845 407.236 222.354 406.246C222.954 405.799 223.634 405.489 224.352 405.336Z" fill="#263238"/>
<path d="M231.685 405.88C231.685 405.953 230.99 406.456 229.982 407.513C228.68 408.883 227.657 410.525 226.976 412.337C226.317 414.157 226.02 416.103 226.104 418.052C226.163 419.559 226.388 420.469 226.3 420.49C225.963 419.736 225.774 418.917 225.742 418.083C225.547 416.07 225.807 414.036 226.5 412.153C227.194 410.27 228.3 408.592 229.727 407.262C230.282 406.659 230.949 406.189 231.685 405.88Z" fill="#263238"/>
<path d="M257.545 392.61C257.259 392.566 256.977 392.496 256.703 392.4C256.164 392.243 255.351 392.034 254.333 391.689C251.444 390.716 248.623 389.523 245.893 388.12C241.85 386.019 238.015 383.487 234.447 380.564C230.082 376.962 226.16 372.784 222.775 368.131C221.933 367.022 221.219 365.839 220.445 364.719L220.866 364.405C221.249 364.908 221.517 365.499 221.649 366.132C221.666 366.356 221.599 366.578 221.463 366.75C221.33 366.898 221.154 366.994 220.964 367.022C220.66 367.063 220.351 367.045 220.053 366.969C218.965 366.724 217.936 366.243 217.028 365.556C213.446 363.072 210.344 359.874 207.892 356.137C205.928 353.205 204.23 350.079 202.821 346.802C201.636 344.039 200.862 341.779 200.314 340.209C200.05 339.435 199.883 338.817 199.756 338.398C199.689 338.193 199.633 337.983 199.589 337.771C199.693 337.958 199.775 338.158 199.834 338.367C200.001 338.817 200.206 339.414 200.48 340.146C201.029 341.695 201.881 343.935 203.114 346.656C204.549 349.893 206.264 352.979 208.235 355.876C210.681 359.546 213.754 362.688 217.292 365.138C218.142 365.76 219.096 366.201 220.102 366.436C220.602 366.54 221.189 366.53 221.081 366.163C220.955 365.634 220.721 365.141 220.396 364.719L220.807 364.405C221.571 365.515 222.286 366.687 223.128 367.786C226.483 372.403 230.36 376.558 234.672 380.156C240.606 385.104 247.271 388.96 254.392 391.563C255.371 391.94 256.203 392.181 256.732 392.369C257.009 392.424 257.281 392.504 257.545 392.61Z" fill="#263238"/>
<path d="M391.413 333.187L363.703 355.981C355.556 357.226 349.995 363.181 344.443 369.648C337.129 378.126 338.784 386.613 336.61 395.09C336.034 396.766 335.327 398.387 334.495 399.936C332.84 403.735 328.493 402.604 326.221 403.337C323.509 404.206 322.305 405.587 321.032 408.308C320.42 409.701 320.2 411.254 320.4 412.778C320.6 414.302 321.211 415.731 322.158 416.89C323.813 418.753 326.594 419.108 328.943 419.663C335.494 421.191 342.26 422.74 348.84 421.359C355.419 419.977 361.794 414.87 362.773 407.753C367.444 409.02 372.385 408.475 376.716 406.215C381.012 403.922 384.795 400.666 387.809 396.67C394.663 387.995 399.647 376.943 400.293 365.609C400.94 354.275 397.248 342.679 391.413 333.187Z" fill="#FF6B6C"/>
<path d="M369.744 355.981C369.665 355.967 369.589 355.939 369.519 355.897L368.883 355.604C368.066 355.22 367.225 354.898 366.366 354.641C363.219 353.691 359.911 353.519 356.692 354.139C354.475 354.553 352.324 355.307 350.308 356.378C347.999 357.619 345.882 359.233 344.032 361.161C339.825 365.63 336.862 371.261 335.474 377.424C334.113 383.614 333.844 390.02 334.681 396.315C334.965 397.764 334.877 399.268 334.427 400.668C334.14 401.339 333.673 401.904 333.085 402.29C332.528 402.641 331.913 402.876 331.274 402.981C330.04 403.211 328.846 403.191 327.739 403.327C326.678 403.434 325.648 403.773 324.714 404.321C323.279 405.136 322.117 406.409 321.389 407.961C320.661 409.514 320.403 411.27 320.65 412.986C320.831 414.251 321.24 415.467 321.855 416.565C321.651 416.313 321.477 416.035 321.336 415.739C320.896 414.894 320.597 413.973 320.454 413.018C320.211 411.499 320.349 409.939 320.856 408.497C321.411 406.984 322.344 405.664 323.552 404.678C324.76 403.693 326.199 403.081 327.71 402.908C328.855 402.761 330.04 402.772 331.215 402.542C331.813 402.476 332.387 402.249 332.881 401.883C333.376 401.517 333.776 401.024 334.045 400.449C334.449 399.123 334.513 397.707 334.231 396.346C333.363 389.995 333.625 383.525 335.004 377.278C336.407 370.994 339.437 365.26 343.748 360.732C345.641 358.781 347.805 357.154 350.161 355.907C352.22 354.836 354.413 354.092 356.673 353.699C359.941 353.102 363.294 353.331 366.464 354.369C367.615 354.76 368.717 355.301 369.744 355.981Z" fill="#263238"/>
<path d="M327.857 418.91C327.346 418.346 326.982 417.65 326.799 416.89C326.221 415.074 326.269 413.097 326.936 411.316C327.602 409.535 328.842 408.067 330.432 407.178C331.054 406.758 331.772 406.526 332.508 406.508C332.508 406.592 331.715 406.791 330.618 407.555C329.165 408.476 328.036 409.884 327.408 411.56C326.779 413.237 326.686 415.088 327.142 416.827C327.475 418.125 327.935 418.857 327.857 418.91Z" fill="#263238"/>
<path d="M338.412 421.055C338.193 420.99 337.989 420.876 337.814 420.72C337.312 420.353 336.866 419.905 336.493 419.391C335.843 418.547 335.372 417.563 335.113 416.506C334.854 415.449 334.813 414.344 334.992 413.268C335.172 412.192 335.568 411.171 336.153 410.275C336.739 409.378 337.499 408.629 338.382 408.078C338.901 407.735 339.466 407.477 340.057 407.314C340.27 407.233 340.497 407.204 340.722 407.23C339.982 407.565 339.266 407.957 338.578 408.402C337.774 408.96 337.085 409.687 336.554 410.541C336.023 411.394 335.663 412.355 335.494 413.364C335.325 414.372 335.351 415.407 335.572 416.405C335.793 417.402 336.203 418.34 336.777 419.161C337.281 419.831 337.827 420.464 338.412 421.055Z" fill="#263238"/>
<path d="M400.294 365.588C400.196 365.588 400.499 363.735 400.636 360.732C400.722 358.989 400.722 357.242 400.636 355.499C400.499 353.358 400.247 351.226 399.882 349.115C399.182 345.28 398.126 341.529 396.73 337.917C396.201 336.525 395.75 335.405 395.408 334.652C395.216 334.261 395.062 333.851 394.948 333.427C395.193 333.781 395.406 334.16 395.584 334.558C395.976 335.29 396.485 336.379 397.062 337.76C398.565 341.363 399.679 345.138 400.382 349.01C400.758 351.147 401 353.307 401.106 355.478C401.182 357.247 401.156 359.019 401.028 360.784C400.951 361.978 400.807 363.167 400.597 364.342C400.532 364.767 400.43 365.183 400.294 365.588Z" fill="#263238"/>
<path d="M340.429 327.263C340.245 327.157 340.074 327.027 339.92 326.876C339.597 326.604 339.146 326.175 338.598 325.61C337.107 324.028 335.816 322.244 334.76 320.304L335.161 320.105C335.984 322.643 336.278 325.344 336.023 328.017C335.937 328.885 335.793 329.745 335.592 330.591L335.445 331.209L335.132 330.664C333.095 327.158 331.313 324.05 330.06 321.8L328.62 319.152C328.428 318.84 328.267 318.507 328.141 318.158C328.383 318.426 328.594 318.725 328.767 319.048L330.363 321.612C331.695 323.809 333.526 326.844 335.582 330.382L335.122 330.455C335.313 329.636 335.45 328.804 335.533 327.964C335.78 325.367 335.517 322.743 334.76 320.262L335.171 320.063C336.186 321.991 337.408 323.786 338.813 325.411C339.812 326.593 340.468 327.211 340.429 327.263Z" fill="#263238"/>
<g opacity="0.3">
<path d="M340.272 364.541C334.819 369.897 330.961 376.848 329.178 384.531C328.858 386.644 328.216 388.687 327.279 390.58C324.998 394.358 320.17 395.31 315.97 394.881L304.602 393.761L300.597 406.969C307.931 408.015 320.768 408.612 320.768 408.612C322.501 404.802 325.066 403.013 328.855 402.897C329.919 402.853 330.976 402.692 332.008 402.416C332.668 402.158 333.245 401.703 333.672 401.106C334.099 400.509 334.357 399.795 334.417 399.046C334.514 397.544 334.385 396.036 334.035 394.577C332.338 384.078 334.579 373.287 340.272 364.541Z" fill="black"/>
</g>
<path opacity="0.3" d="M236.973 380.888L269.725 392.913L270.479 398.031C270.479 398.031 239.519 388.246 236.973 380.888Z" fill="black"/>
<g opacity="0.6">
<path d="M271.938 239.458L186.919 286.908C192.403 318.305 202.419 337.572 225.272 358.157C227.691 360.334 238.177 367.984 241.076 369.345C243.955 370.834 247.264 371.063 250.299 369.983C254.02 368.455 256.399 364.573 258.034 360.69C262.578 349.952 263.253 337.886 263.86 326.154C265.528 328.423 266.636 331.104 267.082 333.951C273.661 324.532 261.951 292.235 262.519 280.503C263.508 260.085 275.453 259.551 271.938 239.458Z" fill="white"/>
</g>
<path d="M187.007 287.159C187.007 287.159 169.383 242.786 169.138 223.435C168.893 204.084 184.207 189.736 184.207 189.736C186.589 177.46 189.963 165.428 194.292 153.776C201.009 136.372 221.297 109.591 226.966 111.517C232.635 113.442 235.24 116.749 235.269 132.448C235.299 148.146 237.13 157.209 237.13 157.209C237.13 157.209 250.475 160.349 254.754 165.477C254.754 165.477 257.78 165.184 261.53 161.688C265.28 158.193 291.883 133.348 299.511 139.25C307.138 145.153 304.543 173.389 298.61 185.445C292.676 197.501 282.944 213.032 282.62 214.466C282.297 215.9 286.263 233.89 284.079 243.152C281.896 252.414 275.62 264.083 265.064 272.822C254.509 281.56 222.961 302.334 207.922 298.42C192.882 294.506 187.007 287.159 187.007 287.159Z" fill="#FF6B6C"/>
<path opacity="0.6" d="M187.007 287.159C187.007 287.159 169.383 242.786 169.138 223.435C168.893 204.084 184.207 189.736 184.207 189.736C186.589 177.46 189.963 165.428 194.292 153.776C201.009 136.372 221.297 109.591 226.966 111.517C232.635 113.442 235.24 116.749 235.269 132.448C235.299 148.146 237.13 157.209 237.13 157.209C237.13 157.209 250.475 160.349 254.754 165.477C254.754 165.477 257.78 165.184 261.53 161.688C265.28 158.193 291.883 133.348 299.511 139.25C307.138 145.153 304.543 173.389 298.61 185.445C292.676 197.501 282.944 213.032 282.62 214.466C282.297 215.9 286.263 233.89 284.079 243.152C281.896 252.414 275.62 264.083 265.064 272.822C254.509 281.56 222.961 302.334 207.922 298.42C192.882 294.506 187.007 287.159 187.007 287.159Z" fill="white"/>
<path d="M298.59 185.476C304.524 173.42 307.079 145.184 299.491 139.282C291.903 133.379 265.27 158.182 261.51 161.72C257.75 165.257 254.735 165.508 254.735 165.508C254.274 164.965 253.762 164.474 253.207 164.043C248.677 167.614 244.634 171.84 241.193 176.602C236.716 182.754 233.884 190.089 232.998 197.826C232.665 201.29 232.841 204.963 234.476 207.988C236.513 211.745 240.439 213.848 244.326 215.094C257.809 219.427 283.414 208.815 276.354 242.158C276.354 242.158 270.832 257.427 265.691 266.888C264.369 269.326 263.517 274.674 262.754 277.353C263.635 276.673 268.149 278.075 268.854 277.489C279.419 268.771 294.488 257.94 291.638 248.887C287.085 234.424 282.219 215.9 282.581 214.476C282.944 213.053 292.657 197.522 298.59 185.476Z" fill="#FF6B6C"/>
<g opacity="0.6">
<path d="M297.719 144.766C295.908 143.457 293.47 144.148 291.472 145.09C280.611 150.366 271.336 158.765 264.683 169.349C264.791 180.441 267.903 191.263 273.642 200.505C274.533 201.928 275.816 203.477 277.402 203.247C277.97 203.077 278.501 202.79 278.965 202.4C279.429 202.01 279.816 201.526 280.104 200.976C290.072 186.544 297.68 169.841 299.55 152.008C299.824 149.391 299.756 146.241 297.719 144.766Z" fill="white"/>
</g>
<path d="M219.652 191.264C224.088 184.922 228.131 178.255 232.988 172.279C236.745 167.482 241.254 163.42 246.314 160.275C243.318 159.06 240.25 158.06 237.13 157.282C237.13 157.282 235.299 148.282 235.269 132.521C235.24 116.76 232.626 113.474 226.966 111.59C221.307 109.706 201.009 136.445 194.292 153.849C190.54 163.895 187.515 174.234 185.245 184.775L185.431 184.869C189.602 188.009 192.902 192.279 196.975 195.544C201.048 198.809 206.404 201.07 211.212 199.27C214.796 197.846 217.371 194.518 219.652 191.264Z" fill="#FF6B6C"/>
<path d="M220.406 211.556C218.1 209.735 215.511 208.363 212.759 207.506C211.075 206.91 209.019 206.523 207.697 207.789C207.203 208.343 206.872 209.04 206.745 209.794C206.618 210.547 206.7 211.324 206.982 212.027C207.568 213.428 208.445 214.666 209.547 215.648C210.586 216.842 211.884 217.744 213.327 218.275C215.755 218.987 216.969 218.506 219.202 217.292C220.234 216.738 221.19 216.033 222.041 215.198C222.658 214.56 222.746 212.865 220.406 211.556Z" fill="#263238"/>
<path d="M230.834 224.628C226.849 227.925 225.781 232.613 224.538 237.835C223.294 243.058 222.423 248.521 219.721 253.063C217.018 257.605 211.819 261.027 206.992 259.488C205.687 259.022 204.482 258.284 203.445 257.318C202.409 256.352 201.561 255.176 200.95 253.858C199.746 251.209 199.114 248.305 199.1 245.36C198.939 240.847 199.694 236.351 201.313 232.179C202.932 228.008 205.377 224.261 208.48 221.195C209.857 221.419 211.196 221.856 212.455 222.493C213.572 223.288 219.858 227.286 224.43 226.093C229.003 224.9 230.834 224.628 230.834 224.628Z" fill="#FF6B6C"/>
<path d="M210.076 241.833C209.933 240.915 209.933 239.978 210.076 239.06C210.303 236.825 210.858 234.642 211.721 232.592C212.57 230.533 213.713 228.626 215.109 226.941C215.662 226.216 216.324 225.594 217.067 225.099C217.126 225.172 216.391 225.884 215.393 227.192C214.106 228.91 213.033 230.799 212.201 232.812C211.359 234.813 210.769 236.924 210.448 239.091C210.144 240.776 210.144 241.833 210.076 241.833Z" fill="#263238"/>
<path d="M237.972 219.803C237.895 219.99 237.796 220.166 237.678 220.327C237.369 220.801 237.011 221.236 236.611 221.624C235.091 223.03 233.304 224.066 231.372 224.659C230.062 225.101 228.732 225.472 227.387 225.769C225.852 226.196 224.273 226.417 222.687 226.428C219.014 226.404 215.441 225.145 212.475 222.828C211.743 222.244 210.911 221.817 210.027 221.572C209.165 221.384 208.235 221.572 207.295 221.373C206.406 221.199 205.563 220.82 204.826 220.261C204.088 219.703 203.474 218.978 203.026 218.139C202.167 216.671 201.716 214.973 201.724 213.241C201.74 211.746 202.046 210.27 202.625 208.909C203.45 206.939 204.772 205.254 206.443 204.042C206.9 203.723 207.382 203.447 207.883 203.215C208.053 203.131 208.23 203.064 208.412 203.017C208.412 203.017 207.697 203.362 206.561 204.22C204.977 205.459 203.733 207.128 202.958 209.055C202.428 210.379 202.152 211.802 202.145 213.241C202.161 214.883 202.601 216.488 203.418 217.878C203.834 218.644 204.398 219.306 205.074 219.819C205.75 220.331 206.521 220.683 207.334 220.85C208.177 221.007 209.107 220.85 210.086 221.038C211.036 221.299 211.931 221.754 212.72 222.378C215.605 224.633 219.074 225.873 222.648 225.926C224.202 225.926 225.751 225.726 227.26 225.329C228.699 225.005 230.041 224.68 231.225 224.283C233.126 223.74 234.9 222.782 236.434 221.467C236.975 220.944 237.489 220.388 237.972 219.803Z" fill="#263238"/>
<g opacity="0.6">
<path d="M192.334 179.856C201.776 171.826 211.983 164.88 222.785 159.135C224.375 158.426 225.821 157.396 227.045 156.1C228.455 154.373 228.944 152.039 229.385 149.82C231.02 141.563 232.655 132.919 230.54 124.787C229.796 121.93 228.102 118.801 225.331 118.581C223.579 118.434 221.973 119.523 220.573 120.674C210.595 128.858 204.73 141.375 199.188 153.452C195.458 161.594 191.649 170.029 191.238 179.092" fill="white"/>
</g>
<path d="M211.182 221.76C210.55 220.982 210.218 219.976 210.252 218.945C210.148 217.918 210.402 216.885 210.967 216.046C211.124 216.109 210.703 217.354 210.761 218.914C210.82 220.473 211.329 221.687 211.182 221.76Z" fill="#263238"/>
<g opacity="0.6">
<path d="M249.487 184.409C247.213 183.891 244.853 184.007 242.633 184.744C242.219 184.841 241.83 185.032 241.492 185.305C241.154 185.578 240.875 185.925 240.674 186.324C240.214 187.632 241.34 188.951 242.437 189.715C244.532 191.155 246.926 192.024 249.408 192.248C250.288 192.364 251.18 192.289 252.032 192.028C252.456 191.896 252.849 191.67 253.187 191.365C253.524 191.061 253.798 190.684 253.991 190.259C254.205 189.579 254.227 188.847 254.053 188.154C253.879 187.461 253.516 186.839 253.011 186.366C251.993 185.425 250.807 184.713 249.526 184.273" fill="white"/>
</g>
<g opacity="0.6">
<path d="M216.499 173.242C214.226 172.722 211.865 172.838 209.645 173.577C209.223 173.667 208.824 173.855 208.477 174.128C208.13 174.402 207.844 174.753 207.638 175.157C207.168 176.466 208.294 177.784 209.391 178.548C211.487 179.986 213.88 180.856 216.362 181.081C217.242 181.197 218.135 181.123 218.986 180.861C219.41 180.728 219.803 180.501 220.14 180.197C220.477 179.892 220.751 179.516 220.945 179.092C221.157 178.412 221.177 177.681 221.003 176.988C220.829 176.296 220.468 175.674 219.966 175.199C218.948 174.256 217.762 173.544 216.48 173.106" fill="white"/>
</g>
<path d="M218.487 135.305C218.555 135.378 217.331 136.718 215.745 139.198C214.82 140.646 213.995 142.164 213.278 143.74C211.511 147.616 210.407 151.798 210.017 156.089C209.862 157.828 209.823 159.577 209.9 161.322C210.047 164.315 210.429 166.147 210.331 166.168C210.18 165.756 210.072 165.328 210.008 164.891C209.898 164.39 209.813 163.884 209.753 163.373C209.684 162.777 209.567 162.097 209.538 161.343C209.401 159.57 209.401 157.789 209.538 156.016C209.884 151.665 211.011 147.426 212.857 143.531C213.603 141.943 214.471 140.424 215.452 138.989C215.853 138.361 216.274 137.837 216.626 137.377C216.933 136.974 217.26 136.59 217.606 136.226C217.867 135.885 218.162 135.576 218.487 135.305Z" fill="#263238"/>
<path d="M247.156 202.493C247.138 203.429 246.861 204.338 246.36 205.106C245.859 205.873 245.156 206.464 244.34 206.805C243.524 207.145 242.633 207.219 241.778 207.017C240.922 206.816 240.143 206.347 239.537 205.672C238.931 204.996 238.526 204.144 238.373 203.222C238.221 202.3 238.327 201.351 238.68 200.494C239.032 199.638 239.614 198.912 240.353 198.409C241.091 197.906 241.953 197.648 242.828 197.669C243.409 197.681 243.982 197.816 244.514 198.065C245.046 198.314 245.527 198.673 245.929 199.121C246.331 199.569 246.646 200.098 246.857 200.677C247.067 201.255 247.169 201.873 247.156 202.493Z" fill="#263238"/>
<path d="M213.464 189.924C213.446 190.86 213.169 191.769 212.668 192.537C212.167 193.304 211.464 193.895 210.648 194.236C209.833 194.576 208.941 194.65 208.086 194.448C207.231 194.247 206.451 193.778 205.845 193.103C205.239 192.427 204.834 191.575 204.681 190.653C204.529 189.731 204.635 188.782 204.988 187.925C205.34 187.068 205.922 186.343 206.661 185.84C207.399 185.337 208.261 185.079 209.136 185.1C210.308 185.127 211.422 185.651 212.234 186.555C213.045 187.46 213.488 188.671 213.464 189.924Z" fill="#263238"/>
<path d="M296.818 152.719C296.692 152.884 296.555 153.038 296.407 153.18L295.183 154.436C294.116 155.482 292.588 157.115 290.777 159.166C286.039 164.533 281.815 170.391 278.165 176.654L277.882 177.146L277.705 176.602C277.627 176.34 277.529 176.057 277.441 175.775C276.589 173.179 275.776 170.657 275.003 168.292H275.463C273.209 173.539 271.932 179.205 271.703 184.974C271.637 186.655 271.657 188.339 271.762 190.018C271.824 190.623 271.854 191.231 271.85 191.839C271.799 191.691 271.77 191.536 271.762 191.379C271.762 191.075 271.644 190.625 271.586 190.039C271.421 188.353 271.356 186.658 271.39 184.964C271.514 179.129 272.747 173.382 275.013 168.072L275.267 167.476L275.473 168.093L277.921 175.576L278.185 176.403L277.735 176.35C281.396 170.052 285.683 164.196 290.522 158.884C292.373 156.864 293.939 155.304 295.046 154.258C295.594 153.735 296.025 153.347 296.338 153.075C296.483 152.935 296.645 152.816 296.818 152.719Z" fill="#263238"/>
<path d="M227.044 302.376C227.121 302.662 227.164 302.958 227.172 303.255C227.23 303.831 227.289 304.689 227.338 305.767C227.44 308.776 227.319 311.789 226.976 314.778L226.927 315.186L226.623 314.924C223.389 312.239 220.619 308.97 218.438 305.265C218.203 304.867 217.987 304.469 217.772 304.082L218.242 303.883L220.798 315.186L220.984 316.002L220.435 315.406C218.445 313.249 216.815 310.742 215.618 307.996C215.285 307.229 214.99 306.443 214.737 305.641C214.634 305.362 214.562 305.07 214.521 304.773C214.661 305.032 214.776 305.305 214.864 305.589C215.079 306.123 215.393 306.908 215.843 307.871C217.104 310.535 218.757 312.967 220.739 315.071L220.376 315.291C219.603 311.973 218.702 308.132 217.743 304.009L217.331 302.23L218.213 303.81C218.428 304.197 218.643 304.584 218.869 304.972C221.021 308.624 223.732 311.865 226.888 314.558L226.535 314.715C226.909 311.753 227.092 308.767 227.084 305.778C227.084 304.731 227.084 303.915 227.084 303.266C227.045 302.971 227.032 302.673 227.044 302.376Z" fill="#263238"/>
<path d="M78.6757 390.13C74.1325 393.552 69.413 396.922 64.0571 398.502C58.7012 400.082 52.5131 399.549 48.2049 395.823C42.6825 391.009 41.6838 382.396 42.33 374.798C43.5735 359.33 49.6931 343.998 46.9026 328.749C45.8495 323.245 43.6754 318.055 40.5346 313.55C37.3939 309.044 33.3635 305.333 28.7298 302.68C24.065 300.106 18.9275 298.662 13.6818 298.448C8.43615 298.235 3.2108 299.258 -1.62354 301.445C-7.62566 304.218 -13.2459 309.535 -13.9607 316.473C-12.0024 322.92 -3.02371 328.247 2.93925 330.508C8.9022 332.768 15.531 335.238 18.5076 341.203C21.0925 346.384 20.1133 352.653 19.4867 358.492C18.4911 368.402 18.8473 378.414 20.5442 388.214C21.8171 395.54 23.9516 402.981 28.5633 408.591C35.7698 417.361 47.7447 419.988 58.6033 418.742C69.462 417.497 79.7135 413.007 90.1708 409.669L78.6757 390.13Z" fill="#FF6B6C"/>
<g opacity="0.5">
<path d="M46.031 334.327C46.4792 333.051 46.8456 331.743 47.1277 330.413C47.0493 329.862 46.9612 329.307 46.8633 328.749C45.8102 323.245 43.6361 318.055 40.4953 313.55C37.3546 309.044 33.3242 305.333 28.6905 302.68C24.0257 300.106 18.8882 298.662 13.6425 298.448C8.39684 298.235 3.1715 299.258 -1.66284 301.445C-7.66497 304.218 -13.2852 309.535 -14 316.473C-12.0417 322.92 -3.06301 328.247 2.89994 330.508C8.8629 332.768 15.4917 335.238 18.4683 341.203C20.2111 344.699 20.3286 348.686 20.0447 352.715C21.1316 352.872 22.2302 352.914 23.3248 352.841C33.3316 352.182 42.467 344.395 46.031 334.327Z" fill="white"/>
</g>
<path d="M153.119 405.43C156.057 403.431 162.695 402.908 166.142 402.489C169.589 402.071 173.339 403.117 175.63 405.901C177.921 408.685 178.313 413.321 175.973 416.053C173.3 419.192 167.239 419.129 163.244 419.129C152.473 419.129 146.177 418.91 136.308 419.129" fill="#FF6B6C"/>
<path d="M136.337 419.129C136.586 419.081 136.838 419.056 137.091 419.056L139.265 418.962C141.145 418.91 143.867 418.847 147.235 418.836H159.073C161.295 418.836 163.636 418.836 166.044 418.836C168.52 418.86 170.982 418.443 173.329 417.601C174.475 417.135 175.476 416.333 176.218 415.289C176.885 414.232 177.258 412.994 177.295 411.72C177.338 410.51 177.13 409.305 176.684 408.192C176.239 407.079 175.568 406.085 174.719 405.283C173.134 403.852 171.183 402.962 169.119 402.73C167.302 402.587 165.475 402.664 163.675 402.96C161.034 403.187 158.414 403.642 155.842 404.321C155.149 404.521 154.472 404.777 153.815 405.085C153.595 405.218 153.366 405.333 153.129 405.43C153.129 405.43 153.178 405.378 153.286 405.304C153.394 405.231 153.55 405.116 153.766 404.99C154.412 404.633 155.087 404.339 155.783 404.111C158.346 403.354 160.968 402.843 163.616 402.583C165.443 402.253 167.299 402.151 169.148 402.28C171.309 402.503 173.357 403.418 175.023 404.907C175.929 405.755 176.647 406.808 177.125 407.991C177.603 409.173 177.828 410.454 177.784 411.741C177.749 413.121 177.345 414.461 176.619 415.602C175.824 416.735 174.744 417.602 173.505 418.104C171.106 418.973 168.587 419.401 166.054 419.37C163.616 419.37 161.286 419.37 159.053 419.37L147.225 419.224H139.255H137.081C136.831 419.212 136.583 419.18 136.337 419.129Z" fill="#263238"/>
<path d="M112.055 252.498C112.055 253.9 104.222 274.245 84.815 290.728C65.4085 307.211 49.3604 326.51 49.6933 352.119C50.0262 377.728 64.7917 405.796 64.7917 405.796L80.0564 418.638L136.337 419.129C136.337 419.129 162.265 412.463 165.545 389.659C168.825 366.854 162.265 355.981 162.265 355.981L163.244 333.176C163.244 333.176 178.666 302.659 179.654 292.842C180.643 283.025 172.105 247.233 172.105 247.233L112.055 252.498Z" fill="#FF6B6C"/>
<path d="M143.563 318.702C143.095 320.927 142.985 323.22 143.24 325.484C143.572 327.931 144.259 330.307 145.276 332.527C146.515 335.254 148.05 337.814 149.849 340.157C151.758 342.668 153.766 344.929 155.479 347.022C157.193 349.115 158.779 351.062 159.954 352.789C160.901 354.136 161.756 355.556 162.509 357.038C162.783 357.561 162.95 357.99 163.077 358.272C163.204 358.555 163.253 358.712 163.234 358.722C162.902 358.217 162.601 357.689 162.333 357.142C161.522 355.713 160.633 354.336 159.67 353.019C158.465 351.334 156.909 349.44 155.136 347.367C153.364 345.295 151.376 343.035 149.448 340.502C147.629 338.119 146.084 335.512 144.846 332.737C143.836 330.464 143.175 328.033 142.887 325.536C142.698 323.851 142.765 322.144 143.083 320.482C143.162 320.03 143.274 319.586 143.416 319.152C143.447 318.996 143.496 318.845 143.563 318.702Z" fill="#263238"/>
<path d="M164.644 365.222C164.746 365.421 164.828 365.632 164.889 365.849C165.026 366.268 165.261 366.896 165.477 367.702C166.119 369.993 166.574 372.339 166.838 374.714C167.236 378.245 167.236 381.815 166.838 385.347C166.612 387.438 166.229 389.506 165.692 391.532C165.137 393.698 164.386 395.801 163.45 397.811C162.507 399.836 161.386 401.76 160.101 403.557C158.889 405.215 157.553 406.766 156.106 408.193C153.644 410.593 150.903 412.643 147.95 414.294C145.972 415.414 143.908 416.352 141.781 417.099C141.037 417.382 140.44 417.539 140.038 417.664C139.839 417.739 139.632 417.788 139.422 417.811C139.609 417.707 139.806 417.623 140.009 417.56C140.401 417.392 140.988 417.214 141.723 416.9C143.807 416.075 145.833 415.088 147.783 413.949C150.681 412.272 153.372 410.216 155.793 407.827C157.206 406.405 158.516 404.869 159.709 403.232C160.966 401.459 162.064 399.563 162.99 397.57C163.917 395.577 164.662 393.491 165.212 391.343C165.749 389.36 166.138 387.333 166.377 385.284C166.799 381.787 166.832 378.25 166.475 374.745C166.255 372.381 165.856 370.039 165.281 367.744C165.104 366.927 164.899 366.31 164.791 365.881C164.727 365.665 164.678 365.445 164.644 365.222Z" fill="#263238"/>
<path d="M81.0353 418.596C80.5465 418.421 80.0717 418.204 79.6156 417.947C79.0628 417.681 78.5235 417.384 78 417.057C77.3831 416.681 76.6586 416.283 75.9242 415.739C75.1898 415.194 74.3478 414.692 73.5155 413.97C72.6832 413.248 71.8118 412.526 70.9012 411.72C67.0405 408.09 63.8261 403.743 61.4134 398.889C60.8846 397.759 60.3657 396.691 59.974 395.645C59.5824 394.598 59.2103 393.635 58.9166 392.735C58.6228 391.835 58.4074 390.998 58.2018 390.276C58.0286 389.653 57.8848 389.021 57.771 388.382C57.6411 387.85 57.5526 387.307 57.5066 386.76C57.705 387.27 57.8591 387.799 57.9668 388.34C58.0843 388.853 58.2507 389.481 58.4759 390.192C58.7011 390.904 58.9166 391.731 59.2593 392.61C59.602 393.489 59.9153 394.462 60.3657 395.467C60.8161 396.472 61.3448 397.56 61.8246 398.607C63.0552 400.983 64.4563 403.254 66.0153 405.399C67.6008 407.516 69.3392 409.496 71.2145 411.322C72.1056 412.139 72.928 412.934 73.7701 413.583C74.6122 414.232 75.3857 414.87 76.12 415.404C76.8544 415.937 77.5398 416.367 78.1371 416.775C78.7343 417.183 79.2631 417.486 79.7037 417.738C80.1711 417.98 80.6168 418.267 81.0353 418.596Z" fill="#263238"/>
<path d="M107.198 346.342C106.851 346.142 106.523 345.907 106.219 345.641C105.621 345.159 104.769 344.416 103.741 343.432C100.981 340.76 98.5319 337.741 96.4467 334.443L96.8873 334.223L98.7673 340.68L100.187 345.515L100.412 346.31L99.7954 345.808C96.5248 343.109 93.9838 339.53 92.4322 335.437C91.9846 334.246 91.6309 333.017 91.3748 331.763C91.2867 331.324 91.2475 330.978 91.2083 330.717C91.1692 330.455 91.2083 330.361 91.2083 330.351C91.3506 330.786 91.4683 331.23 91.5608 331.68C91.8786 332.905 92.2778 334.105 92.7554 335.269C94.3625 339.247 96.8977 342.717 100.118 345.348L99.7268 345.641C99.2764 344.092 98.8097 342.484 98.3267 340.816C97.6706 338.556 97.044 336.368 96.4565 334.359L95.9669 332.632L96.8971 334.129C98.9422 337.412 101.32 340.444 103.986 343.171C104.965 344.217 105.797 344.96 106.365 345.484C106.666 345.743 106.944 346.03 107.198 346.342Z" fill="#263238"/>
<g opacity="0.3">
<path d="M143.083 319.99C143.22 318.943 144.787 318.943 145.325 319.854C145.73 320.796 145.843 321.852 145.649 322.868C145.316 328.896 148.831 334.38 152.503 338.953C156.174 343.527 160.238 348.226 161.413 354.128C158.475 350.518 155.029 347.472 151.807 344.175C148.586 340.879 145.551 337.226 143.798 332.841C142.045 328.456 141.712 323.213 143.798 319.016" fill="black"/>
</g>
<g opacity="0.3">
<path d="M142.584 416.733C147.088 416.911 151.739 416.429 155.744 414.211C159.748 411.992 162.989 407.795 163.283 402.992L159.905 403.149C155.576 409.188 149.708 413.764 143.005 416.325" fill="black"/>
</g>
<path d="M149.917 170.594C149.917 170.594 125.439 174.655 120.21 176.874C114.982 179.092 93.5582 190.939 90.19 202.221C90.19 202.221 88.5157 214.937 93.7736 230.583C95.683 236.286 111.222 255.585 114.913 257.793C118.605 260.001 172.682 249.735 172.682 249.735C175.933 245.025 185.284 228.657 185.206 216.392C185.108 200.997 179.948 183.687 179.948 183.687L149.917 170.594Z" fill="#FF6B6C"/>
<path d="M168.766 144.012C168.237 143.918 161.736 144.012 156.791 155.974C153.759 163.272 150.255 170.336 146.304 177.115L180.085 185.487C180.085 185.487 178.195 165.979 176.325 159.166C174.455 152.353 172.545 144.671 168.766 144.012Z" fill="#FF6B6C"/>
<g opacity="0.6">
<path d="M158.328 218.254C147.411 213.681 134.829 215.711 124.186 220.881C118.242 223.759 112.436 227.925 109.753 234.298C105.416 244.764 111.31 257.144 119.545 264.386C127.779 271.629 138.148 275.553 147.078 281.853C156.008 288.154 163.909 298.399 162.744 309.754L163.273 333.092C164.154 331.345 178.685 302.366 179.644 292.842C180.476 284.47 174.396 257.207 172.594 249.368C173.378 248.322 174.611 246.135 176.08 244.062C176.247 232.749 168.335 222.462 158.328 218.254Z" fill="white"/>
</g>
<path d="M147.029 213.775C147.097 213.513 147.111 213.239 147.071 212.971C147.03 212.703 146.935 212.447 146.792 212.222C146.65 211.997 146.463 211.808 146.245 211.668C146.027 211.527 145.784 211.439 145.531 211.41C142.757 211.039 139.941 211.454 137.365 212.613C137.075 212.702 136.805 212.856 136.576 213.066C136.346 213.275 136.161 213.535 136.033 213.827C135.978 214.156 135.999 214.494 136.094 214.811C136.19 215.129 136.357 215.416 136.582 215.648C137.241 216.497 138.091 217.153 139.051 217.558C140.011 217.962 141.051 218.102 142.074 217.963C143.098 217.824 144.073 217.412 144.908 216.764C145.743 216.116 146.412 215.254 146.853 214.257C146.922 214.101 146.981 213.94 147.029 213.775Z" fill="#263238"/>
<path d="M147.891 226.794C147.545 227.309 147.107 227.746 146.603 228.08C146.099 228.414 145.539 228.639 144.953 228.741C144.388 228.936 143.791 229.008 143.199 228.952C142.607 228.896 142.032 228.714 141.507 228.416C142.62 228.474 143.736 228.407 144.836 228.218C145.897 227.856 146.921 227.379 147.891 226.794Z" fill="#263238"/>
<path d="M90.8072 204.607C90.8072 204.607 79.2828 161.919 84.198 158.318C89.1133 154.718 93.6369 158.978 93.6369 158.978L119.085 179.616L90.8072 204.607Z" fill="#FF6B6C"/>
<g opacity="0.6">
<path d="M93.9895 195.984C98.34 189.543 104.107 184.345 110.782 180.851L93.3041 166.199C92.9533 165.808 92.5276 165.503 92.0561 165.304C91.5845 165.105 91.0784 165.018 90.5723 165.048C90.116 165.218 89.7104 165.516 89.3972 165.909C89.084 166.303 88.8745 166.779 88.7903 167.287C88.1441 169.872 88.7903 174.069 89.2994 176.706C90.7094 183.603 92.2369 190.217 93.9895 196.026" fill="white"/>
</g>
<g opacity="0.6">
<path d="M174.298 179.909C168.086 176.106 161.097 173.99 153.942 173.745C157.245 166.984 160.541 160.223 163.831 153.462C164.282 152.531 164.859 151.505 165.789 151.296C166.252 151.252 166.717 151.34 167.137 151.552C167.557 151.763 167.916 152.09 168.179 152.5C169.716 154.499 170.715 158.444 171.224 160.977C172.546 167.622 173.681 174.059 174.279 179.909" fill="white"/>
</g>
<path d="M177.608 240.787C177.547 241.006 177.468 241.22 177.373 241.425C177.177 241.886 176.923 242.472 176.599 243.215C175.596 245.387 174.374 247.436 172.957 249.326C170.798 252.105 168.163 254.417 165.192 256.14C164.35 256.6 163.459 257.04 162.539 257.437C161.58 257.847 160.599 258.196 159.602 258.484C158.585 258.767 157.556 258.994 156.517 259.164C155.439 259.317 154.354 259.411 153.267 259.447C151.337 259.509 149.407 259.351 147.509 258.976L147.656 258.463C150.344 259.693 152.772 261.491 154.794 263.748L155.156 264.156H154.628C150.459 264.179 146.314 263.472 142.359 262.063C141.248 261.67 140.156 261.216 139.089 260.702C138.717 260.525 138.433 260.368 138.247 260.273C138.148 260.227 138.056 260.167 137.972 260.096C138.369 260.227 138.759 260.384 139.138 260.566C139.892 260.88 141.008 261.32 142.437 261.791C146.385 263.084 150.499 263.709 154.628 263.643L154.461 264.051C152.474 261.859 150.092 260.119 147.46 258.934L145.277 257.95L147.607 258.421C149.47 258.784 151.364 258.935 153.257 258.871C154.334 258.871 155.401 258.714 156.439 258.599C157.462 258.438 158.475 258.215 159.474 257.929C160.444 257.667 161.398 257.345 162.333 256.966C163.234 256.579 164.115 256.15 164.948 255.7C167.877 254.025 170.49 251.782 172.654 249.086C174.078 247.235 175.331 245.241 176.394 243.131C176.746 242.419 177.03 241.844 177.246 241.394C177.348 241.179 177.469 240.976 177.608 240.787Z" fill="#263238"/>
<path d="M162.862 306.583C162.952 306.981 163.005 307.388 163.018 307.797C163.087 308.582 163.155 309.723 163.234 311.125C163.381 313.941 163.508 317.823 163.567 322.114C163.625 326.405 163.567 330.288 163.567 333.103C163.567 334.505 163.488 335.646 163.439 336.431C163.443 336.843 163.4 337.254 163.312 337.655C163.242 337.252 163.216 336.841 163.234 336.431C163.234 335.531 163.234 334.411 163.234 333.103C163.234 330.162 163.165 326.342 163.126 322.114C163.087 317.886 162.989 314.077 162.94 311.146C162.94 309.828 162.94 308.718 162.881 307.808C162.83 307.402 162.823 306.991 162.862 306.583Z" fill="#263238"/>
<path d="M125.567 211.316C125.567 212.252 125.307 213.167 124.82 213.945C124.333 214.723 123.641 215.329 122.832 215.687C122.023 216.045 121.133 216.138 120.274 215.954C119.415 215.771 118.626 215.32 118.008 214.657C117.389 213.994 116.969 213.15 116.799 212.232C116.629 211.314 116.718 210.362 117.055 209.498C117.391 208.634 117.96 207.896 118.689 207.377C119.418 206.859 120.275 206.583 121.151 206.585C122.323 206.588 123.446 207.088 124.274 207.975C125.102 208.861 125.567 210.063 125.567 211.316Z" fill="#263238"/>
<path d="M162.98 204.084C162.982 205.02 162.724 205.936 162.239 206.715C161.754 207.494 161.063 208.102 160.255 208.462C159.446 208.821 158.556 208.917 157.697 208.735C156.838 208.554 156.048 208.104 155.428 207.443C154.808 206.782 154.386 205.939 154.214 205.021C154.043 204.103 154.13 203.152 154.464 202.287C154.799 201.422 155.366 200.682 156.094 200.162C156.822 199.642 157.678 199.364 158.554 199.364C159.726 199.364 160.85 199.861 161.68 200.746C162.51 201.631 162.977 202.831 162.98 204.084Z" fill="#263238"/>
<path d="M155.656 214.979C155.703 215.522 155.67 216.069 155.558 216.601C155.349 218.077 154.88 219.497 154.177 220.787C153.944 221.229 153.65 221.631 153.306 221.98C152.919 222.338 152.487 222.638 152.023 222.87C150.976 223.392 149.782 223.467 148.684 223.079C148.097 222.897 147.542 222.614 147.039 222.242C146.51 221.886 146.003 221.495 145.522 221.07C144.505 220.178 143.588 219.163 142.79 218.045L143.24 217.951L143.162 218.234C142.846 219.584 142.273 220.85 141.48 221.953C140.687 223.057 139.689 223.975 138.55 224.649C137.522 225.215 136.361 225.444 135.211 225.308C134.23 225.183 133.286 224.826 132.45 224.262C131.266 223.417 130.294 222.274 129.62 220.934C129.443 220.574 129.286 220.204 129.15 219.824C129.062 219.563 129.023 219.416 129.043 219.416C129.062 219.416 129.288 219.939 129.797 220.829C130.5 222.103 131.476 223.179 132.646 223.969C133.437 224.501 134.331 224.834 135.26 224.942C136.322 225.047 137.39 224.822 138.335 224.293C139.406 223.637 140.343 222.757 141.088 221.705C141.834 220.653 142.373 219.451 142.672 218.171L142.741 217.899L142.888 217.375L143.191 217.804C143.971 218.88 144.857 219.863 145.835 220.735C146.299 221.15 146.786 221.535 147.294 221.886C147.755 222.24 148.268 222.509 148.812 222.681C149.744 223.009 150.752 222.989 151.672 222.624C152.592 222.259 153.368 221.571 153.874 220.672C154.577 219.435 155.081 218.08 155.362 216.664C155.577 215.554 155.617 214.979 155.656 214.979Z" fill="#263238"/>
<g opacity="0.6">
<path d="M136.22 173.064L130.012 174.32C130.448 177.085 131.361 179.74 132.705 182.148C133.175 182.996 133.889 183.917 134.81 183.844C135.08 183.808 135.338 183.705 135.564 183.543C135.79 183.382 135.978 183.166 136.112 182.912C136.383 182.406 136.559 181.848 136.631 181.269C137.078 178.536 136.937 175.731 136.22 173.064Z" fill="white"/>
</g>
<path d="M193.431 222.022C193.008 221.981 192.591 221.89 192.187 221.75L188.848 220.86C186.028 220.117 182.112 219.207 177.735 218.453C173.358 217.7 169.373 217.292 166.475 217.061L163.048 216.8C162.624 216.791 162.201 216.742 161.785 216.653C162.202 216.578 162.626 216.553 163.048 216.58C163.861 216.58 165.006 216.58 166.495 216.674C174.083 217.061 181.609 218.338 188.936 220.484C190.346 220.902 191.472 221.258 192.246 221.53C192.656 221.649 193.053 221.814 193.431 222.022Z" fill="#263238"/>
<path d="M196.818 213.461C196.381 213.528 195.938 213.545 195.496 213.514H191.913C188.877 213.514 184.697 213.514 180.075 213.608C175.453 213.702 171.263 213.995 168.247 214.194L164.673 214.435C164.233 214.476 163.791 214.476 163.351 214.435C163.775 214.301 164.212 214.221 164.654 214.194C165.496 214.079 166.71 213.932 168.227 213.775C171.243 213.472 175.434 213.168 180.065 213.032C184.697 212.896 188.877 212.969 191.923 213.105C193.43 213.168 194.664 213.242 195.506 213.315C195.947 213.318 196.386 213.367 196.818 213.461Z" fill="#263238"/>
<path d="M196.436 234.235C195.997 234.037 195.574 233.799 195.173 233.524C194.38 233.021 193.215 232.32 191.786 231.43C188.044 229.222 184.193 227.231 180.251 225.465C176.297 223.744 172.26 222.246 168.159 220.975C166.592 220.484 165.31 220.107 164.419 219.845C163.953 219.74 163.498 219.589 163.058 219.395C163.534 219.428 164.007 219.512 164.468 219.646C165.368 219.835 166.671 220.159 168.257 220.609C176.563 222.976 184.533 226.528 191.952 231.169C193.372 232.058 194.508 232.822 195.262 233.367C195.677 233.617 196.07 233.908 196.436 234.235Z" fill="#263238"/>
<path d="M119.212 228.176C118.88 228.471 118.519 228.727 118.135 228.94L115.168 230.897C112.622 232.54 109.137 234.863 105.377 237.584C101.617 240.305 98.3073 242.911 95.9378 244.826L93.0787 247.139C92.7495 247.44 92.3918 247.703 92.0115 247.924C92.306 247.571 92.6341 247.252 92.9906 246.972C93.6173 246.386 94.5474 245.559 95.7028 244.554C98.0234 242.555 101.313 239.897 105.083 237.166C108.853 234.434 112.378 232.153 114.972 230.593C116.275 229.808 117.332 229.191 118.076 228.793C118.436 228.55 118.816 228.344 119.212 228.176Z" fill="#263238"/>
<path d="M118.516 224.481C118.391 224.585 118.252 224.67 118.105 224.733L116.881 225.35L112.367 227.537C108.558 229.39 103.3 231.985 97.5627 234.968C91.8249 237.951 86.6649 240.766 82.9441 242.817L78.538 245.255L77.3337 245.904C77.196 245.989 77.0476 246.053 76.8931 246.093C77.0114 245.98 77.1431 245.885 77.2847 245.81L78.4401 245.067C79.4192 244.439 80.9369 243.55 82.7777 242.482C86.4495 240.337 91.5899 237.469 97.3375 234.476C103.085 231.483 108.372 228.95 112.22 227.15C114.179 226.261 115.716 225.57 116.803 225.109L118.056 224.586C118.203 224.525 118.359 224.489 118.516 224.481Z" fill="#263238"/>
<path d="M113.083 222.922C112.575 223.135 112.051 223.299 111.516 223.414C110.537 223.686 109.039 224.094 107.237 224.617C103.634 225.664 98.6795 227.265 93.3432 229.39C88.0069 231.514 83.2776 233.785 79.9094 235.512C78.2253 236.381 76.8643 237.103 75.9341 237.605C75.46 237.887 74.9656 238.129 74.4556 238.327C74.8949 237.984 75.36 237.679 75.8459 237.417C76.7468 236.852 78.0784 236.088 79.7625 235.167C88.4906 230.444 97.6867 226.783 107.178 224.251C109 223.77 110.478 223.414 111.506 223.205C112.025 223.073 112.552 222.979 113.083 222.922Z" fill="#263238"/>
<path d="M165.613 160.171C165.721 160.509 165.79 160.861 165.819 161.217C165.907 161.939 166.005 162.976 166.064 164.273C166.212 167.698 165.982 171.13 165.378 174.498L165.251 175.22L164.908 174.571C164.693 174.174 164.468 173.734 164.233 173.305L160.737 166.659L161.148 166.597C160.714 168.518 160.461 170.482 160.394 172.457C160.345 173.891 160.394 174.718 160.326 174.728C160.266 174.536 160.233 174.335 160.228 174.132C160.165 173.576 160.133 173.017 160.13 172.457C160.102 170.451 160.299 168.448 160.718 166.492L160.845 165.895L161.129 166.429L164.673 173.033L165.349 174.31L164.879 174.393C165.475 171.062 165.757 167.675 165.721 164.284C165.692 161.751 165.535 160.181 165.613 160.171Z" fill="#263238"/>
<path d="M101.46 183.519C100.226 181.537 98.8094 179.693 97.2303 178.014L97.6121 177.868C97.4359 179.647 97.2303 181.636 97.0149 183.76C97.0149 184.043 96.9561 184.325 96.9267 184.587L96.8288 185.571L96.447 184.671C95.1251 181.531 93.9599 178.747 93.1473 176.717C92.666 175.643 92.257 174.535 91.9233 173.399C92.5154 174.401 93.0327 175.45 93.4704 176.539C94.3614 178.527 95.5755 181.311 96.9072 184.43L96.4274 184.514L96.5155 183.676C96.7407 181.583 96.9659 179.563 97.1617 177.795V177.303L97.4946 177.648C98.6665 178.868 99.6956 180.235 100.559 181.719C100.942 182.268 101.246 182.874 101.46 183.519Z" fill="#263238"/>
<path d="M200.353 67.886C198.45 63.314 195.278 59.4778 191.267 56.8972C187.43 54.2046 182.898 52.8684 178.313 53.0773C174.44 53.3628 170.761 55.0006 167.844 57.7386C164.927 60.4766 162.932 64.1632 162.167 68.2313C159.456 65.4522 155.987 63.668 152.264 63.1374C148.54 62.6068 144.755 63.3572 141.458 65.2801C137.482 67.7273 134.324 71.4463 132.43 75.913C130.332 80.3882 129.573 85.4452 130.257 90.3973C131.215 96.6762 134.033 102.461 138.295 106.901C142.809 111.37 148.909 114.227 154.852 115.902C164.84 118.748 177.892 122.129 177.892 122.129C177.892 122.129 185.304 111.663 192.324 103.521C196.505 98.6964 200.236 92.8043 201.802 86.4518C203.195 80.2573 202.687 73.7481 200.353 67.886Z" fill="#FF6B6C"/>
<path d="M295.525 110.449C296.25 107.979 296.25 105.332 295.525 102.862C294.901 100.394 293.569 98.1984 291.717 96.5823C290.716 95.7737 289.574 95.1883 288.358 94.8611C287.142 94.5339 285.877 94.4715 284.637 94.6776C283.162 94.9385 281.768 95.5777 280.574 96.5405C280.459 95.0936 280.044 93.6923 279.36 92.438C278.723 91.2827 277.874 90.2767 276.864 89.4801C275.855 88.6835 274.706 88.1127 273.485 87.8018C271.157 87.2986 268.739 87.5877 266.572 88.6286C264.325 89.5973 262.41 91.2817 261.089 93.4532C259.433 96.2598 258.674 99.5649 258.925 102.872C259.37 106.314 260.582 109.591 262.46 112.427C265.397 117.189 269.412 123.29 269.412 123.29C269.412 123.29 275.659 121.93 280.985 121.354C284.225 121.104 287.361 120.028 290.13 118.215C292.668 116.318 294.561 113.593 295.525 110.449Z" fill="#FF6B6C"/>
</svg>
