<svg width="304" height="229" viewBox="0 0 304 229" fill="none" xmlns="http://www.w3.org/2000/svg">
<mask id="mask0_5_69" style="mask-type:alpha" maskUnits="userSpaceOnUse" x="0" y="0" width="304" height="229">
<rect x="0.845276" width="302.378" height="228.104" fill="url(#paint0_linear_5_69)"/>
</mask>
<g mask="url(#mask0_5_69)">
<path d="M277.794 48.9635C277.794 49.9431 277.458 50.9007 276.827 51.7152C276.197 52.5297 275.3 53.1645 274.252 53.5394C273.204 53.9143 272.05 54.0124 270.937 53.8213C269.824 53.6301 268.801 53.1584 267.999 52.4657C267.196 51.7731 266.65 50.8905 266.429 49.9298C266.207 48.969 266.321 47.9731 266.755 47.0681C267.189 46.1631 267.925 45.3895 268.868 44.8453C269.812 44.301 270.921 44.0106 272.056 44.0106C272.81 44.0106 273.556 44.1387 274.252 44.3876C274.948 44.6365 275.581 45.0013 276.113 45.4612C276.646 45.9212 277.069 46.4672 277.357 47.0681C277.646 47.669 277.794 48.3131 277.794 48.9635Z" fill="#F5F5F5"/>
<path d="M267.858 49.632C267.805 49.632 267.621 49.4345 267.497 49.0167C267.343 48.4702 267.38 47.8966 267.603 47.3682C267.818 46.8367 268.206 46.3699 268.721 46.0236C269.125 45.7653 269.425 45.697 269.451 45.7426C268.804 46.2066 268.314 46.8131 268.034 47.4978C267.753 48.1825 267.693 48.9199 267.858 49.632Z" fill="white"/>
<path d="M270.305 52.1008C270.305 52.2072 269.751 52.2376 269.249 51.8957C268.747 51.5539 268.651 51.0905 268.765 51.0677C268.879 51.0449 269.135 51.326 269.531 51.5843C269.927 51.8426 270.314 51.9489 270.305 52.1008Z" fill="white"/>
<path d="M46.3974 106.545C46.3974 107.525 46.0609 108.482 45.4304 109.297C44.7999 110.111 43.9038 110.746 42.8554 111.121C41.8069 111.496 40.6532 111.594 39.5402 111.403C38.4272 111.212 37.4048 110.74 36.6023 110.047C35.7999 109.355 35.2534 108.472 35.032 107.511C34.8106 106.551 34.9242 105.555 35.3585 104.65C35.7928 103.745 36.5282 102.971 37.4718 102.427C38.4154 101.883 39.5248 101.592 40.6596 101.592C42.1814 101.592 43.6408 102.114 44.7169 103.043C45.7929 103.972 46.3974 105.232 46.3974 106.545Z" fill="#F5F5F5"/>
<path d="M36.4617 107.214C36.4089 107.214 36.2241 107.016 36.1009 106.598C35.9481 106.052 35.9818 105.48 36.1977 104.95C36.4189 104.419 36.8094 103.953 37.3241 103.605C37.7202 103.347 38.0282 103.279 38.0546 103.324C37.4492 103.827 36.9569 104.422 36.6025 105.079C36.4079 105.778 36.3602 106.501 36.4617 107.214Z" fill="white"/>
<path d="M38.8993 109.644C38.8993 109.751 38.3537 109.781 37.8521 109.439C37.3504 109.098 37.2536 108.634 37.368 108.611C37.4824 108.589 37.7376 108.87 38.1337 109.128C38.5297 109.386 38.9169 109.531 38.8993 109.644Z" fill="white"/>
<path d="M239.116 6.43054C239.116 7.41014 238.78 8.36773 238.149 9.18224C237.519 9.99674 236.623 10.6316 235.574 11.0065C234.526 11.3813 233.372 11.4794 232.259 11.2883C231.146 11.0972 230.124 10.6255 229.321 9.93279C228.519 9.24011 227.972 8.35758 227.751 7.39681C227.529 6.43603 227.643 5.44016 228.077 4.53513C228.512 3.6301 229.247 2.85655 230.191 2.31232C231.134 1.76808 232.244 1.4776 233.378 1.4776C234.132 1.4776 234.878 1.60571 235.574 1.85462C236.27 2.10353 236.903 2.46836 237.436 2.92828C237.969 3.38821 238.391 3.93421 238.68 4.53513C238.968 5.13605 239.116 5.78011 239.116 6.43054Z" fill="#F5F5F5"/>
<path d="M229.181 7.09907C229.128 7.09907 228.943 6.90156 228.82 6.48375C228.667 5.93773 228.701 5.3652 228.917 4.83531C229.138 4.30443 229.528 3.83832 230.043 3.49072C230.439 3.23244 230.747 3.16407 230.774 3.20965C230.167 3.72412 229.677 4.33222 229.33 5.00243C229.138 5.68829 229.087 6.39803 229.181 7.09907Z" fill="white"/>
<path d="M231.618 9.56031C231.618 9.66666 231.073 9.69704 230.571 9.3552C230.069 9.01335 229.973 8.54997 230.087 8.52718C230.201 8.50439 230.457 8.78547 230.853 9.04375C231.249 9.30203 231.636 9.41597 231.618 9.56031Z" fill="white"/>
<path d="M127.575 11.2802C128.699 7.18978 125.769 3.08756 121.03 2.11762C116.291 1.14767 111.539 3.67729 110.415 7.7677C109.292 11.8581 112.222 15.9603 116.961 16.9303C121.7 17.9002 126.452 15.3706 127.575 11.2802Z" fill="#F5F5F5"/>
<path d="M112.541 10.5478C112.488 10.5478 112.233 10.2288 112.074 9.59827C111.863 8.76464 111.925 7.89671 112.253 7.0917C112.581 6.28668 113.162 5.57638 113.931 5.04036C114.521 4.63774 114.961 4.5086 114.987 4.55418C115.014 4.59976 114.644 4.82006 114.151 5.25306C113.496 5.80234 112.996 6.47464 112.691 7.21772C112.386 7.96079 112.283 8.75462 112.391 9.5375C112.475 9.8699 112.525 10.208 112.541 10.5478Z" fill="white"/>
<path d="M116.298 14.2854C116.298 14.3842 115.498 14.3993 114.75 13.8904C114.002 13.3814 113.817 12.7205 113.94 12.6977C114.063 12.6749 114.398 13.1611 115.031 13.5789C115.665 13.9967 116.316 14.1715 116.298 14.2854Z" fill="white"/>
<path d="M56.0887 155.013C60.1077 151.435 60.0049 145.721 55.8591 142.252C51.7133 138.783 45.0944 138.872 41.0755 142.45C37.0565 146.029 37.1594 151.743 41.3051 155.212C45.4509 158.681 52.0698 158.592 56.0887 155.013Z" fill="#F5F5F5"/>
<path d="M40.9323 149.921C40.6484 149.589 40.4694 149.199 40.4131 148.789C40.1858 147.815 40.2696 146.805 40.6555 145.869C41.0415 144.932 41.7151 144.104 42.6044 143.472C42.9468 143.182 43.3718 142.975 43.8364 142.872C43.8364 142.925 43.4228 143.168 42.8244 143.677C42.0373 144.327 41.4379 145.128 41.0741 146.014C40.7104 146.901 40.5925 147.849 40.7299 148.782C40.8243 149.158 40.8919 149.538 40.9323 149.921Z" fill="white"/>
<path d="M45.4029 154.35C45.4029 154.449 44.47 154.449 43.6428 153.856C42.8156 153.264 42.5428 152.489 42.6572 152.466C42.7716 152.443 43.1588 153.036 43.9332 153.545C44.7076 154.054 45.4029 154.236 45.4029 154.35Z" fill="white"/>
<path d="M299.381 160.503C299.381 161.534 299.027 162.542 298.363 163.399C297.699 164.256 296.756 164.924 295.652 165.318C294.549 165.713 293.334 165.815 292.163 165.614C290.992 165.412 289.916 164.915 289.072 164.185C288.228 163.456 287.654 162.527 287.422 161.515C287.19 160.504 287.311 159.456 287.769 158.504C288.227 157.552 289.003 156.738 289.996 156.167C290.99 155.595 292.158 155.29 293.353 155.292C294.952 155.294 296.486 155.844 297.616 156.821C298.746 157.798 299.381 159.122 299.381 160.503Z" fill="#F5F5F5"/>
<path d="M303.359 154.115C303.306 154.115 303.113 153.909 302.989 153.469C302.832 152.894 302.869 152.291 303.097 151.734C303.325 151.176 303.733 150.687 304.274 150.324C304.688 150.058 305.005 149.982 305.031 150.028C304.342 150.509 303.821 151.146 303.526 151.867C303.231 152.589 303.173 153.367 303.359 154.115Z" fill="white"/>
<path d="M19.0195 232.64C22.3536 232.64 25.0565 230.307 25.0565 227.429C25.0565 224.551 22.3536 222.217 19.0195 222.217C15.6853 222.217 12.9824 224.551 12.9824 227.429C12.9824 230.307 15.6853 232.64 19.0195 232.64Z" fill="#F5F5F5"/>
<path d="M29.0254 221.04C28.9726 221.04 28.779 220.835 28.6558 220.394C28.4933 219.82 28.5282 219.218 28.7565 218.66C28.9847 218.103 29.3962 217.615 29.9406 217.257C30.3542 216.983 30.6711 216.908 30.6975 216.953C30.0731 217.482 29.566 218.105 29.2014 218.791C28.9794 219.525 28.9197 220.288 29.0254 221.04Z" fill="white"/>
<path d="M31.5951 223.6C31.5951 223.706 31.0231 223.737 30.495 223.38C29.967 223.023 29.8614 222.536 29.9846 222.514C30.1078 222.491 30.3542 222.795 30.7766 223.068C31.1991 223.342 31.6127 223.486 31.5951 223.6Z" fill="white"/>
<path d="M319.336 214.584C319.336 214.68 244.659 214.763 152.57 214.763C60.4804 214.763 -14.2125 214.68 -14.2125 214.584C-14.2125 214.488 60.4484 214.405 152.57 214.405C244.691 214.405 319.336 214.488 319.336 214.584Z" fill="#263238"/>
<path d="M66.042 -13.6099C68.3285 -22.0347 62.2419 -30.4586 52.4472 -32.4253C42.6525 -34.392 32.8587 -29.1568 30.5722 -20.732C28.2857 -12.3072 34.3723 -3.8833 44.167 -1.9166C53.9617 0.0501028 63.7555 -5.18518 66.042 -13.6099Z" fill="#FF725E"/>
<path d="M1.84416 46.8489L8.02129 46.6565C8.28621 46.6565 8.54028 46.5659 8.72761 46.4048C8.91494 46.2437 9.02018 46.0252 9.02018 45.7973C9.02018 45.5694 8.91494 45.3509 8.72761 45.1898C8.54028 45.0286 8.28621 44.9381 8.02129 44.9381L1.84416 45.1306C1.57924 45.1306 1.32517 45.2211 1.13784 45.3822C0.950515 45.5433 0.845276 45.7619 0.845276 45.9897C0.845276 46.2176 0.950515 46.4361 1.13784 46.5973C1.32517 46.7584 1.57924 46.8489 1.84416 46.8489Z" fill="#E0E0E0"/>
<path d="M2.18791 50.2719L8.36504 50.0795C8.62996 50.0795 8.88403 49.989 9.07136 49.8278C9.25869 49.6667 9.36393 49.4482 9.36393 49.2203C9.36393 48.9924 9.25869 48.7739 9.07136 48.6128C8.88403 48.4516 8.62996 48.3611 8.36504 48.3611L2.18791 48.5536C1.92299 48.5536 1.66892 48.6441 1.48159 48.8052C1.29426 48.9663 1.18903 49.1849 1.18903 49.4127C1.18903 49.6406 1.29426 49.8592 1.48159 50.0203C1.66892 50.1814 1.92299 50.2719 2.18791 50.2719Z" fill="#E0E0E0"/>
<path d="M25.9053 73.2498C26.0417 75.8762 25.8083 78.5072 25.2101 81.0854C24.7069 83.511 23.8112 85.8639 22.5491 88.0757C22.0845 88.9725 21.3121 89.7256 20.3355 90.2339C18.9371 90.8526 17.2989 90.4814 15.9165 90.0209C13.6932 89.2595 11.6611 88.137 9.93113 86.7148C8.19895 85.3519 6.79739 83.7077 5.80719 81.8768C4.81698 80.046 4.2577 78.0648 4.16156 76.0472C4.13821 74.0783 4.59232 72.1268 5.49491 70.3173C6.39751 68.5078 7.72876 66.88 9.40372 65.5378C18.4736 58.3619 31.603 64.5136 41.7677 65.8815C45.7073 66.4107 50.9255 66.3214 53.3468 63.0771C53.9329 62.2032 54.2593 61.2184 54.2969 60.2101C54.3345 59.2017 54.0823 58.201 53.5626 57.2966C52.3843 55.3096 50.5043 53.695 48.1925 52.6845C42.5817 50.0276 36.5152 48.1553 30.2205 47.1377C23.8983 46.0271 17.4242 45.6984 10.9939 46.1616C9.72336 46.251 9.70738 47.9693 10.9939 47.88C22.94 46.9869 34.9424 48.9242 45.6993 53.4818C48.1446 54.5403 50.7816 55.9013 51.8525 58.1901C52.7315 60.0803 52.3079 62.2248 50.2542 63.3589C48.3843 64.3762 45.995 64.5068 43.8614 64.3693C40.9835 64.096 38.142 63.5897 35.3748 62.8572C29.6292 61.5168 23.7318 59.9772 17.7065 60.6095C15.2631 60.834 12.9047 61.5089 10.792 62.5883C8.67935 63.6676 6.86208 65.1261 5.4641 66.8643C2.80203 70.1842 1.71572 74.2537 2.42749 78.2399C3.26225 82.2983 5.74253 85.9708 9.42769 88.6049C11.5385 90.2028 14.0361 91.3767 16.7396 92.0417C18.0485 92.3725 19.4477 92.3228 20.7205 91.9003C21.9933 91.4778 23.0685 90.7061 23.7797 89.7047C25.4978 87.4708 26.4008 84.584 27.0561 81.9996C27.7793 79.1245 28.0746 76.182 27.9351 73.2429C27.8871 72.1431 25.8894 72.1363 25.9373 73.2429L25.9053 73.2498Z" fill="#263238"/>
<path d="M14.2224 32.7378L12.8639 32.2155C10.4666 31.2738 10.0191 29.2668 10.4666 26.7167C11.5934 22.4415 13.3594 18.5305 16.396 15.3618C18.3938 13.4648 20.3356 12.3444 22.7889 13.2998L24.1474 13.8222L14.2224 32.7378Z" fill="#263238"/>
<path d="M14.2223 32.7379C15.3011 25.1771 18.098 18.5099 24.1952 13.6229C24.1952 13.6229 31.0515 11.4853 47.6651 18.3793C64.2786 25.2734 57.4142 27.4041 82.6501 37.3087L73.1647 55.4889C73.1647 55.4889 47.713 44.6564 43.8453 49.5434C42.0793 51.7635 45.5075 52.9801 39.4102 64.6649C37.4844 68.3559 36.5654 70.2255 35.5505 72.1638C34.5357 74.1021 29.8129 76.9477 26.5606 75.5043C23.3082 74.0608 20.9668 70.1361 22.4931 67.3318C26.2089 60.6371 27.4236 57.4616 28.3745 52.6502C28.9739 49.5778 29.4134 47.8388 29.0298 46.2167C27.975 41.7696 21.654 38.2985 14.2223 32.7379Z" fill="#5F6CAF"/>
<path d="M79.6376 47.062C77.0165 52.0865 74.1157 55.86 73.1648 55.4888C72.2138 55.1176 73.5643 50.753 76.1854 45.7285C78.8065 40.7041 81.7073 36.9306 82.6582 37.2949C83.6091 37.6592 82.2586 42.0375 79.6376 47.062Z" fill="#FF725E"/>
<path opacity="0.3" d="M79.23 46.9039C76.8326 51.4404 74.3554 54.8908 73.6362 54.609C72.917 54.3272 74.2355 50.4231 76.6009 45.8866C78.9663 41.3502 81.4755 37.8997 82.1947 38.1815C82.9139 38.4633 81.5953 42.3674 79.23 46.9039Z" fill="black"/>
<path d="M41.1683 57.2897C40.4411 58.6643 39.0426 59.496 38.0438 59.1111C37.0449 58.7262 36.8211 57.2897 37.5483 55.915C38.2755 54.5403 39.6739 53.7017 40.6728 54.0866C41.6717 54.4716 41.8955 55.915 41.1683 57.2897Z" fill="#263238"/>
<path d="M23.6999 64.8504L36.7174 69.8749L35.3589 72.4868C34.9751 73.2227 34.4265 73.8863 33.7445 74.4397C33.0624 74.9932 32.2602 75.4255 31.3837 75.7122C30.5072 75.9988 29.5737 76.134 28.6364 76.1101C27.6992 76.0862 26.7766 75.9037 25.9214 75.573C24.195 74.9049 22.8474 73.6748 22.1746 72.1528C21.5019 70.6308 21.559 68.9413 22.3334 67.4555L23.6999 64.8504Z" fill="#263238"/>
<path d="M64.1565 43.0233L52.9874 38.7118L52.117 40.3799L63.2862 44.6913L64.1565 43.0233Z" fill="white"/>
<path d="M4.63306 51.5434L3.65814 43.2953L7.96535 42.9173C8.59681 42.8584 9.23557 42.908 9.84455 43.0633C10.4535 43.2185 11.0206 43.4763 11.5128 43.8216C12.0049 44.167 12.4124 44.5929 12.7116 45.0749C13.0108 45.5568 13.1956 46.0851 13.2555 46.629C13.3239 47.1716 13.2665 47.7205 13.0865 48.2439C12.9066 48.7672 12.6076 49.2547 12.2069 49.6779C11.8063 50.1012 11.3119 50.4518 10.7525 50.7095C10.1932 50.9672 9.57989 51.1268 8.94825 51.1791L4.63306 51.5434Z" fill="#263238"/>
<path d="M113.625 132.282C106.365 124.773 95.3204 126.605 90.8255 128.722C86.3307 130.839 81.1594 138.245 80.5002 142.64C77.8972 142.255 75.219 142.536 72.8019 143.448C70.3849 144.36 68.3367 145.863 66.9144 147.768C65.4921 149.673 64.7592 151.894 64.8077 154.154C64.8562 156.414 65.6839 158.612 67.1869 160.471C59.413 160.822 48.4883 171.81 55.5174 174.675C57.9147 175.649 122.855 175.649 122.855 175.649L113.625 132.282ZM65.817 166.082C65.4885 166.082 65.1674 165.999 64.8943 165.842C64.6211 165.686 64.4082 165.464 64.2825 165.205C64.1568 164.945 64.1239 164.659 64.188 164.383C64.2521 164.108 64.4103 163.855 64.6426 163.656C64.8749 163.457 65.1708 163.322 65.493 163.267C65.8152 163.212 66.1492 163.24 66.4527 163.348C66.7562 163.455 67.0156 163.637 67.1981 163.871C67.3806 164.105 67.478 164.38 67.478 164.661C67.478 165.038 67.303 165.399 66.9915 165.666C66.68 165.932 66.2575 166.082 65.817 166.082ZM70.954 164.675C70.848 164.888 70.649 165.057 70.3995 165.146C70.1499 165.235 69.8696 165.237 69.6184 165.152C69.3686 165.063 69.1701 164.893 69.0666 164.68C68.963 164.466 68.9629 164.226 69.0662 164.012C69.1695 163.799 69.3678 163.629 69.6175 163.54C69.8671 163.452 70.1477 163.452 70.3975 163.54C70.521 163.583 70.6333 163.647 70.7278 163.728C70.8224 163.808 70.8973 163.904 70.9482 164.01C70.9992 164.115 71.0252 164.229 71.0247 164.343C71.0242 164.457 70.9973 164.57 70.9454 164.675H70.954Z" fill="#E0E0E0"/>
<path d="M265.739 173.957C265.739 165.496 254.72 160.038 247.888 162.09C252.606 157.423 249.541 149.394 243.197 146.45C236.852 143.505 228.83 144.684 222.46 147.578C223.105 144.642 222.848 141.613 221.713 138.788C220.579 135.963 218.606 133.438 215.988 131.462C210.705 127.579 202.186 125.118 196.373 128.407C192.906 130.363 185.791 177.869 188.522 178.22C191.253 178.572 204.592 182.791 205.329 182.374C206.065 181.956 265.739 173.957 265.739 173.957Z" fill="#E0E0E0"/>
<path d="M164.468 33.5948C160.247 29.1043 151.754 28.1446 146.309 31.5437C143.612 33.2358 141.643 36.232 142.688 38.9497C141.574 39.1212 140.543 39.5704 139.727 40.241C138.91 40.9116 138.343 41.7737 138.097 42.7191C137.851 43.6645 137.937 44.6509 138.344 45.5547C138.751 46.4585 139.461 47.2392 140.384 47.7989L162.884 49.2128C167.97 45.3888 168.689 38.0926 164.468 33.5948ZM148.09 37.2575C147.662 37.2575 147.243 37.1488 146.887 36.9452C146.53 36.7415 146.253 36.4521 146.089 36.1134C145.925 35.7748 145.882 35.4021 145.965 35.0426C146.049 34.6831 146.255 34.3529 146.558 34.0937C146.861 33.8345 147.247 33.658 147.667 33.5865C148.088 33.5149 148.523 33.5516 148.919 33.6919C149.315 33.8322 149.653 34.0697 149.891 34.3745C150.129 34.6793 150.256 35.0376 150.256 35.4042C150.254 35.8945 150.025 36.364 149.619 36.71C149.213 37.056 148.663 37.2502 148.09 37.2502V37.2575ZM150.539 33.5508C150.392 33.5494 150.248 33.5108 150.127 33.4399C150.006 33.369 149.912 33.269 149.857 33.1524C149.801 33.0358 149.788 32.9079 149.818 32.7848C149.847 32.6616 149.919 32.5487 150.023 32.4603C150.128 32.3719 150.261 32.312 150.405 32.288C150.549 32.264 150.699 32.277 150.834 32.3254C150.97 32.3739 151.086 32.4556 151.167 32.5602C151.248 32.6649 151.292 32.7878 151.292 32.9135C151.291 32.9972 151.27 33.0799 151.232 33.1569C151.194 33.2338 151.138 33.3035 151.068 33.362C150.998 33.4205 150.915 33.4667 150.824 33.4978C150.733 33.529 150.636 33.5445 150.539 33.5435V33.5508Z" fill="#E0E0E0"/>
<path d="M126.545 162.785C122.212 165.503 120.072 170.206 119.695 174.792C119.319 179.378 120.552 183.941 121.759 188.417C119.37 187.538 116.451 189.37 116.117 191.582C115.783 193.794 117.495 195.977 119.73 197.083C121.964 198.19 124.635 198.549 127.238 198.71C131.589 198.916 135.95 198.936 140.303 198.768C143.111 198.702 146.159 198.556 148.291 196.981C150.62 195.259 151.117 192.366 151.262 189.729C151.625 183.157 150.784 176.577 148.771 170.228" fill="#6F4439"/>
<path d="M210.988 136.355C210.988 136.355 209.918 122.041 203.368 113.8C198.377 107.507 185.003 95.9036 185.003 95.9036L118.736 101.031C118.736 101.031 102.469 120.525 105.689 141.937C107.597 155.798 107.835 169.79 106.399 183.692C106.399 183.692 94.9865 185.971 99.6012 197.955H114.712C114.712 197.955 117.992 198.021 121.973 194.08C125.954 190.139 129.01 164.404 130.175 159.123L127.555 172.638C127.795 173.239 140.012 186.41 160.697 187.516C181.382 188.622 184.19 186.615 184.19 186.615L214.395 153.738L210.988 136.355Z" fill="#AE7461"/>
<path d="M184.062 158.859C184.472 158.976 187.041 165.452 187.178 171.488C187.315 177.524 185.149 191.421 185.62 195.596C186.091 199.772 188.805 201.391 194.087 202.189C199.37 202.988 211.15 202.885 212.375 200.109C213.599 197.333 215.354 193.15 209.935 190.586C204.515 188.022 203.565 183.839 203.839 180.726C204.113 177.612 210.123 160.302 210.885 153.387C211.647 146.472 208.231 138.062 208.231 138.062L192.058 144.23L184.062 158.859Z" fill="#AE7461"/>
<path d="M207.503 155.731C207.503 155.731 213.06 151.094 219.832 155.731C226.604 160.368 224.84 180.989 222.811 184.234L222.135 185.626C222.135 185.626 231.21 184.469 230.799 197.45C230.799 197.45 219.618 202.167 212.614 199.574C205.611 196.981 198.865 192.117 198.865 192.117L196.296 174.155L207.503 155.731Z" fill="#AE7461"/>
<path d="M133.839 145.995C133.806 146.432 133.734 146.865 133.625 147.292C133.437 148.178 133.197 149.365 132.906 150.801C132.298 153.826 131.476 157.892 130.569 162.39C129.661 166.888 128.788 171.012 128.094 173.964C127.752 175.429 127.461 176.631 127.238 177.451C127.143 177.88 127.015 178.304 126.853 178.718C126.885 178.282 126.957 177.849 127.067 177.422C127.255 176.535 127.495 175.349 127.786 173.913C128.394 170.887 129.216 166.822 130.123 162.324C131.031 157.826 131.904 153.702 132.598 150.75C132.94 149.285 133.231 148.083 133.454 147.263C133.543 146.832 133.672 146.409 133.839 145.995Z" fill="#263238"/>
<path d="M184.421 143.754C184.55 143.754 185.141 150.002 185.757 157.716C186.373 165.43 186.767 171.701 186.613 171.708C186.459 171.715 185.894 165.467 185.278 157.745C184.661 150.024 184.302 143.761 184.421 143.754Z" fill="#263238"/>
<path d="M210.363 130.106C210.418 130.276 210.449 130.451 210.457 130.626C210.5 131 210.551 131.491 210.62 132.092C210.688 132.692 210.765 133.557 210.851 134.436C210.936 135.315 210.996 136.406 211.073 137.556C211.471 143.575 211.402 149.61 210.868 155.621C210.526 159.137 210.012 162.478 209.378 165.488C208.745 168.499 208 171.188 207.323 173.429C206.647 175.671 205.996 177.451 205.534 178.682C205.311 179.268 205.123 179.737 204.986 180.096C204.935 180.264 204.861 180.426 204.764 180.579C204.795 180.408 204.841 180.239 204.901 180.074L205.371 178.645C205.782 177.4 206.365 175.598 207.015 173.356C207.666 171.114 208.385 168.441 208.976 165.43C209.567 162.419 210.089 159.093 210.423 155.584C210.952 149.589 211.064 143.571 210.757 137.564C210.705 136.414 210.654 135.366 210.603 134.45C210.551 133.535 210.491 132.758 210.448 132.099C210.406 131.44 210.389 130.993 210.363 130.634C210.351 130.458 210.351 130.282 210.363 130.106Z" fill="#263238"/>
<g opacity="0.3">
<path d="M174.49 156.149C174.274 152.761 173.631 149.404 172.572 146.135C171.373 142.904 169.259 139.82 166.014 137.871C161.039 134.875 154.027 135.11 148.745 137.725C143.462 140.34 139.926 145.014 138.18 150.002C136.433 154.991 136.365 160.258 136.836 165.481C137.307 170.704 138.3 175.817 138.659 181.011L176.579 175.883C175.86 169.32 175.163 162.741 174.49 156.149Z" fill="white"/>
</g>
<path d="M174.122 105.998C174.122 102.394 171.031 99.2733 167.486 97.3174C163.367 95.0988 158.604 93.9135 153.736 93.8964C150.312 93.8598 146.759 94.4165 144.105 96.2406C142.814 97.1804 141.77 98.343 141.041 99.6521C140.312 100.961 139.915 102.387 139.875 103.837C139.721 106.731 137.392 109.133 139.019 111.683C145.181 115.023 152.453 116.541 159.721 116.005C163.137 115.846 166.444 114.922 169.31 113.324C172.075 111.624 174.13 108.914 174.122 105.998Z" fill="#6F4439"/>
<path d="M196.433 93.8672L196.87 87.1936C196.87 87.1936 197.281 84.0656 192.341 66.0815C185.825 42.3542 150.389 44.7936 150.389 44.7936C147.05 44.6911 115.56 45.2918 111.536 70.7772C109.379 84.4392 111.296 89.4279 111.296 89.4279L113.608 98.2185C113.608 98.2185 116.502 115.507 132.726 117.367C132.726 117.367 137.152 118.305 142.23 110.188C147.178 102.292 146.305 98.4676 153.779 96.6655C163.137 97.2735 162.82 101.845 169.336 109.119C175.851 116.393 180.046 114.921 180.046 114.921C195.722 110.892 196.433 93.8672 196.433 93.8672Z" fill="#AE7461"/>
<path d="M131.836 82.4686C130.948 83.05 129.878 83.3929 128.762 83.4539C127.646 83.515 126.534 83.2913 125.567 82.8114C124.6 82.3315 123.821 81.6168 123.328 80.7578C122.836 79.8988 122.652 78.9341 122.801 77.9859C122.95 77.0377 123.424 76.1485 124.164 75.431C124.903 74.7134 125.875 74.1998 126.956 73.955C128.037 73.7103 129.178 73.7454 130.236 74.056C131.294 74.3666 132.22 74.9387 132.897 75.6998C133.347 76.2038 133.677 76.7788 133.867 77.3918C134.057 78.0048 134.104 78.6438 134.006 79.2724C133.907 79.901 133.665 80.5068 133.292 81.0553C132.92 81.6037 132.425 82.0839 131.836 82.4686Z" fill="#263238"/>
<path d="M182.349 79.6996C181.462 80.282 180.393 80.626 179.277 80.6881C178.161 80.7503 177.049 80.5278 176.081 80.0487C175.113 79.5697 174.332 78.8557 173.839 77.9971C173.346 77.1385 173.161 76.174 173.308 75.2256C173.456 74.2771 173.929 73.3875 174.668 72.6693C175.407 71.951 176.378 71.4365 177.459 71.1908C178.539 70.9451 179.681 70.9793 180.739 71.2891C181.797 71.5988 182.724 72.1702 183.402 72.9308C184.31 73.9485 184.708 75.2326 184.511 76.5015C184.314 77.7704 183.536 78.9205 182.349 79.6996Z" fill="#263238"/>
<g opacity="0.2">
<path d="M196.048 96.8339C180.209 84.7395 172.666 76.6229 158.822 75.209L158.06 75.1431C153.864 74.5207 149.555 74.7629 145.49 75.8496C141.426 76.9362 137.722 78.8361 134.687 81.3918C130.509 84.9813 128.796 90.3509 123.822 93.1126C121.63 94.3213 117.307 95.3102 115.569 96.9365C114.781 97.6919 114.224 98.6032 113.951 99.5883C115.029 103.72 119.327 115.814 132.786 117.353C132.786 117.353 137.212 118.29 142.29 110.174C147.238 102.277 146.365 98.4528 153.839 96.6508C163.197 97.2588 162.88 101.83 169.396 109.104C175.911 116.378 180.106 114.906 180.106 114.906C191.622 111.946 195.029 101.896 196.048 96.8339Z" fill="black"/>
</g>
<path d="M161.853 80.3076C161.352 79.5447 160.573 78.9427 159.635 78.5934H159.584C158.989 78.3384 158.359 78.1465 157.709 78.022C154.681 77.1451 151.38 77.26 148.445 78.3444C146.993 78.7827 145.744 79.6098 144.884 80.7032C144.47 81.2564 144.286 81.9125 144.361 82.5661C144.435 83.2196 144.764 83.8328 145.295 84.3073C146.51 85.2376 148.428 85.0398 149.824 85.7724C150.656 86.3241 151.416 86.9503 152.093 87.6404C152.855 88.2558 154.01 88.7099 154.944 88.2924C156.125 87.7649 156.151 86.2412 157.187 85.516C158.223 84.7908 159.661 85.0838 160.74 84.5197C162.135 83.7872 162.529 81.5895 161.853 80.3076Z" fill="#263238"/>
<path d="M172.974 79.597C172.808 79.5434 172.647 79.4772 172.495 79.3993L171.159 78.8059C169.523 78.0856 167.843 77.4425 166.125 76.8793C163.577 76.0559 160.929 75.4785 158.231 75.1578C154.93 74.7585 151.573 74.8677 148.317 75.4801C145.061 76.0861 141.99 77.2689 139.301 78.9524C138.135 79.6899 137.062 80.5296 136.099 81.4577C135.276 82.2794 134.515 83.1456 133.822 84.0509C132.538 85.7138 131.562 87.1057 130.817 88.0287C130.44 88.4902 130.141 88.8418 129.961 89.0689C129.863 89.1968 129.744 89.3126 129.61 89.4132C129.688 89.2775 129.78 89.1476 129.884 89.025L130.697 87.9408C131.399 87.0031 132.324 85.5966 133.582 83.9044C134.269 82.9763 135.027 82.088 135.851 81.2453C136.819 80.2915 137.9 79.4272 139.079 78.6667C141.808 76.9398 144.933 75.7265 148.248 75.1065C151.556 74.4863 154.967 74.3845 158.317 74.8062C161.039 75.1472 163.706 75.7593 166.262 76.6302C167.965 77.2128 169.621 77.8907 171.219 78.6594C171.793 78.9304 172.221 79.1648 172.512 79.3187C172.679 79.3943 172.835 79.4879 172.974 79.597Z" fill="#263238"/>
<path d="M113.248 23.3445C109.678 19.8649 105.252 16.0776 99.8581 16.4732C96.3307 16.7296 93.2657 18.8539 91.4677 21.4618C89.6698 24.0697 88.9934 27.1244 88.5996 30.1352C87.1024 41.8927 89.7092 53.7662 96.091 64.2574C99.2845 69.4805 104.088 74.6816 110.877 75.6559L138 47.4454C129.758 39.4117 121.508 31.3781 113.248 23.3445Z" fill="#AE7461"/>
<path d="M187.486 22.253C190.851 18.5903 195.046 14.6418 200.457 14.7957C203.993 14.8982 207.178 16.8834 209.13 19.4181C211.082 21.9527 211.947 24.9635 212.554 27.9523C214.755 39.6364 212.864 51.6166 207.118 62.3821C204.241 67.7297 199.746 73.1433 193.025 74.4106L164.198 47.3868C171.961 39.0064 179.724 30.6285 187.486 22.253Z" fill="#AE7461"/>
<path d="M135.055 47.6358C134.592 47.8305 134.114 47.9993 133.625 48.1413C132.325 48.5896 131.056 49.1007 129.824 49.6723C125.747 51.5504 122.183 54.1496 119.371 57.2972C116.559 60.4447 114.562 64.0685 113.514 67.9275C113.183 69.0948 112.94 70.2791 112.786 71.473C112.747 71.9127 112.681 72.3504 112.589 72.7843C112.567 72.6703 112.567 72.554 112.589 72.44C112.589 72.2129 112.589 71.8833 112.589 71.4584C112.684 70.2508 112.885 69.0509 113.189 67.8689C114.166 63.9441 116.151 60.2543 119 57.0666C121.849 53.879 125.49 51.2732 129.661 49.4379C130.912 48.8662 132.211 48.3764 133.548 47.9728C134.019 47.8263 134.404 47.7457 134.644 47.6798C134.779 47.6528 134.916 47.6381 135.055 47.6358Z" fill="#263238"/>
<path d="M150.389 44.7936C150.562 44.7521 150.74 44.7299 150.92 44.7276C151.279 44.7276 151.776 44.6763 152.469 44.6544C154.374 44.6074 156.28 44.6465 158.18 44.7716C164.479 45.1152 170.645 46.4722 176.356 48.7713C179.476 50.0851 182.332 51.8161 184.815 53.8991C186.815 55.6223 188.493 57.599 189.789 59.7595C190.654 61.2171 191.35 62.7431 191.87 64.316C192.024 64.8435 192.144 65.2683 192.246 65.6053C192.3 65.7528 192.331 65.9053 192.341 66.0595C192.266 65.9177 192.206 65.7707 192.161 65.62C192.041 65.2976 191.887 64.8874 191.707 64.36C191.126 62.8175 190.393 61.3201 189.515 59.8841C188.195 57.7679 186.512 55.8321 184.524 54.1409C182.058 52.0959 179.236 50.3907 176.159 49.0863C170.501 46.8159 164.41 45.4386 158.18 45.0206C155.791 44.8302 153.839 44.7862 152.503 44.7789H150.928C150.749 44.8 150.569 44.8049 150.389 44.7936Z" fill="#263238"/>
<path d="M196.433 93.8672C196.433 93.8672 196.433 94.0356 196.433 94.358C196.433 94.6803 196.365 95.1564 196.279 95.7791C196.02 97.5835 195.578 99.3654 194.96 101.105C194.017 103.832 192.531 106.399 190.568 108.694C189.343 110.115 187.877 111.372 186.219 112.423C184.366 113.587 182.297 114.473 180.097 115.045C179.439 115.215 178.741 115.24 178.068 115.118C177.398 115.02 176.747 114.842 176.133 114.591C174.883 114.067 173.729 113.388 172.709 112.576C170.591 110.849 168.723 108.911 167.144 106.804C166.288 105.734 165.509 104.606 164.721 103.478C163.956 102.322 163.098 101.213 162.152 100.16C161.183 99.092 159.918 98.2484 158.471 97.7057C156.968 97.1921 155.378 96.8879 153.762 96.8047H153.839C152.494 97.1105 151.218 97.6056 150.063 98.2698C147.932 99.5591 146.904 101.691 145.92 103.683C144.935 105.676 143.95 107.705 142.803 109.58C141.724 111.451 140.372 113.196 138.779 114.774C137.982 115.527 137.065 116.18 136.057 116.715C135.048 117.289 133.838 117.548 132.632 117.448C129.453 117.086 126.434 116.04 123.856 114.408C121.579 112.92 119.643 111.084 118.146 108.994C116.845 107.187 115.78 105.264 114.969 103.258C114.278 101.592 113.762 99.8758 113.428 98.1306C112.709 95.3322 112.153 93.1419 111.767 91.6329C111.587 90.9003 111.45 90.3363 111.348 89.9334L111.254 89.4938C111.248 89.4451 111.248 89.396 111.254 89.3473C111.28 89.3934 111.297 89.4429 111.305 89.4938L111.433 89.9187C111.553 90.3216 111.707 90.8783 111.913 91.6109L113.676 98.0866C114.04 99.8092 114.573 101.503 115.269 103.149C116.085 105.13 117.153 107.029 118.454 108.811C119.941 110.863 121.857 112.663 124.105 114.122C126.627 115.696 129.571 116.704 132.666 117.052C133.754 117.101 134.831 116.844 135.731 116.32C136.701 115.798 137.583 115.164 138.351 114.437C139.913 112.875 141.241 111.152 142.307 109.309C143.445 107.441 144.421 105.463 145.397 103.449C145.875 102.415 146.433 101.409 147.067 100.438C147.715 99.4304 148.612 98.5555 149.695 97.8742C150.889 97.1751 152.212 96.6526 153.608 96.3285H153.685C155.351 96.4182 156.99 96.7347 158.539 97.2662C160.047 97.8352 161.367 98.7133 162.384 99.8228C163.341 100.896 164.216 102.022 165.003 103.193C165.791 104.335 166.587 105.441 167.409 106.511C168.965 108.597 170.804 110.517 172.889 112.232C173.878 113.022 174.997 113.683 176.211 114.195C176.791 114.436 177.408 114.609 178.043 114.708C178.646 114.816 179.271 114.801 179.866 114.664C182.016 114.105 184.041 113.244 185.859 112.115C187.49 111.081 188.932 109.847 190.14 108.452C192.104 106.181 193.598 103.639 194.558 100.936C195.193 99.2109 195.666 97.4446 195.971 95.6546C196.073 95.0319 196.142 94.5557 196.176 94.2407C196.21 93.9258 196.433 93.8672 196.433 93.8672Z" fill="#263238"/>
<path d="M154.55 87.8968C154.805 89.3641 154.845 90.8529 154.67 92.3288C154.637 93.8152 154.384 95.2921 153.916 96.7241C153.788 96.7241 154.053 94.7462 154.224 92.3288C154.396 89.9113 154.421 87.9041 154.55 87.8968Z" fill="#263238"/>
<path d="M132.375 102.182C132.349 102.35 132.266 102.508 132.135 102.636C132.004 102.763 131.832 102.855 131.64 102.899C131.449 102.943 131.246 102.937 131.058 102.882C130.87 102.827 130.706 102.726 130.585 102.591C130.465 102.456 130.394 102.293 130.382 102.124C130.37 101.955 130.416 101.786 130.516 101.639C130.616 101.492 130.765 101.374 130.944 101.3C131.122 101.226 131.322 101.199 131.519 101.222C131.781 101.253 132.018 101.371 132.178 101.551C132.338 101.731 132.409 101.957 132.375 102.182Z" fill="#263238"/>
<path d="M137.187 96.7606C137.161 96.929 137.078 97.0871 136.947 97.2148C136.816 97.3425 136.644 97.4341 136.452 97.478C136.26 97.5219 136.058 97.516 135.87 97.4612C135.682 97.4064 135.518 97.305 135.397 97.17C135.277 97.0351 135.206 96.8725 135.194 96.7031C135.181 96.5336 135.228 96.3648 135.328 96.2181C135.428 96.0715 135.577 95.9535 135.755 95.8792C135.934 95.805 136.134 95.7777 136.331 95.801C136.461 95.8154 136.586 95.8517 136.7 95.9079C136.813 95.964 136.913 96.0389 136.992 96.1281C137.072 96.2173 137.13 96.3192 137.164 96.4277C137.197 96.5363 137.205 96.6494 137.187 96.7606Z" fill="#263238"/>
<path d="M143.188 100.907C143.161 101.075 143.076 101.232 142.945 101.359C142.813 101.485 142.641 101.576 142.449 101.619C142.257 101.661 142.055 101.654 141.868 101.599C141.681 101.544 141.517 101.442 141.398 101.307C141.278 101.172 141.208 101.009 141.196 100.84C141.185 100.671 141.232 100.503 141.332 100.356C141.432 100.21 141.58 100.093 141.758 100.018C141.936 99.9443 142.136 99.917 142.332 99.94C142.595 99.9728 142.832 100.093 142.992 100.273C143.152 100.454 143.223 100.682 143.188 100.907Z" fill="#263238"/>
<path d="M146.87 95.3615C146.844 95.5299 146.761 95.688 146.63 95.8157C146.499 95.9434 146.327 96.035 146.135 96.0789C145.944 96.1227 145.741 96.1169 145.553 96.0621C145.365 96.0072 145.201 95.9059 145.08 95.771C144.96 95.636 144.889 95.4734 144.877 95.304C144.864 95.1345 144.911 94.9657 145.011 94.819C145.111 94.6724 145.26 94.5544 145.438 94.4801C145.617 94.4059 145.817 94.3786 146.014 94.4019C146.144 94.4163 146.269 94.4526 146.383 94.5088C146.497 94.5649 146.596 94.6398 146.676 94.729C146.755 94.8182 146.813 94.92 146.847 95.0286C146.88 95.1372 146.888 95.2503 146.87 95.3615Z" fill="#263238"/>
<path d="M136.63 106.797C136.605 106.965 136.521 107.123 136.39 107.251C136.26 107.378 136.087 107.47 135.896 107.514C135.704 107.558 135.501 107.552 135.313 107.497C135.126 107.442 134.961 107.341 134.841 107.206C134.72 107.071 134.649 106.908 134.637 106.739C134.625 106.57 134.672 106.401 134.772 106.254C134.872 106.107 135.02 105.989 135.199 105.915C135.377 105.841 135.577 105.814 135.774 105.837C135.904 105.851 136.03 105.888 136.143 105.944C136.257 106 136.356 106.075 136.436 106.164C136.516 106.253 136.574 106.355 136.607 106.464C136.64 106.572 136.648 106.685 136.63 106.797Z" fill="#263238"/>
<path d="M179.353 101.581C179.326 101.749 179.357 101.92 179.444 102.073C179.531 102.226 179.669 102.353 179.84 102.439C180.012 102.524 180.209 102.564 180.407 102.554C180.605 102.543 180.795 102.483 180.953 102.38C181.111 102.276 181.229 102.136 181.293 101.975C181.357 101.814 181.364 101.641 181.313 101.477C181.262 101.313 181.154 101.165 181.005 101.054C180.856 100.942 180.671 100.87 180.474 100.848C180.344 100.833 180.212 100.84 180.085 100.868C179.958 100.897 179.839 100.946 179.735 101.015C179.631 101.083 179.543 101.168 179.478 101.265C179.412 101.362 179.37 101.47 179.353 101.581Z" fill="#263238"/>
<path d="M174.55 96.116C174.532 96.2272 174.539 96.3403 174.573 96.4489C174.606 96.5575 174.664 96.6593 174.744 96.7485C174.823 96.8378 174.923 96.9126 175.037 96.9688C175.15 97.0249 175.276 97.0613 175.406 97.0757C175.602 97.0989 175.803 97.0717 175.981 96.9974C176.16 96.9231 176.308 96.8052 176.408 96.6585C176.508 96.5118 176.555 96.3431 176.543 96.1736C176.53 96.0041 176.46 95.8416 176.339 95.7066C176.219 95.5716 176.054 95.4703 175.866 95.4155C175.679 95.3606 175.476 95.3548 175.284 95.3987C175.092 95.4425 174.92 95.5341 174.789 95.6618C174.659 95.7895 174.575 95.9476 174.55 96.116Z" fill="#263238"/>
<path d="M168.531 98.3796C168.504 98.5479 168.535 98.7192 168.622 98.8719C168.709 99.0246 168.847 99.1518 169.018 99.2373C169.19 99.3229 169.387 99.3629 169.585 99.3524C169.783 99.3419 169.973 99.2813 170.131 99.1783C170.289 99.0752 170.407 98.9344 170.471 98.7737C170.535 98.613 170.542 98.4396 170.491 98.2756C170.44 98.1116 170.332 97.9642 170.183 97.8523C170.034 97.7404 169.849 97.669 169.652 97.6471C169.39 97.6179 169.125 97.6785 168.915 97.8157C168.705 97.9529 168.567 98.1556 168.531 98.3796Z" fill="#263238"/>
<path d="M165.628 92.5778C165.601 92.746 165.633 92.9174 165.72 93.0701C165.807 93.2228 165.945 93.35 166.116 93.4355C166.287 93.5211 166.485 93.5612 166.683 93.5506C166.881 93.5401 167.071 93.4795 167.229 93.3765C167.386 93.2734 167.505 93.1326 167.569 92.9719C167.633 92.8112 167.64 92.6378 167.588 92.4738C167.537 92.3098 167.43 92.1625 167.281 92.0506C167.132 91.9387 166.947 91.8672 166.75 91.8453C166.488 91.818 166.225 91.8794 166.015 92.0163C165.805 92.1531 165.667 92.3547 165.628 92.5778Z" fill="#263238"/>
<path d="M173.266 104.343C173.248 104.454 173.255 104.567 173.289 104.675C173.322 104.784 173.38 104.886 173.46 104.975C173.539 105.064 173.639 105.139 173.753 105.195C173.866 105.251 173.992 105.288 174.122 105.302C174.318 105.325 174.519 105.298 174.697 105.224C174.875 105.15 175.024 105.032 175.124 104.885C175.224 104.738 175.271 104.57 175.259 104.4C175.246 104.231 175.176 104.068 175.055 103.933C174.935 103.798 174.77 103.697 174.582 103.642C174.394 103.587 174.192 103.581 174 103.625C173.808 103.669 173.636 103.761 173.505 103.888C173.375 104.016 173.291 104.174 173.266 104.343Z" fill="#263238"/>
<path d="M132.632 63.1805C132.632 63.7153 131.964 64.2134 130.92 64.7116C129.597 65.3122 128.226 65.8336 126.819 66.2719C123.599 67.3121 120.723 68.0373 119.969 67.1729C119.627 66.7407 119.969 65.9642 120.868 65.0998C122.09 64.0381 123.573 63.2224 125.209 62.7117C126.837 62.1483 128.597 61.9224 130.346 62.0524C131.767 62.2062 132.606 62.6677 132.632 63.1805Z" fill="#263238"/>
<path d="M182.221 60.3456C182.024 60.8511 181.168 61.0782 179.978 61.2467C178.489 61.4011 176.99 61.4697 175.491 61.4518C172.067 61.4518 169.07 61.2393 168.745 60.2064C168.599 59.701 169.233 59.071 170.457 58.5436C172.042 57.9259 173.767 57.6157 175.508 57.6352C177.272 57.6076 179.018 57.939 180.603 58.6022C181.818 59.1882 182.409 59.8695 182.221 60.3456Z" fill="#263238"/>
<path d="M160.389 72.3155C160.389 72.3814 159.404 72.1983 157.82 72.0371C155.776 71.8155 153.711 71.7665 151.656 71.8906C149.603 72.0219 147.57 72.3237 145.586 72.7917C144.053 73.1506 143.129 73.4436 143.103 73.385C143.289 73.2638 143.497 73.1698 143.719 73.1067C144.298 72.8877 144.89 72.6945 145.492 72.528C147.484 71.9824 149.544 71.6406 151.63 71.5097C153.715 71.3812 155.811 71.4673 157.872 71.7661C158.495 71.8536 159.113 71.971 159.721 72.1177C159.954 72.1554 160.179 72.222 160.389 72.3155Z" fill="#263238"/>
<g opacity="0.2">
<path d="M113.531 67.0265C112.324 71.6196 102.855 64.3966 99.7724 60.4921C96.6902 56.5876 95.3289 51.9066 94.019 47.3062C92.3067 41.292 90.5943 35.0726 91.7673 28.9925C92.0909 26.9016 93.0243 24.9139 94.4813 23.2127C95.2201 22.3711 96.1803 21.6905 97.2841 21.2259C98.3878 20.7614 99.604 20.526 100.834 20.5389C103.599 20.6854 105.894 22.3629 107.803 24.0771C114.388 29.9837 119.065 37.2541 121.373 45.1745C122.23 48.2292 123.753 52.1484 121.664 54.6977C121.664 54.7416 115.44 59.7596 113.531 67.0265Z" fill="black"/>
</g>
<g opacity="0.2">
<path d="M192.341 65.1804C193.548 69.7735 201.074 61.9645 204.147 58.0673C207.221 54.1702 208.591 49.4818 209.901 44.8814C211.613 38.8672 211.613 33.9591 210.363 27.8496C209.76 25.1303 208.665 22.508 207.118 20.0773C205.962 18.2239 203 16.2827 200.551 16.4145C197.794 16.561 195.115 18.2386 193.205 19.9454C186.647 25.8058 184.832 34.8455 182.546 42.7277C181.69 45.7825 180.166 49.7016 182.264 52.2509C182.264 52.2875 190.431 57.9135 192.341 65.1804Z" fill="black"/>
</g>
<path d="M161.382 151.182C161.382 151.182 161.296 151.131 161.168 150.999C161.039 150.867 160.851 150.691 160.62 150.435C159.969 149.698 159.383 148.922 158.865 148.112C157.054 145.293 156.062 142.142 155.971 138.926L156.382 138.97C156.21 139.951 155.64 140.848 154.772 141.505C154.513 141.668 154.216 141.781 153.902 141.836C153.587 141.892 153.262 141.889 152.949 141.827C152.635 141.736 152.351 141.583 152.119 141.381C151.887 141.179 151.714 140.932 151.613 140.662C150.886 138.92 150.914 137.012 151.69 135.285L151.938 135.527C151.433 135.653 150.984 135.909 150.654 136.26C150.277 136.604 149.978 136.992 149.558 137.337C149.152 137.665 148.649 137.893 148.103 137.996C147.821 138.047 147.528 138.025 147.262 137.93C146.996 137.836 146.77 137.675 146.613 137.468C146.379 137.083 146.272 136.65 146.305 136.216C146.305 135.82 146.305 135.439 146.365 135.073C146.429 134.4 146.553 133.731 146.733 133.073C146.99 132.14 147.366 131.233 147.855 130.37C148.026 130.07 148.171 129.843 148.274 129.696C148.377 129.55 148.445 129.469 148.454 129.476C148.462 129.484 148.291 129.806 147.983 130.421C147.557 131.294 147.228 132.199 146.998 133.124C146.837 133.774 146.731 134.432 146.682 135.095C146.682 135.452 146.682 135.825 146.682 136.216C146.657 136.591 146.749 136.965 146.947 137.3C147.064 137.453 147.235 137.571 147.434 137.637C147.634 137.703 147.853 137.713 148.06 137.666C148.538 137.572 148.977 137.367 149.327 137.073C149.687 136.78 150.004 136.377 150.38 136.018C150.763 135.601 151.291 135.298 151.887 135.154L152.281 135.073L152.135 135.395C151.394 137.043 151.373 138.864 152.075 140.523C152.148 140.739 152.28 140.937 152.46 141.1C152.641 141.263 152.864 141.387 153.111 141.461C153.362 141.509 153.622 141.51 153.873 141.465C154.124 141.419 154.361 141.328 154.567 141.197C155.345 140.586 155.858 139.767 156.022 138.875L156.408 137.666V138.919C156.487 142.086 157.412 145.196 159.113 148.01C159.603 148.822 160.152 149.608 160.757 150.361C160.985 150.624 161.193 150.898 161.382 151.182Z" fill="#263238"/>
<path d="M191.065 172.821C188.457 171.232 185.429 170.221 182.252 169.879C179.075 169.538 175.849 169.877 172.863 170.865C171.326 168.161 168.679 166.036 165.427 164.895C162.176 163.754 158.547 163.677 155.233 164.678C151.919 165.68 149.152 167.69 147.46 170.325C145.767 172.961 145.268 176.037 146.057 178.967C139.284 176.623 130.586 180.301 128.668 186.33L198.822 187.062C199.009 184.324 198.397 181.59 197.044 179.104C195.69 176.619 193.635 174.46 191.065 172.821Z" fill="#E0E0E0"/>
<path d="M48.1717 178.052L111.185 178.286L129.267 186.652C133.771 186.974 203.942 186.652 203.942 186.652L213.993 178.052H264.507L239.318 214.584H72.2127L48.1717 178.052Z" fill="#545197"/>
<path d="M265.577 171.627H224.969C223.188 171.627 221.373 171.532 219.601 171.627C215.885 171.832 214.01 173.693 211.63 175.73L198.976 186.557H130.029L117.923 178.11C113.822 175.246 110.089 171.737 104.558 171.627C89.8582 171.342 75.1065 171.627 60.4062 171.627H43.7282C34.0707 171.627 34.0536 184.469 43.7282 184.469H103.403C109.481 188.732 115.543 193.018 121.682 197.215C126.93 200.812 135.877 199.413 142.23 199.413H178.471C186.219 199.413 194.13 199.808 201.878 199.413C206.93 199.157 210.337 195.018 213.676 192.161L222.649 184.484H265.585C275.234 184.469 275.251 171.627 265.577 171.627Z" fill="#5F6CAF"/>
<path d="M265.577 171.627H265.868C266.154 171.628 266.44 171.645 266.724 171.679C267.855 171.781 268.936 172.129 269.866 172.689C271.379 173.641 272.403 175.055 272.726 176.638C272.959 177.635 272.944 178.664 272.683 179.656C272.407 180.799 271.77 181.856 270.842 182.711C269.782 183.667 268.371 184.282 266.844 184.454C266.034 184.538 265.219 184.57 264.404 184.549H261.835H250.482H222.623L222.726 184.513L213.351 192.571C211.758 193.977 210.234 195.501 208.419 196.878C206.628 198.358 204.311 199.283 201.835 199.508C196.887 199.757 191.767 199.699 186.502 199.611C181.236 199.523 175.825 199.523 170.234 199.523H153.24C147.401 199.559 141.459 199.406 135.38 199.757C132.294 199.941 129.192 199.751 126.168 199.193C124.625 198.871 123.171 198.294 121.887 197.494C120.628 196.673 119.438 195.809 118.214 194.966L103.3 184.571L103.437 184.615H43.7537C42.409 184.633 41.0817 184.353 39.901 183.802C38.74 183.224 37.7978 182.372 37.187 181.348C36.59 180.334 36.2727 179.217 36.2594 178.081C36.246 176.946 36.537 175.823 37.1099 174.799C37.6759 173.779 38.566 172.916 39.6784 172.309C40.8118 171.733 42.102 171.422 43.4198 171.408H51.0226C61.1024 171.408 70.9882 171.376 80.68 171.312C85.5259 171.312 90.3118 171.268 95.0378 171.312L102.084 171.386C103.248 171.386 104.404 171.386 105.586 171.495C106.767 171.614 107.921 171.88 109.01 172.287C111.098 173.131 113.031 174.231 114.747 175.554C116.459 176.821 118.171 178.059 119.926 179.26L130.123 186.425L130.003 186.381L198.95 186.417L198.839 186.461C202.868 183.018 206.698 179.749 210.328 176.653L213.008 174.367C213.87 173.606 214.849 172.951 215.919 172.418C216.974 171.919 218.142 171.619 219.344 171.539C220.517 171.459 221.664 171.481 222.769 171.495C231.784 171.561 239.541 171.495 245.885 171.554L260.44 171.591H245.885C239.549 171.591 231.792 171.642 222.769 171.591C220.543 171.591 218.111 171.444 216.022 172.492C213.933 173.539 212.34 175.195 210.5 176.704L199.036 186.527L198.993 186.571H198.924H129.978H129.909H129.849L119.575 179.436C117.863 178.242 116.151 176.99 114.387 175.73C112.698 174.435 110.801 173.354 108.754 172.521C107.711 172.133 106.61 171.874 105.483 171.752C104.361 171.664 103.18 171.679 102.058 171.649L95.0121 171.583C90.2947 171.583 85.5087 171.583 80.6629 171.583C70.9882 171.657 61.0824 171.708 51.0054 171.686H43.4198C42.1785 171.7 40.9628 171.99 39.8925 172.528C38.8378 173.095 37.9919 173.905 37.4524 174.865C36.9097 175.835 36.6337 176.899 36.6456 177.974C36.6574 179.05 36.9569 180.109 37.5209 181.07C38.0982 182.034 38.9906 182.833 40.0894 183.37C41.2062 183.876 42.4561 184.128 43.7195 184.103H103.445L103.505 184.147L118.411 194.541C119.635 195.384 120.834 196.263 122.067 197.069C123.308 197.839 124.713 198.397 126.202 198.71C129.184 199.26 132.242 199.448 135.286 199.266C141.356 198.922 147.341 199.076 153.163 199.039H170.286C175.842 199.039 181.262 199.039 186.553 199.142C191.844 199.244 196.921 199.303 201.853 199.061C204.255 198.848 206.505 197.951 208.239 196.512C210.037 195.179 211.553 193.64 213.162 192.227L222.58 184.169L222.623 184.132H222.691H250.551H261.904H264.472C265.278 184.161 266.086 184.134 266.887 184.051C268.376 183.892 269.755 183.297 270.791 182.366C271.705 181.531 272.336 180.497 272.614 179.378C272.872 178.4 272.892 177.388 272.674 176.404C272.366 174.845 271.37 173.447 269.892 172.499C268.972 171.939 267.904 171.584 266.784 171.466C266.5 171.427 266.214 171.403 265.928 171.393C265.819 171.48 265.702 171.559 265.577 171.627Z" fill="#263238"/>
<path d="M73.1116 147.219C73.5654 144.897 74.4387 142.977 76.5363 141.454C74.764 140.545 73.2401 139.952 72.949 137.498C72.8631 136.826 72.9372 136.145 73.1667 135.498C73.3963 134.851 73.7765 134.251 74.2846 133.732C75.3864 132.748 76.6601 131.915 78.0602 131.264C77.4593 130.493 77.1349 129.589 77.127 128.663C77.6619 129.243 78.3727 129.687 79.1818 129.945C78.9336 129.35 78.8322 128.717 78.8837 128.087C78.9353 127.457 79.1388 126.842 79.4815 126.282C79.5329 128.136 81.502 129.513 83.4712 130.275C85.4404 131.037 87.6493 131.484 89.2417 132.729C90.1495 133.484 90.7949 134.44 91.1063 135.49C91.4176 136.54 91.3827 137.643 91.0054 138.677C90.5962 139.703 89.9064 140.631 88.9935 141.383C88.0806 142.134 86.971 142.689 85.7571 142.999C88.167 144.301 91.0447 144.817 93.8626 144.451C96.6805 144.085 99.2499 142.862 101.1 141.007C102.771 142.968 103.492 145.406 103.112 147.812C102.557 150.466 100.944 152.874 98.5482 154.625H75.1151C73.7195 152.596 72.6579 149.534 73.1116 147.219Z" fill="#FFB677"/>
<path d="M75.115 137.681C74.9181 137.49 73.6938 134.751 73.6938 134.751C72.5322 134.556 71.4408 134.13 70.5089 133.505C70.5089 133.505 69.9267 133.769 70.8257 134.97C71.3663 135.68 72.027 136.317 72.7863 136.86C72.7863 136.86 70.0294 136.985 70.0294 138.611L72.2983 138.509L73.3599 139.175L75.115 137.681Z" fill="#FF725E"/>
<path opacity="0.3" d="M75.115 137.681C74.9181 137.49 73.5054 134.751 73.5054 134.751C72.4064 134.558 71.3783 134.141 70.5089 133.535C70.5089 133.535 69.9267 133.798 70.8257 135C71.3663 135.709 72.027 136.346 72.7863 136.89C72.7863 136.89 70.0294 137.014 70.0294 138.641L72.2983 138.538L73.3599 139.205L75.115 137.681Z" fill="black"/>
<path d="M76.6388 135.681C76.6493 135.859 76.7214 136.031 76.846 136.174C76.9705 136.317 77.1419 136.425 77.3384 136.485C77.5349 136.545 77.7477 136.553 77.9498 136.509C78.1519 136.465 78.3342 136.371 78.4736 136.238C78.6131 136.106 78.7033 135.94 78.733 135.764C78.7626 135.587 78.7303 135.407 78.6402 135.246C78.55 135.085 78.4061 134.951 78.2266 134.86C78.0471 134.769 77.8402 134.726 77.632 134.736C77.3541 134.749 77.0936 134.856 76.9075 135.033C76.7214 135.21 76.6248 135.443 76.6388 135.681Z" fill="#263238"/>
<path d="M78.4455 146.852C79.1858 147.431 79.9725 147.965 80.7999 148.449C82.8457 149.568 85.295 150.015 87.6961 149.71C90.0972 149.404 92.2882 148.366 93.865 146.787C94.497 146.121 95.0694 145.416 95.5773 144.677C95.5226 144.909 95.4304 145.133 95.3033 145.343C94.9865 145.925 94.5836 146.469 94.1047 146.962C92.5278 148.65 90.2628 149.765 87.7646 150.083C85.2664 150.401 82.7201 149.899 80.6373 148.677C80.0061 148.321 79.4306 147.897 78.9249 147.417C78.7337 147.25 78.5722 147.06 78.4455 146.852Z" fill="#263238"/>
<path d="M71.4592 157.196C71.849 156.312 72.4549 155.508 73.2364 154.84C74.0179 154.172 74.9571 153.654 75.9911 153.322C77.0251 152.989 78.1302 152.849 79.2327 152.91C80.3351 152.972 81.4094 153.234 82.3839 153.68C83.8245 152.319 85.7921 151.45 87.9232 151.233C90.0391 151.019 92.1822 151.118 94.2588 151.526C96.3909 151.811 98.4313 152.469 100.252 153.46C101.155 153.966 101.909 154.642 102.457 155.438C103.005 156.233 103.331 157.125 103.411 158.046" fill="#E0E0E0"/>
<path d="M72.7226 101.338C78.6807 101.338 83.5106 97.1834 83.5106 92.0586C83.5106 86.9339 78.6807 82.7795 72.7226 82.7795C66.7646 82.7795 61.9346 86.9339 61.9346 92.0586C61.9346 97.1834 66.7646 101.338 72.7226 101.338Z" fill="#E0E0E0"/>
<path d="M83.5107 92.0586C83.438 91.3015 83.2991 90.5502 83.0952 89.811C82.48 87.8031 81.0946 86.0326 79.1635 84.7866C77.7477 83.8643 76.0849 83.2632 74.3281 83.0386C72.5714 82.814 70.7772 82.9731 69.1107 83.5012C67.1463 84.1228 65.4373 85.227 64.1962 86.6767C62.8617 88.2364 62.1419 90.1222 62.1419 92.0586C62.1419 93.9951 62.8617 95.8809 64.1962 97.4405C64.8191 98.1836 65.5742 98.8377 66.4337 99.3788C67.2473 99.9082 68.15 100.328 69.1107 100.623C70.8999 101.185 72.8312 101.325 74.7045 101.028C76.3328 100.776 77.8689 100.197 79.1875 99.3376C81.1159 98.0892 82.5005 96.3197 83.1191 94.3131C83.324 93.5718 83.4629 92.8181 83.5347 92.0586C83.5539 92.2576 83.5539 92.4576 83.5347 92.6566C83.5357 92.8869 83.5143 93.1168 83.4707 93.344C83.4363 93.6713 83.3694 93.9955 83.271 94.3131C82.7792 96.0561 81.7156 97.6408 80.2069 98.8788C78.6981 100.117 76.8077 100.956 74.7604 101.297C72.8337 101.611 70.8442 101.476 68.9988 100.905C66.9539 100.269 65.1741 99.1253 63.8845 97.6192C62.4945 96.0013 61.744 94.0429 61.7429 92.0311C61.7539 90.0208 62.5035 88.0649 63.8845 86.443C65.1776 84.9416 66.9565 83.8012 68.9988 83.1644C70.8442 82.5936 72.8337 82.4583 74.7604 82.7726C76.8125 83.1154 78.7058 83.9607 80.2128 85.2069C81.7197 86.453 82.7761 88.047 83.255 89.7973C83.3528 90.115 83.4196 90.4392 83.4547 90.7664C83.5001 91.005 83.5215 91.2464 83.5187 91.4881C83.5341 91.6782 83.5314 91.869 83.5107 92.0586Z" fill="#263238"/>
<path d="M64.8116 93.3027C64.5315 92.9581 64.3557 92.5588 64.3001 92.1411C64.0582 91.1349 64.1402 90.091 64.5373 89.122C64.9344 88.153 65.6316 87.2956 66.5536 86.6424C66.9067 86.348 67.337 86.131 67.8082 86.01C67.8082 86.065 67.3767 86.3056 66.7534 86.8279C65.9319 87.4943 65.307 88.3196 64.9304 89.2352C64.5538 90.1509 64.4363 91.1305 64.5878 92.093C64.6997 92.8422 64.8835 93.2821 64.8116 93.3027Z" fill="white"/>
<path d="M69.4224 97.853C69.0888 97.8924 68.7491 97.8659 68.4292 97.7753C68.1093 97.6848 67.8177 97.5327 67.5764 97.3306C66.6814 96.7395 66.4337 95.9559 66.5376 95.9559C66.6415 95.9559 67.033 96.5608 67.8321 97.0832C68.6313 97.6055 69.4384 97.7499 69.4224 97.853Z" fill="white"/>
<path d="M156.989 19.8328C162.369 19.8328 166.73 16.0816 166.73 11.4542C166.73 6.82674 162.369 3.07547 156.989 3.07547C151.609 3.07547 147.248 6.82674 147.248 11.4542C147.248 16.0816 151.609 19.8328 156.989 19.8328Z" fill="#E0E0E0"/>
<path d="M166.73 11.4404C166.652 10.7469 166.524 10.0582 166.346 9.37839C166.013 8.25971 165.409 7.21381 164.576 6.30839C163.742 5.40297 162.697 4.65823 161.507 4.12238C160.318 3.58652 159.011 3.27151 157.671 3.19773C156.331 3.12395 154.988 3.29305 153.728 3.69408C151.956 4.25214 150.415 5.24954 149.301 6.56029C148.097 7.96502 147.448 9.66435 147.448 11.4095C147.448 13.1546 148.097 14.8539 149.301 16.2587C150.415 17.5694 151.956 18.5668 153.728 19.1249C155.335 19.6323 157.071 19.7604 158.755 19.4961C160.221 19.2681 161.604 18.7452 162.79 17.9702C164.533 16.8461 165.785 15.2508 166.346 13.4406C166.522 12.772 166.65 12.0949 166.73 11.4129C166.749 11.5912 166.749 11.7707 166.73 11.9491C166.732 12.1654 166.713 12.3814 166.674 12.5951C166.64 12.8916 166.581 13.1857 166.498 13.475C166.054 15.0503 165.094 16.4829 163.731 17.6026C162.368 18.7223 160.661 19.482 158.811 19.7916C157.066 20.0766 155.263 19.9532 153.593 19.4342C152.706 19.1698 151.871 18.7921 151.115 18.3138C150.301 17.8128 149.588 17.1997 149.006 16.4992C147.747 15.0348 147.066 13.2618 147.064 11.4404C147.074 9.62227 147.754 7.85371 149.006 6.38845C150.172 5.02593 151.782 3.99237 153.633 3.41915C155.304 2.90213 157.106 2.78106 158.851 3.06861C160.7 3.37768 162.407 4.13643 163.769 5.25483C165.132 6.37323 166.093 7.80434 166.538 9.37839C166.621 9.66778 166.679 9.96176 166.714 10.2582C166.756 10.4855 166.774 10.7155 166.77 10.9455C166.773 11.1112 166.76 11.2767 166.73 11.4404Z" fill="#263238"/>
<path d="M149.853 12.5745C149.582 12.2689 149.413 11.9052 149.365 11.5229C149.147 10.6061 149.224 9.65527 149.589 8.77355C149.946 7.89727 150.577 7.12221 151.411 6.53282C152.05 6.08605 152.53 5.93484 152.554 5.97608C152.578 6.01732 152.162 6.25102 151.611 6.71841C150.896 7.33036 150.35 8.07261 150.013 8.8904C149.678 9.7149 149.569 10.5944 149.693 11.4611C149.77 11.8293 149.824 12.2011 149.853 12.5745Z" fill="white"/>
<path d="M154 16.6849C154 16.7811 153.129 16.7742 152.322 16.2243C151.515 15.6745 151.291 14.9596 151.395 14.939C151.499 14.9184 151.867 15.4751 152.578 15.9425C153.289 16.4099 154.024 16.5818 154 16.6849Z" fill="white"/>
<path d="M270.343 96.8907C270.343 97.777 270.037 98.6435 269.464 99.3804C268.892 100.117 268.078 100.692 267.126 101.031C266.174 101.37 265.127 101.459 264.116 101.286C263.105 101.113 262.177 100.686 261.448 100.06C260.72 99.4328 260.223 98.6343 260.022 97.7649C259.821 96.8956 259.924 95.9945 260.319 95.1757C260.713 94.3568 261.381 93.6569 262.238 93.1644C263.094 92.672 264.102 92.4092 265.132 92.4092C266.514 92.4092 267.839 92.8813 268.816 93.7218C269.794 94.5622 270.343 95.7021 270.343 96.8907Z" fill="#E0E0E0"/>
<path d="M270.342 96.8906C270.294 96.8906 270.342 96.4919 270.103 95.8115C269.789 94.857 269.118 94.0184 268.193 93.4264C267.515 92.9908 266.721 92.7084 265.883 92.6051C265.045 92.5018 264.191 92.581 263.398 92.8353C262.466 93.1259 261.656 93.6501 261.073 94.3405C260.445 95.0798 260.106 95.9716 260.106 96.8871C260.106 97.8027 260.445 98.6945 261.073 99.4337C261.655 100.126 262.465 100.653 263.398 100.946C264.192 101.197 265.046 101.274 265.884 101.17C266.721 101.066 267.515 100.783 268.193 100.348C269.119 99.757 269.791 98.918 270.103 97.9628C270.318 97.2755 270.294 96.8837 270.342 96.8906C270.39 96.8975 270.342 96.9868 270.342 97.1793C270.346 97.4549 270.309 97.7299 270.231 97.9972C269.971 99.012 269.307 99.9167 268.353 100.554C267.557 101.082 266.605 101.407 265.605 101.493C264.605 101.58 263.598 101.423 262.696 101.042C261.794 100.66 261.035 100.069 260.504 99.3355C259.973 98.6019 259.691 97.7549 259.691 96.8906C259.691 96.0263 259.973 95.1793 260.504 94.4456C261.035 93.7119 261.794 93.1209 262.696 92.7395C263.598 92.3581 264.605 92.2017 265.605 92.2878C266.605 92.374 267.557 92.6994 268.353 93.227C269.305 93.8631 269.969 94.765 270.231 95.7771C270.309 96.0467 270.347 96.3239 270.342 96.6019C270.362 96.6973 270.362 96.7951 270.342 96.8906Z" fill="#263238"/>
<path d="M261.313 97.4886C261.265 97.4886 261.097 97.3099 260.993 96.9387C260.854 96.4424 260.885 95.9221 261.081 95.4403C261.276 94.9574 261.632 94.5344 262.104 94.2237C262.464 93.99 262.735 93.9282 262.759 93.9694C262.229 94.4321 261.794 94.969 261.473 95.5572C261.295 96.1888 261.24 96.8416 261.313 97.4886Z" fill="white"/>
<path d="M263.534 99.6882C263.534 99.7844 263.031 99.8119 262.575 99.5094C262.12 99.207 262.032 98.7809 262.144 98.7534C262.256 98.7259 262.471 98.9939 262.831 99.2276C263.191 99.4613 263.55 99.5851 263.534 99.6882Z" fill="white"/>
<path d="M228.653 107.005C233.884 105.984 237.163 101.509 235.977 97.0097C234.79 92.5101 229.588 89.6897 224.356 90.7103C219.125 91.7308 215.846 96.2058 217.032 100.705C218.219 105.205 223.422 108.025 228.653 107.005Z" fill="#E0E0E0"/>
<path d="M237.092 103.145C237.436 102.527 237.738 101.891 237.995 101.241C238.63 99.4349 238.534 97.4965 237.723 95.7428C237.183 94.5441 236.32 93.4725 235.206 92.6154C233.929 91.6333 232.37 90.9619 230.691 90.6702C228.837 90.3495 226.914 90.5049 225.161 91.117C223.275 91.7743 221.684 92.9337 220.62 94.4253C219.556 95.917 219.075 97.6625 219.248 99.4063C219.402 101.029 220.111 102.577 221.285 103.853C222.347 105.009 223.749 105.899 225.345 106.431C226.737 106.896 228.238 107.073 229.724 106.946C231.9 106.774 233.944 105.975 235.526 104.678C236.096 104.188 236.63 103.667 237.124 103.118C237.028 103.279 236.921 103.435 236.804 103.585C236.671 103.771 236.521 103.948 236.357 104.115C236.148 104.358 235.918 104.588 235.669 104.802C234.091 106.167 232.014 107.022 229.788 107.221C228.133 107.376 226.46 107.169 224.923 106.619C223.386 106.068 222.036 105.193 220.998 104.073C220.393 103.432 219.906 102.716 219.551 101.949C219.165 101.155 218.93 100.313 218.856 99.4544C218.669 97.6354 219.169 95.813 220.28 94.257C221.391 92.7009 223.055 91.4939 225.025 90.8145C225.949 90.4826 226.928 90.2807 227.926 90.2165C228.883 90.1385 229.848 90.1895 230.787 90.3677C232.53 90.681 234.142 91.3934 235.454 92.4298C236.849 93.5253 237.848 94.9438 238.33 96.5153C238.812 98.0868 238.757 99.7445 238.171 101.29C238.068 101.575 237.94 101.853 237.787 102.121C237.691 102.321 237.576 102.514 237.443 102.699C237.343 102.857 237.225 103.006 237.092 103.145Z" fill="#263238"/>
<path d="M221.988 96.4989C221.946 96.115 222.024 95.7284 222.212 95.3785C222.584 94.5014 223.227 93.7282 224.072 93.1421C224.917 92.5559 225.931 92.1789 227.007 92.0518C227.443 91.9667 227.897 91.9809 228.325 92.093C227.908 92.1876 227.483 92.2588 227.055 92.3061C226.062 92.493 225.134 92.8769 224.345 93.427C223.555 93.9772 222.926 94.6784 222.508 95.4747C222.156 96.0865 222.052 96.5058 221.988 96.4989Z" fill="white"/>
<path d="M223.036 101.881C222.98 101.963 222.236 101.558 221.885 100.726C221.745 100.492 221.672 100.233 221.672 99.97C221.672 99.707 221.745 99.4479 221.885 99.2139C222.005 99.2139 221.957 99.9012 222.284 100.589C222.612 101.276 223.107 101.798 223.036 101.881Z" fill="white"/>
<path d="M32.4489 135.406L30.0515 136.444L13.7017 108.428C13.6221 108.292 13.5744 108.144 13.5615 107.993C13.5485 107.841 13.5705 107.689 13.6262 107.544C13.6819 107.4 13.7702 107.267 13.886 107.152C14.0018 107.037 14.1429 106.943 14.3011 106.875C14.4589 106.806 14.631 106.765 14.8073 106.754C14.9836 106.743 15.1608 106.762 15.3286 106.81C15.4964 106.858 15.6516 106.934 15.7851 107.033C15.9187 107.133 16.0281 107.254 16.1071 107.39L32.4489 135.406Z" fill="#CAC6C6"/>
<path d="M16.5306 108.779L26.048 104.655C26.1455 104.613 26.2196 104.539 26.2541 104.45C26.2886 104.361 26.2806 104.264 26.2318 104.18C26.1831 104.096 26.0976 104.033 25.9942 104.003C25.8908 103.973 25.7779 103.98 25.6804 104.022L16.155 108.146C16.0586 108.189 15.9859 108.263 15.9529 108.352C15.92 108.441 15.9294 108.538 15.9792 108.62C16.029 108.703 16.1151 108.766 16.2185 108.794C16.3219 108.823 16.4342 108.815 16.5306 108.772V108.779Z" fill="#CAC6C6"/>
<path d="M17.5615 110.552L27.0789 106.428C27.1763 106.386 27.2505 106.312 27.2849 106.224C27.3194 106.135 27.3114 106.038 27.2627 105.954C27.2139 105.87 27.1284 105.806 27.025 105.776C26.9216 105.747 26.8088 105.754 26.7113 105.796L17.1939 109.92C17.0964 109.962 17.0222 110.035 16.9878 110.124C16.9533 110.213 16.9613 110.31 17.0101 110.394C17.0588 110.478 17.1443 110.541 17.2477 110.571C17.3511 110.601 17.464 110.594 17.5615 110.552Z" fill="#CAC6C6"/>
<path d="M18.5922 112.325L28.1096 108.201C28.2071 108.159 28.2812 108.086 28.3157 107.997C28.3502 107.908 28.3422 107.811 28.2934 107.727C28.2447 107.643 28.1592 107.579 28.0558 107.55C27.9524 107.52 27.8395 107.527 27.742 107.569L18.2246 111.693C18.1763 111.714 18.1333 111.742 18.0979 111.777C18.0626 111.813 18.0356 111.853 18.0185 111.897C18.0015 111.941 17.9946 111.988 17.9985 112.034C18.0023 112.08 18.0167 112.126 18.0408 112.167C18.065 112.209 18.0984 112.246 18.1391 112.276C18.1799 112.307 18.2272 112.33 18.2785 112.344C18.3297 112.359 18.3837 112.365 18.4375 112.362C18.4914 112.358 18.5439 112.346 18.5922 112.325Z" fill="#CAC6C6"/>
<path d="M19.6231 114.092L29.1485 109.968C29.246 109.926 29.3201 109.852 29.3546 109.763C29.389 109.674 29.381 109.577 29.3323 109.493C29.2835 109.41 29.198 109.346 29.0946 109.316C28.9912 109.287 28.8784 109.293 28.7809 109.335L19.2954 113.466C19.2019 113.51 19.1317 113.583 19.0999 113.67C19.068 113.757 19.077 113.851 19.1249 113.933C19.1729 114.015 19.256 114.077 19.3565 114.106C19.457 114.136 19.567 114.131 19.663 114.092H19.6231Z" fill="#CAC6C6"/>
<path d="M20.6539 115.865L30.1793 111.741C30.2767 111.699 30.3509 111.626 30.3853 111.537C30.4198 111.448 30.4118 111.351 30.363 111.267C30.3143 111.183 30.2288 111.119 30.1254 111.09C30.022 111.06 29.9092 111.067 29.8117 111.109L20.2863 115.233C20.1888 115.275 20.1146 115.348 20.0802 115.437C20.0457 115.526 20.0537 115.623 20.1025 115.707C20.1512 115.791 20.2367 115.855 20.3401 115.884C20.4435 115.914 20.5564 115.907 20.6539 115.865Z" fill="#CAC6C6"/>
<path d="M21.6929 117.638L31.2182 113.514C31.3157 113.473 31.3899 113.399 31.4243 113.31C31.4588 113.221 31.4508 113.124 31.402 113.04C31.3533 112.956 31.2678 112.893 31.1644 112.863C31.061 112.833 30.9482 112.84 30.8507 112.882L21.3253 117.006C21.2278 117.048 21.1536 117.122 21.1192 117.211C21.0847 117.299 21.0927 117.397 21.1415 117.48C21.1902 117.564 21.2757 117.628 21.3791 117.658C21.4825 117.687 21.5954 117.68 21.6929 117.638Z" fill="#CAC6C6"/>
<path d="M22.7157 119.377L32.2411 115.253C32.3386 115.211 32.4127 115.138 32.4472 115.049C32.4817 114.96 32.4736 114.863 32.4249 114.779C32.3761 114.695 32.2907 114.632 32.1873 114.602C32.0839 114.572 31.971 114.579 31.8735 114.621L22.3481 118.745C22.2546 118.788 22.1844 118.862 22.1525 118.949C22.1207 119.036 22.1297 119.13 22.1776 119.212C22.2256 119.293 22.3086 119.356 22.4091 119.385C22.5097 119.415 22.6197 119.41 22.7157 119.371V119.377Z" fill="#CAC6C6"/>
<path d="M23.7466 121.178L33.272 117.054C33.3695 117.012 33.4436 116.939 33.4781 116.85C33.5126 116.761 33.5046 116.664 33.4558 116.58C33.4071 116.496 33.3216 116.432 33.2182 116.403C33.1148 116.373 33.0019 116.38 32.9044 116.422L23.379 120.546C23.3308 120.567 23.2877 120.595 23.2524 120.631C23.217 120.666 23.19 120.706 23.1729 120.75C23.1559 120.794 23.1491 120.841 23.1529 120.887C23.1567 120.934 23.1711 120.979 23.1952 121.02C23.2194 121.062 23.2528 121.099 23.2936 121.129C23.3343 121.16 23.3817 121.183 23.4329 121.197C23.4841 121.212 23.5381 121.218 23.592 121.215C23.6458 121.211 23.6984 121.199 23.7466 121.178Z" fill="#CAC6C6"/>
<path d="M24.7774 122.952L34.3028 118.828C34.4003 118.786 34.4744 118.712 34.5089 118.623C34.5433 118.534 34.5353 118.437 34.4866 118.353C34.4378 118.269 34.3524 118.206 34.249 118.176C34.1455 118.146 34.0327 118.153 33.9352 118.195L24.4098 122.319C24.3123 122.361 24.2382 122.435 24.2037 122.524C24.1692 122.613 24.1773 122.71 24.226 122.794C24.2747 122.877 24.3602 122.941 24.4636 122.971C24.567 123 24.6799 122.994 24.7774 122.952Z" fill="#CAC6C6"/>
<path d="M25.8163 124.718L35.3337 120.594C35.4312 120.552 35.5053 120.479 35.5398 120.39C35.5742 120.301 35.5662 120.204 35.5175 120.12C35.4687 120.036 35.3833 119.972 35.2799 119.942C35.1764 119.913 35.0636 119.92 34.9661 119.962L25.4487 124.086C25.3551 124.129 25.285 124.202 25.2531 124.289C25.2213 124.376 25.2303 124.471 25.2782 124.552C25.3261 124.634 25.4092 124.696 25.5097 124.726C25.6102 124.756 25.7202 124.75 25.8163 124.711V124.718Z" fill="#CAC6C6"/>
<path d="M26.8071 126.423L36.3245 122.299C36.422 122.257 36.4961 122.183 36.5306 122.094C36.5651 122.005 36.5571 121.908 36.5083 121.824C36.4596 121.74 36.3741 121.677 36.2707 121.647C36.1673 121.617 36.0544 121.624 35.9569 121.666L26.4395 125.79C26.342 125.832 26.2679 125.906 26.2334 125.995C26.199 126.084 26.207 126.181 26.2557 126.265C26.3045 126.348 26.3899 126.412 26.4934 126.442C26.5968 126.471 26.7096 126.465 26.8071 126.423Z" fill="#CAC6C6"/>
<path d="M27.7981 128.127L37.3235 124.003C37.421 123.961 37.4951 123.888 37.5296 123.799C37.564 123.71 37.556 123.613 37.5073 123.529C37.4585 123.445 37.3731 123.381 37.2696 123.352C37.1662 123.322 37.0534 123.329 36.9559 123.371L27.4305 127.495C27.333 127.537 27.2589 127.61 27.2244 127.699C27.1899 127.788 27.1979 127.885 27.2467 127.969C27.2954 128.053 27.3809 128.117 27.4843 128.146C27.5877 128.176 27.7006 128.169 27.7981 128.127Z" fill="#CAC6C6"/>
<path d="M28.7889 129.832L38.3143 125.708C38.4118 125.666 38.4859 125.592 38.5204 125.503C38.5548 125.414 38.5468 125.317 38.4981 125.234C38.4493 125.15 38.3638 125.086 38.2604 125.056C38.157 125.027 38.0442 125.034 37.9467 125.075L28.4213 129.199C28.3238 129.241 28.2496 129.315 28.2152 129.404C28.1807 129.493 28.1887 129.59 28.2375 129.674C28.2862 129.758 28.3717 129.821 28.4751 129.851C28.5785 129.881 28.6914 129.874 28.7889 129.832Z" fill="#CAC6C6"/>
<path d="M29.7798 131.536L39.3052 127.412C39.4027 127.371 39.4769 127.297 39.5113 127.208C39.5458 127.119 39.5378 127.022 39.489 126.938C39.4403 126.854 39.3548 126.791 39.2514 126.761C39.148 126.731 39.0351 126.738 38.9376 126.78L29.4122 130.904C29.3148 130.946 29.2406 131.02 29.2061 131.109C29.1717 131.197 29.1797 131.295 29.2284 131.378C29.2772 131.462 29.3627 131.526 29.4661 131.556C29.5695 131.585 29.6823 131.578 29.7798 131.536Z" fill="#CAC6C6"/>
<path d="M48.527 165.106C47.9972 165.337 47.4194 165.475 46.8271 165.512C46.2348 165.55 45.6398 165.486 45.0765 165.324C44.5131 165.162 43.9927 164.906 43.5452 164.57C43.0978 164.234 42.7323 163.825 42.4698 163.367L27.2867 137.248L35.3257 133.812L50.5088 159.931C51.0431 160.843 51.1344 161.901 50.7629 162.871C50.3913 163.841 49.5871 164.645 48.527 165.106Z" fill="#FF725E"/>
<path d="M287.126 167.163C289.388 162.963 285.232 157.726 283.722 155.918L284.913 151.326L290.067 132.39C292.336 131.304 298.681 128.08 298.705 123.455C298.729 118.829 296.012 117.956 293.759 117.427C291.505 116.897 287.142 117.832 287.142 117.832C287.142 117.832 283.618 115.53 281.317 115.193C279.015 114.856 276.162 114.567 273.861 118.843C271.56 123.118 275.755 128.287 277.265 130.094L273.477 144.061L270.992 153.306C268.731 154.392 262.386 157.616 262.362 162.241C262.338 166.867 265.055 167.74 267.308 168.262C269.562 168.785 273.885 168.001 273.885 168.001C273.885 168.001 277.369 170.441 279.678 170.785C281.988 171.129 284.841 171.445 287.126 167.163Z" fill="#FFB677"/>
<path d="M276.186 117.853C276.413 117.468 276.758 117.145 277.185 116.918C277.621 116.645 278.103 116.431 278.615 116.286C279.248 116.109 279.908 116.016 280.573 116.011C281.235 116.02 281.892 116.113 282.523 116.286C283.034 116.436 283.516 116.652 283.953 116.925C284.379 117.15 284.723 117.474 284.944 117.86C284.888 117.901 284.529 117.53 283.794 117.138C283.359 116.909 282.891 116.728 282.403 116.602C281.808 116.454 281.193 116.375 280.573 116.368C279.952 116.376 279.334 116.452 278.735 116.595C278.247 116.722 277.78 116.902 277.345 117.131C276.61 117.523 276.25 117.894 276.186 117.853Z" fill="#263238"/>
<path d="M295.884 119.502C295.404 119.381 294.936 119.224 294.486 119.035C293.39 118.654 292.223 118.447 291.042 118.423C289.863 118.414 288.703 118.68 287.686 119.193C286.886 119.599 286.543 119.984 286.495 119.942C286.447 119.901 286.751 119.468 287.526 118.98C288.561 118.372 289.788 118.053 291.042 118.066C292.278 118.086 293.494 118.337 294.606 118.801C295.083 118.958 295.518 119.196 295.884 119.502Z" fill="#263238"/>
<path d="M295.709 21.0972C295.437 20.7948 251.438 59.5058 251.438 59.5058C250.004 58.6798 248.265 58.3399 246.556 58.5517C244.848 58.7636 243.291 59.5121 242.186 60.6529C241.082 61.7937 240.507 63.246 240.574 64.7296C240.64 66.2132 241.343 67.6231 242.547 68.6871C243.751 69.7512 245.37 70.3942 247.093 70.492C248.815 70.5898 250.519 70.1354 251.875 69.2167C253.231 68.2979 254.143 66.9798 254.436 65.5166C254.729 64.0534 254.381 62.5487 253.46 61.2929C254.954 59.9182 266.374 49.6081 271.16 50.5154C271.176 50.5292 298.13 23.8053 295.709 21.0972ZM251.758 67.1078C251.161 67.8163 250.332 68.3565 249.378 68.6603C248.424 68.964 247.386 69.0176 246.397 68.8143C245.407 68.611 244.51 68.16 243.818 67.5181C243.126 66.8763 242.671 66.0725 242.511 65.2083C242.35 64.3441 242.49 63.4583 242.915 62.6628C243.339 61.8674 244.028 61.198 244.895 60.7393C245.761 60.2805 246.766 60.053 247.783 60.0855C248.8 60.118 249.783 60.409 250.607 60.9218C251.155 61.2631 251.619 61.6942 251.973 62.1902C252.327 62.6862 252.563 63.2373 252.668 63.8121C252.774 64.3868 252.746 64.9738 252.587 65.5394C252.428 66.105 252.141 66.638 251.742 67.1078H251.758Z" fill="#C1C1C1"/>
<path opacity="0.3" d="M272.879 40.707L275.364 42.6522C275.364 42.6522 294.91 23.5648 295.709 21.0972C295.484 21.2161 295.279 21.3619 295.102 21.5302L293.304 23.0149L288.509 27.1389L272.879 40.707Z" fill="black"/>
<path d="M267.013 48.2884C270.913 50.8316 269.322 64.9908 269.091 66.8466C267.383 67.066 265.831 67.8214 264.733 68.9672C263.635 70.1129 263.07 71.5677 263.145 73.0511C263.221 74.5344 263.932 75.9411 265.143 76.9998C266.353 78.0586 267.976 78.6943 269.699 78.7844C271.422 78.8744 273.123 78.4125 274.473 77.4876C275.824 76.5627 276.728 75.2405 277.012 73.7759C277.296 72.3114 276.939 70.8083 276.01 69.5566C275.082 68.305 273.647 67.3934 271.984 66.9978C271.984 66.9978 277.298 13.0553 276.85 13.0759C272.918 13.2753 267.013 48.2884 267.013 48.2884ZM271.312 68.4825C272.303 68.6839 273.201 69.1333 273.895 69.774C274.588 70.4147 275.045 71.2178 275.208 72.0819C275.371 72.9459 275.232 73.8321 274.81 74.6284C274.387 75.4247 273.7 76.0953 272.834 76.5556C271.968 77.0158 270.963 77.2449 269.946 77.2139C268.929 77.183 267.946 76.8934 267.12 76.3817C266.294 75.87 265.663 75.1592 265.307 74.3393C264.951 73.5193 264.886 72.6269 265.119 71.7749C265.274 71.2088 265.557 70.6746 265.953 70.2027C266.348 69.7309 266.847 69.3306 267.423 69.0249C267.998 68.7191 268.637 68.5139 269.305 68.4208C269.972 68.3277 270.654 68.3487 271.312 68.4825Z" fill="#E0E0E0"/>
<path d="M271.312 68.4826C271.312 68.5238 270.865 68.4138 270.058 68.4413C268.92 68.48 267.829 68.8426 266.957 69.4723C266.321 69.9334 265.828 70.5237 265.524 71.1898C265.22 71.8559 265.114 72.5768 265.215 73.2871C265.33 74.1234 265.734 74.911 266.374 75.5484C267.053 76.238 267.971 76.7223 268.994 76.9301C270.016 77.1379 271.089 77.0584 272.055 76.7032C272.96 76.3816 273.732 75.8331 274.269 75.1291C274.729 74.5328 275.009 73.847 275.083 73.134C275.157 72.421 275.023 71.7033 274.692 71.0463C274.245 70.1464 273.46 69.4012 272.463 68.9293C271.752 68.5994 271.304 68.5238 271.312 68.4826C271.424 68.4825 271.535 68.4987 271.64 68.5307C271.951 68.5869 272.252 68.6794 272.535 68.8056C273.6 69.2557 274.448 70.0119 274.932 70.9432C275.348 71.7231 275.5 72.5877 275.372 73.4384C275.244 74.2892 274.84 75.0919 274.207 75.7549C273.575 76.418 272.738 76.9147 271.793 77.1885C270.848 77.4624 269.832 77.5022 268.862 77.3036C267.891 77.105 267.006 76.6759 266.305 76.0652C265.605 75.4545 265.118 74.6867 264.9 73.8496C264.682 73.0124 264.743 72.1395 265.074 71.3303C265.405 70.5211 265.994 69.8083 266.773 69.273C267.7 68.6253 268.863 68.2797 270.058 68.297C270.375 68.2944 270.692 68.3267 271.001 68.3932C271.224 68.4413 271.32 68.4688 271.312 68.4826Z" fill="#263238"/>
<path d="M267.013 48.2884C267.013 48.2884 267.013 48.1647 267.013 47.9173L267.181 46.8313C267.349 45.8621 267.597 44.4531 267.908 42.6522C268.571 39.0299 269.546 33.7855 271.105 27.352C271.896 23.8362 272.899 20.3582 274.109 16.9319C274.454 15.9868 274.886 15.0673 275.404 14.1826C275.543 13.954 275.703 13.7356 275.883 13.5296C276.065 13.296 276.316 13.1085 276.611 12.9866C276.611 12.9866 276.698 12.9866 276.738 12.9522H276.81C276.85 12.9522 276.81 12.9522 276.906 12.9522C277.002 12.9522 277.01 13.0691 277.042 13.0828C277.045 13.0965 277.045 13.1104 277.042 13.124V13.6739V14.4437C276.914 16.5058 276.738 18.609 276.563 20.7673C275.827 29.4209 274.964 38.92 273.973 48.8933C273.366 55.1756 272.767 61.2654 272.207 67.0391V67.1903H272.024L272.072 66.8466C273.054 67.0844 273.967 67.4981 274.751 68.0608C275.535 68.6235 276.171 69.3223 276.619 70.1115C277.264 71.5369 277.272 73.1175 276.642 74.5479C276.012 75.9784 274.788 77.1573 273.207 77.8571C271.625 78.5569 269.799 78.7279 268.079 78.337C266.36 77.9462 264.87 77.0213 263.897 75.7408C263.139 74.5399 262.868 73.1559 263.127 71.8078C263.386 70.4597 264.16 69.2243 265.327 68.2969C266.378 67.4655 267.695 66.9244 269.107 66.7435L268.987 66.8535C269.674 60.9355 269.69 56.1379 269.147 52.9005C268.989 51.6559 268.59 50.443 267.964 49.3126C267.72 48.9351 267.41 48.5921 267.045 48.2953L267.341 48.5084C267.612 48.7394 267.846 49.0006 268.036 49.2851C268.699 50.4103 269.126 51.6272 269.299 52.8799C269.89 56.131 269.922 60.9424 269.299 66.8741V66.9704H269.195C267.841 67.1517 266.581 67.6757 265.575 68.4756C264.451 69.3518 263.698 70.5245 263.433 71.8091C263.169 73.0937 263.408 74.4175 264.114 75.5724C264.82 76.7272 265.952 77.6475 267.332 78.1886C268.712 78.7297 270.262 78.8609 271.738 78.5615C273.215 78.2622 274.533 77.5493 275.487 76.5349C276.441 75.5206 276.976 74.2623 277.008 72.958C277.04 71.6537 276.566 70.3772 275.663 69.3294C274.759 68.2816 273.476 67.5219 272.016 67.1697L270.681 66.8535H272.064L271.872 67.0116C272.423 61.2448 273.015 55.155 273.622 48.8727C274.581 38.8993 275.484 29.4003 276.243 20.7535C276.427 18.5953 276.611 16.4851 276.738 14.4369L276.778 13.6739V13.1722L276.938 13.1309C276.938 13.4059 276.938 13.2134 276.938 13.2684H276.818H276.738C276.288 13.5279 275.933 13.8928 275.716 14.32C275.2 15.1935 274.767 16.1015 274.421 17.035C273.203 20.4506 272.187 23.9169 271.376 27.4207C269.826 33.8336 268.803 39.0712 268.092 42.6866C267.748 44.4874 267.477 45.8896 267.293 46.8519C267.197 47.3193 267.133 47.6836 267.077 47.9379C267.021 48.1922 267.013 48.2884 267.013 48.2884Z" fill="#263238"/>
<path opacity="0.2" d="M274.549 40.762L271.224 40.4046C271.224 40.4046 275.22 15.2067 276.898 13.069C276.941 13.2967 276.941 13.5287 276.898 13.7564L276.77 15.894L276.291 21.6952L274.549 40.762Z" fill="black"/>
<path d="M272.383 47.3468C272.174 47.5916 271.884 47.7773 271.552 47.8803C271.219 47.9833 270.858 47.9989 270.515 47.9251C270.173 47.8513 269.863 47.6914 269.626 47.4659C269.389 47.2403 269.235 46.9592 269.185 46.6583C269.134 46.3575 269.188 46.0504 269.341 45.7762C269.493 45.502 269.737 45.273 270.042 45.1184C270.346 44.9638 270.697 44.8905 271.05 44.9079C271.403 44.9253 271.742 45.0325 272.024 45.216C272.397 45.4592 272.644 45.8192 272.712 46.218C272.779 46.6167 272.661 47.0223 272.383 47.3468Z" fill="#E0E0E0"/>
<path d="M272.383 47.3468C272.383 47.3468 272.439 47.2162 272.519 46.9894C272.631 46.6806 272.631 46.3496 272.519 46.0409C272.43 45.8235 272.281 45.628 272.084 45.4712C271.888 45.3143 271.651 45.2008 271.392 45.1404C271.08 45.0674 270.749 45.0775 270.444 45.1696C270.139 45.2616 269.873 45.4312 269.682 45.6559C269.492 45.8819 269.387 46.1521 269.38 46.4307C269.372 46.7094 269.464 46.9833 269.642 47.2162C269.787 47.4108 269.987 47.5707 270.223 47.6813C270.459 47.7918 270.724 47.8493 270.992 47.8486C271.37 47.8555 271.741 47.7566 272.047 47.5668C272.263 47.4362 272.367 47.3331 272.399 47.3468C272.431 47.3606 272.359 47.4911 272.151 47.6767C271.84 47.9339 271.431 48.0853 271 48.1029C270.676 48.1201 270.352 48.066 270.058 47.9457C269.765 47.8255 269.511 47.6431 269.322 47.4155C269.09 47.1293 268.965 46.7886 268.965 46.4395C268.965 46.0904 269.09 45.7497 269.322 45.4635C269.562 45.1809 269.897 44.969 270.282 44.857C270.667 44.745 271.082 44.7384 271.472 44.838C271.793 44.909 272.086 45.051 272.323 45.25C272.56 45.449 272.732 45.698 272.822 45.9721C272.935 46.3302 272.892 46.7112 272.703 47.0444C272.527 47.2781 272.399 47.3606 272.383 47.3468Z" fill="#263238"/>
<path d="M272.271 46.4876C272.271 46.5838 271.64 46.5219 270.928 46.5906C270.217 46.6594 269.642 46.8312 269.586 46.7419C269.53 46.6525 270.073 46.3157 270.881 46.2401C271.688 46.1645 272.311 46.3982 272.271 46.4876Z" fill="#263238"/>
<path d="M271.304 47.6561C271.184 47.6561 271.136 47.1199 270.969 46.4944C270.801 45.869 270.585 45.3741 270.689 45.3191C270.793 45.2641 271.2 45.7315 271.376 46.412C271.552 47.0924 271.416 47.6698 271.304 47.6561Z" fill="#263238"/>
</g>
<defs>
<linearGradient id="paint0_linear_5_69" x1="152.034" y1="0" x2="152.034" y2="228.104" gradientUnits="userSpaceOnUse">
<stop stop-color="#545197"/>
<stop offset="1" stop-color="#5F6CAF"/>
</linearGradient>
</defs>
</svg>
