<svg width="464" height="463" viewBox="0 0 464 463" fill="none" xmlns="http://www.w3.org/2000/svg">
<path d="M133.506 125.383C132.804 124.207 131.777 123.293 130.568 122.767C129.423 122.197 128.14 122.021 126.896 122.265C126.253 122.428 125.646 122.727 125.111 123.144C124.577 123.561 124.125 124.087 123.783 124.693C123.371 125.423 123.133 126.249 123.088 127.1C122.504 126.653 121.835 126.35 121.129 126.21C120.47 126.088 119.795 126.109 119.144 126.273C118.493 126.437 117.879 126.739 117.34 127.163C116.347 128.003 115.622 129.151 115.264 130.449C114.859 131.757 114.838 133.167 115.206 134.488C115.706 136.169 116.693 137.635 118.026 138.675C119.487 139.663 121.149 140.262 122.872 140.422C125.702 140.778 129.384 141.155 129.384 141.155C129.384 141.155 131.019 138.015 132.634 135.472C133.658 133.98 134.329 132.246 134.593 130.417C134.747 128.658 134.366 126.893 133.506 125.383Z" fill="#E0E0E0"/>
<path d="M341.847 207.014C341.603 205.658 340.974 204.416 340.045 203.456C339.174 202.473 338.037 201.807 336.794 201.551C335.736 201.367 334.65 201.559 333.704 202.098C332.758 202.636 332.003 203.492 331.556 204.534C331.164 203.889 330.642 203.345 330.028 202.943C329.458 202.57 328.823 202.325 328.161 202.225C327.499 202.124 326.825 202.169 326.18 202.357C324.967 202.742 323.898 203.526 323.125 204.597C322.3 205.659 321.801 206.967 321.696 208.344C321.584 210.098 322.002 211.845 322.89 213.325C323.917 214.815 325.259 216.024 326.807 216.852C329.314 218.286 332.623 220.065 332.623 220.065C332.623 220.065 335.228 217.752 337.587 216.046C339.05 215.053 340.268 213.7 341.142 212.101C341.88 210.53 342.127 208.747 341.847 207.014Z" fill="#E0E0E0"/>
<path d="M255.604 54.961C255.617 53.1862 255.125 51.4492 254.194 49.9794C253.334 48.519 252.072 47.3785 250.581 46.7142C249.293 46.1887 247.878 46.1315 246.556 46.5514C245.234 46.9714 244.078 47.8451 243.267 49.0375C242.926 48.1156 242.398 47.2863 241.72 46.6095C241.088 45.988 240.345 45.5091 239.536 45.2016C238.727 44.8941 237.868 44.7643 237.01 44.8199C235.392 44.9801 233.861 45.6792 232.634 46.8188C231.341 47.9305 230.398 49.439 229.931 51.1411C229.375 53.3225 229.488 55.6373 230.254 57.7448C231.187 59.9 232.587 61.787 234.337 63.2497C237.167 65.7405 240.898 68.8906 240.898 68.8906C240.898 68.8906 244.736 66.6824 248.124 65.1753C250.195 64.3177 252.045 62.9434 253.519 61.1671C254.821 59.3926 255.553 57.2159 255.604 54.961Z" fill="#E0E0E0"/>
<path d="M395.895 132.291C395.735 128.536 394.501 124.923 392.361 121.94C390.364 118.94 387.54 116.682 384.283 115.483C382.544 114.905 380.715 114.71 378.904 114.91C377.093 115.11 375.339 115.7 373.747 116.645C371.848 117.778 370.238 119.391 369.057 121.344C367.879 118.604 365.916 116.336 363.451 114.868C360.987 113.401 358.149 112.81 355.349 113.181C351.942 113.729 348.781 115.405 346.312 117.974C343.699 120.485 341.873 123.796 341.083 127.456C340.136 132.158 340.634 137.062 342.503 141.438C344.51 145.875 348.055 149.653 351.766 152.573C358.022 157.481 366.286 163.666 366.286 163.666C366.286 163.666 374.119 158.496 381.14 154.886C385.291 152.73 389.414 149.653 392.136 145.728C394.707 141.797 396.025 137.085 395.895 132.291Z" fill="#F5EFE9"/>
<path d="M111.847 34.8986C110.3 31.5268 107.822 28.7434 104.748 26.9239C101.807 25.0226 98.3838 24.1517 94.9568 24.4331C92.0419 24.7446 89.3046 26.0756 87.1696 28.2195C85.0345 30.3634 83.621 33.2004 83.1484 36.2906C81.0444 34.292 78.4007 33.0599 75.5988 32.7721C72.797 32.4843 69.9821 33.1557 67.5605 34.6893C64.6384 36.6376 62.3639 39.5191 61.059 42.9257C59.5982 46.3463 59.1572 50.1645 59.7959 53.8621C60.6797 58.5566 62.9563 62.8213 66.2876 66.0231C69.7831 69.2464 74.4341 71.193 78.9381 72.3024C86.5068 74.1338 96.3864 76.3002 96.3864 76.3002C96.3864 76.3002 101.674 68.179 106.736 61.8997C109.742 58.153 112.385 53.6319 113.404 48.8178C114.298 44.1198 113.752 39.2389 111.847 34.8986Z" fill="#F5EFE9"/>
<path d="M323.429 16.0817C323.179 12.6908 321.959 9.46439 319.934 6.84062C318.05 4.18533 315.433 2.23027 312.453 1.25204C309.906 0.484144 307.193 0.634981 304.735 1.6812C302.276 2.72742 300.209 4.61068 298.853 7.03947C298.051 5.33866 296.908 3.84836 295.504 2.67535C294.193 1.60926 292.695 0.836461 291.098 0.403114C289.502 -0.0302333 287.84 -0.115243 286.212 0.153161C283.146 0.758874 280.335 2.37663 278.173 4.77891C275.879 7.13704 274.317 10.1909 273.699 13.5281C272.979 17.7978 273.566 22.2017 275.373 26.0867C277.498 30.044 280.48 33.3994 284.068 35.8719C289.864 40.0581 297.511 45.4479 297.511 45.4479C297.511 45.4479 304.493 40.5186 310.71 37.0755C314.538 35.0635 317.862 32.1033 320.404 28.4414C322.633 24.7784 323.695 20.4426 323.429 16.0817Z" fill="#F5EFE9"/>
<path d="M88.4454 243.016C88.3268 241.43 87.7561 239.922 86.8102 238.694C85.9291 237.453 84.7068 236.538 83.3147 236.077C82.1276 235.717 80.8626 235.786 79.7156 236.272C78.5686 236.758 77.6036 237.635 76.9699 238.767C76.4357 237.634 75.5795 236.71 74.5241 236.13C73.4687 235.549 72.2683 235.34 71.0951 235.533C69.647 235.814 68.32 236.58 67.3058 237.72C66.2353 238.82 65.5072 240.245 65.2202 241.802C64.8852 243.795 65.1599 245.85 66.0035 247.662C66.9932 249.511 68.3833 251.08 70.0572 252.236C72.7694 254.214 76.3432 256.705 76.3432 256.705C76.3432 256.705 79.594 254.402 82.502 252.77C84.2908 251.83 85.8447 250.449 87.0354 248.74C88.0631 247.041 88.557 245.036 88.4454 243.016Z" fill="#F5EFE9"/>
<path d="M189.199 12.3037C189.255 10.4197 188.766 8.56311 187.799 6.9872C186.913 5.40752 185.583 4.16623 184 3.4394C183.151 3.08117 182.243 2.9104 181.331 2.93738C180.419 2.96436 179.522 3.18853 178.693 3.59638C177.698 4.08266 176.831 4.82305 176.167 5.75227C175.822 4.76474 175.277 3.87116 174.571 3.1359C173.91 2.46214 173.129 1.93782 172.274 1.59435C171.42 1.25088 170.509 1.09532 169.597 1.13698C167.877 1.27851 166.242 1.98804 164.916 3.1673C163.526 4.3204 162.501 5.90229 161.979 7.69886C161.343 10.0001 161.419 12.459 162.194 14.7108C163.141 17.0244 164.595 19.0599 166.434 20.6447C169.372 23.3553 173.288 26.7775 173.288 26.7775C173.288 26.7775 177.41 24.5065 181.023 22.989C183.247 22.1111 185.242 20.6755 186.839 18.8028C188.255 16.9611 189.082 14.6837 189.199 12.3037Z" fill="#F5EFE9"/>
<path d="M70.1748 156.686C70.2658 153.601 69.4658 150.561 67.8836 147.978C66.4157 145.382 64.2196 143.346 61.6073 142.16C59.3899 141.217 56.9446 141.078 54.6458 141.762C52.347 142.446 50.3213 143.917 48.8785 145.948C48.0652 143.63 46.5833 141.649 44.6472 140.291C42.7111 138.933 40.421 138.268 38.108 138.392C35.2874 138.62 32.6037 139.783 30.4315 141.72C28.1502 143.607 26.4654 146.197 25.6044 149.14C24.5633 152.919 24.6869 156.955 25.9569 160.652C27.5133 164.441 29.8932 167.778 32.899 170.385C37.7947 174.823 44.1493 180.432 44.1493 180.432C44.1493 180.432 50.8956 176.717 56.8193 174.216C60.459 172.806 63.7293 170.484 66.3562 167.444C68.6817 164.392 70.0212 160.618 70.1748 156.686Z" fill="#F5EFE9"/>
<path d="M436.725 190.626C436.781 188.661 436.272 186.725 435.267 185.079C434.332 183.434 432.943 182.139 431.291 181.374C429.874 180.76 428.307 180.665 426.833 181.102C425.36 181.539 424.063 182.485 423.145 183.792C422.631 182.313 421.69 181.049 420.457 180.183C419.224 179.317 417.764 178.894 416.291 178.977C414.494 179.107 412.78 179.839 411.395 181.071C409.942 182.274 408.869 183.925 408.321 185.801C407.652 188.205 407.731 190.775 408.546 193.127C409.533 195.54 411.048 197.664 412.962 199.322C416.046 202.148 420.129 205.717 420.129 205.717C420.129 205.717 424.418 203.352 428.197 201.761C430.512 200.859 432.593 199.381 434.268 197.449C435.753 195.517 436.615 193.124 436.725 190.626Z" fill="#F5EFE9"/>
<path d="M371.642 60.4868C371.694 58.7622 371.246 57.0625 370.359 55.6204C369.55 54.18 368.338 53.0485 366.893 52.3865C365.658 51.8514 364.292 51.7664 363.007 52.1448C361.722 52.5232 360.589 53.3438 359.785 54.4796C359.454 53.5924 358.942 52.7951 358.287 52.1458C357.686 51.5319 356.976 51.0541 356.199 50.7411C355.421 50.4282 354.593 50.2866 353.763 50.3248C352.193 50.4469 350.699 51.0951 349.494 52.1772C348.226 53.2259 347.289 54.6651 346.811 56.3006C346.228 58.3951 346.296 60.6354 347.007 62.6846C347.873 64.7899 349.195 66.6446 350.865 68.0953C353.557 70.5547 357.121 73.6839 357.121 73.6839C357.121 73.6839 360.862 71.5907 364.161 70.2302C366.183 69.4444 368 68.1525 369.459 66.4626C370.77 64.7742 371.536 62.6782 371.642 60.4868Z" fill="#F5EFE9"/>
<path d="M72.5151 406.707C83.2857 422.405 102.545 436.397 119.514 443.441C136.482 450.484 149.309 453.906 167.139 457.956C202.682 466.067 248.858 463.482 287.749 456.648C326.641 449.814 366.022 436.764 392.233 405.367L72.5151 406.707Z" fill="#EBEBEB"/>
<path d="M358.953 407.659L358.434 408.13C358.062 408.434 357.543 408.884 356.867 409.459C355.506 410.631 353.43 412.274 350.698 414.305C347.967 416.335 344.52 418.679 340.388 421.16C335.711 423.949 330.9 426.475 325.975 428.726C313.108 434.521 299.666 438.734 285.909 441.285C270.409 444.309 253.078 445.67 234.915 445.796C216.752 445.921 199.412 445.283 183.775 443.127C176.372 442.123 169.034 440.63 161.803 438.658C155.506 436.937 149.335 434.729 143.336 432.054C134.624 428.223 126.431 423.161 118.975 417.005C116.361 414.797 114.422 412.955 113.159 411.667L111.72 410.192C111.397 409.857 111.25 409.669 111.25 409.669L111.759 410.15L113.228 411.584C114.52 412.85 116.469 414.661 119.103 416.817C126.586 422.889 134.783 427.886 143.483 431.678C149.474 434.324 155.636 436.503 161.92 438.198C169.137 440.134 176.459 441.595 183.843 442.572C199.441 444.665 216.762 445.23 234.915 445.199C253.069 445.168 270.35 443.734 285.831 440.741C299.564 438.218 312.987 434.051 325.848 428.318C330.766 426.1 335.573 423.613 340.251 420.867C344.383 418.407 347.82 416.084 350.581 414.106C353.342 412.128 355.428 410.485 356.808 409.334L358.395 408.046C358.757 407.795 358.953 407.659 358.953 407.659Z" fill="white"/>
<path d="M297.022 405.168C297.022 405.168 296.943 405.252 296.757 405.399L295.964 406.016C295.269 406.56 294.202 407.314 292.802 408.245C288.82 410.821 284.621 412.99 280.259 414.723C273.785 417.285 267.082 419.13 260.255 420.228C251.899 421.564 243.461 422.221 235.013 422.196C226.572 422.316 218.132 421.932 209.732 421.045C202.855 420.31 196.086 418.694 189.571 416.231C185.179 414.545 181.005 412.274 177.146 409.47C175.795 408.423 174.796 407.596 174.13 407L173.396 406.299L173.151 406.058C173.249 406.113 173.341 406.179 173.425 406.257L174.199 406.916C174.874 407.492 175.892 408.298 177.253 409.292C181.13 412.005 185.299 414.208 189.669 415.854C196.172 418.246 202.916 419.813 209.761 420.521C218.147 421.378 226.57 421.749 234.993 421.631C243.414 421.657 251.825 421.017 260.157 419.716C266.961 418.644 273.646 416.842 280.112 414.336C284.469 412.654 288.674 410.552 292.674 408.057C294.084 407.167 295.171 406.445 295.886 405.964L296.708 405.388L297.022 405.168Z" fill="white"/>
<path d="M442.287 405.88C442.287 406.027 347.31 406.152 230.254 406.152C113.198 406.152 18.2021 406.027 18.2021 405.88C18.2021 405.734 113.12 405.608 230.254 405.608C347.389 405.608 442.287 405.723 442.287 405.88Z" fill="#263238"/>
<path d="M463.319 312.151C462.1 312.284 460.928 312.721 459.895 313.426C458.863 314.131 458 315.085 457.376 316.212C463.955 305.254 465.63 290.425 461.752 277.625C460.989 275.145 459.853 272.508 457.758 271.534C457.05 271.26 456.278 271.242 455.56 271.482C454.842 271.722 454.217 272.207 453.782 272.863C454.34 269.125 454.36 265.316 453.841 261.571C453.606 259.897 453.175 258.086 451.99 257.092C450.355 255.71 447.937 256.621 446.683 258.421C445.43 260.221 445.029 262.607 444.725 264.931C438.233 247.139 423.184 233.974 406.881 231.734C403.64 231.284 400.027 231.347 397.55 233.722C395.073 236.098 394.564 241.498 397.403 243.455C394.329 242.252 391.108 241.153 387.916 241.603C384.724 242.053 381.551 244.45 380.827 248.112C379.847 252.864 383.235 257.374 386.701 260.169C391.431 263.957 396.835 266.375 401.858 269.588C406.881 272.801 411.718 277.144 414.049 283.266C416.986 291.073 415.273 300.22 411.973 307.703C405.814 321.696 394.241 332.182 381.091 335.667L391.803 360.962C405.354 370.842 442.052 362.794 452.725 349.314C454.409 347.221 455.975 344.552 455.809 341.622C455.643 338.692 452.872 335.887 450.659 337.174C457.953 331.91 466.491 315.741 463.319 312.151Z" fill="#FF6B6C"/>
<g opacity="0.6">
<path d="M380.807 248.081C379.828 252.832 383.215 257.343 386.682 260.137C391.411 263.926 396.816 266.343 401.839 269.556C403.957 270.901 405.956 272.449 407.811 274.182C409.858 272.267 410.631 268.677 410.142 265.527C409.584 261.906 407.743 258.735 405.951 255.69C408.274 258.867 411.175 261.508 414.479 263.455C415.684 264.156 417.074 264.763 418.327 264.229C420.354 263.35 420.677 260.043 419.874 257.636C419.072 255.229 417.524 253.23 416.937 250.771C418.675 252.658 420.653 254.275 422.812 255.574C423.856 256.203 425.019 256.574 426.215 256.661C427.411 256.748 428.61 256.549 429.725 256.077C432.231 254.831 433.808 251.734 434.121 248.552C434.165 248.079 434.185 247.604 434.18 247.129C426.758 238.756 417.074 233.084 406.901 231.692C403.66 231.242 400.047 231.305 397.57 233.681C395.092 236.056 394.583 241.456 397.423 243.413C394.348 242.21 391.127 241.111 387.935 241.561C384.743 242.011 381.502 244.418 380.807 248.081Z" fill="white"/>
</g>
<path d="M376.89 300.607L347.869 283.863C347.869 283.863 330.156 273.198 321.226 263.926C305.374 247.464 301.643 233.168 301.643 233.168L216.067 275.155L198.687 281.047C200.861 290.77 201.184 309.158 207.019 327.964C208.635 333.197 213.403 338.011 213.619 336.263C213.785 334.809 213.619 337.226 213.619 337.226C216.644 345.766 220.14 356.849 230.509 364.562C238.274 377.121 254.87 384.3 261.655 388.445C271.692 394.567 309.78 406.581 309.78 406.581L339.399 408.999L413.637 346.028C413.637 346.028 409.202 318.524 376.89 300.607Z" fill="#FF6B6C"/>
<path d="M276.206 369.732C281.278 374.484 283.226 381.987 283.921 389.146C284.616 396.304 284.303 403.63 285.987 410.6C282.648 409.554 278.947 412.421 278.213 416.063C277.478 419.705 279.26 423.546 282.012 425.827C284.878 427.993 288.293 429.176 291.803 429.218C297.678 429.564 304.013 427.816 308.047 423.18C311.748 418.931 313.041 412.976 314.509 407.377C317.016 397.79 320.384 388.476 322.969 378.91C325.554 369.345 327.287 359.34 326.386 349.429L328.913 350.371C332.036 351.344 329.05 340.157 325.926 335.123" fill="#FF6B6C"/>
<path d="M325.907 335.123C326.157 335.481 326.386 335.855 326.592 336.243C327.203 337.373 327.745 338.544 328.218 339.749C328.983 341.683 329.586 343.686 330.019 345.735C330.152 346.362 330.247 346.999 330.303 347.64C330.394 348.338 330.358 349.049 330.195 349.733C330.153 349.934 330.059 350.119 329.924 350.266C329.789 350.414 329.619 350.519 329.432 350.57C329.241 350.607 329.045 350.607 328.854 350.57L328.355 350.382L326.318 349.638L326.514 349.461C326.943 354.408 326.824 359.393 326.161 364.311C325.33 370.294 324.056 376.198 322.352 381.966C320.6 388.246 318.436 394.745 316.36 401.673C315.312 405.127 314.402 408.716 313.423 412.358C312.533 416.138 310.927 419.682 308.703 422.771C305.615 426.415 301.38 428.717 296.807 429.239C294.625 429.56 292.415 429.588 290.227 429.323C288.084 429.092 285.994 428.469 284.049 427.481C282.149 426.499 280.534 424.983 279.378 423.096C278.239 421.274 277.705 419.096 277.86 416.911C278.213 412.578 282.374 409.229 286.046 410.359L285.782 410.631C284.303 404.247 284.372 398.219 284.039 392.987C283.899 388.46 283.184 383.975 281.914 379.654C281.091 376.879 279.804 374.287 278.115 372.003C277.672 371.404 277.194 370.834 276.685 370.297C276.343 369.942 276.167 369.732 276.167 369.732C276.92 370.385 277.608 371.118 278.223 371.92C279.96 374.189 281.288 376.783 282.139 379.57C283.451 383.912 284.192 388.427 284.342 392.987C284.705 398.219 284.675 404.247 286.154 410.537L286.242 410.924L285.889 410.82C282.531 409.773 278.575 412.913 278.281 416.974C278.136 419.05 278.65 421.119 279.74 422.845C280.852 424.653 282.406 426.101 284.235 427.031C286.127 427.992 288.161 428.595 290.247 428.81C292.392 429.075 294.56 429.047 296.699 428.726C301.184 428.22 305.335 425.957 308.351 422.374C310.528 419.338 312.101 415.859 312.972 412.149C313.951 408.538 314.842 404.917 315.91 401.464C317.966 394.525 320.179 387.995 321.951 381.778C323.665 376.035 324.952 370.156 325.799 364.196C326.478 359.312 326.626 354.36 326.24 349.44V349.188L326.465 349.272L328.501 350.036C328.805 350.199 329.141 350.279 329.481 350.266C329.618 350.224 329.741 350.141 329.838 350.029C329.935 349.916 330.001 349.778 330.029 349.628C330.184 348.986 330.224 348.318 330.146 347.66C330.091 347.031 330.002 346.406 329.882 345.787C329.468 343.75 328.892 341.754 328.159 339.822C327.708 338.617 327.195 337.439 326.622 336.295C326.426 335.918 326.269 335.636 326.161 335.416C326.067 335.328 325.981 335.23 325.907 335.123Z" fill="#263238"/>
<path d="M289.952 414.085C289.952 414.169 289.228 414.514 288.161 415.32C286.761 416.351 285.582 417.687 284.701 419.24C283.82 420.793 283.257 422.528 283.049 424.331C282.873 425.712 282.932 426.591 282.854 426.602C282.646 425.852 282.589 425.064 282.687 424.289C282.804 422.401 283.345 420.571 284.263 418.953C285.182 417.335 286.452 415.978 287.965 414.996C288.559 414.544 289.237 414.233 289.952 414.085Z" fill="#263238"/>
<path d="M297.267 414.587C297.315 414.661 296.562 415.173 295.563 416.23C294.253 417.589 293.228 419.23 292.557 421.045C291.895 422.867 291.595 424.816 291.676 426.769C291.744 428.266 291.96 429.187 291.881 429.208C291.546 428.45 291.356 427.628 291.323 426.79C291.124 424.771 291.383 422.731 292.079 420.842C292.774 418.952 293.885 417.27 295.318 415.937C295.875 415.35 296.538 414.891 297.267 414.587Z" fill="#263238"/>
<path d="M224.928 360.219C228.09 367.273 231.625 373.238 232.31 380.397C232.996 387.555 232.702 394.881 234.376 401.851C231.038 400.804 227.346 403.682 226.612 407.314C225.878 410.945 227.65 414.807 230.401 417.089C233.272 419.244 236.685 420.422 240.193 420.469C246.067 420.825 252.402 419.067 256.436 414.43C260.138 410.181 263.163 395.467 264.27 389.774" fill="#FF6B6C"/>
<path d="M264.289 389.774C264.298 389.878 264.298 389.983 264.289 390.088C264.25 390.318 264.201 390.621 264.142 390.998C263.996 391.794 263.78 392.976 263.467 394.483C262.624 398.734 261.545 402.928 260.236 407.042C259.815 408.35 259.257 409.69 258.708 411.071C258.097 412.52 257.259 413.847 256.231 414.996C253.866 417.439 250.925 419.15 247.722 419.946C244.194 420.87 240.523 420.98 236.952 420.27C235.06 419.909 233.242 419.201 231.576 418.177C229.844 417.108 228.416 415.556 227.444 413.687C226.722 412.319 226.313 410.788 226.25 409.219C226.183 407.661 226.573 406.121 227.366 404.813C228.132 403.551 229.219 402.549 230.499 401.924C231.119 401.623 231.78 401.429 232.458 401.349C233.132 401.294 233.811 401.361 234.465 401.547L234.161 401.861C232.722 395.697 232.751 389.763 232.438 384.551C232.364 382.091 232.102 379.641 231.655 377.226C231.211 375.176 230.598 373.173 229.824 371.239C228.414 367.702 227.062 364.96 226.22 363.097C225.79 362.145 225.457 361.423 225.241 360.92C225.143 360.69 225.065 360.502 225.006 360.345C224.948 360.188 224.928 360.156 224.938 360.146C224.98 360.204 225.016 360.268 225.045 360.334C225.114 360.481 225.202 360.659 225.32 360.878C225.564 361.402 225.917 362.113 226.357 362.972C227.248 364.845 228.639 367.524 230.098 371.072C230.915 373.016 231.57 375.033 232.056 377.1C232.52 379.514 232.799 381.964 232.888 384.426C233.241 389.659 233.241 395.561 234.67 401.642L234.778 402.092L234.367 401.956C231.978 401.192 229.217 402.646 227.797 405.012C227.103 406.277 226.746 407.721 226.765 409.188C226.784 410.654 227.178 412.087 227.904 413.332C228.828 415.11 230.18 416.592 231.821 417.622C233.434 418.617 235.197 419.304 237.03 419.653C240.516 420.346 244.099 420.246 247.546 419.36C250.672 418.6 253.548 416.951 255.869 414.587C256.871 413.477 257.688 412.192 258.287 410.788C258.869 409.493 259.385 408.166 259.834 406.812C261.174 402.693 262.305 398.501 263.222 394.253C263.548 392.774 263.803 391.623 263.986 390.799C264.064 390.423 264.133 390.13 264.182 389.899C264.215 389.855 264.251 389.813 264.289 389.774Z" fill="#263238"/>
<path d="M238.352 405.336C238.352 405.42 237.627 405.765 236.55 406.571C235.153 407.604 233.976 408.94 233.095 410.493C232.214 412.046 231.65 413.78 231.439 415.582C231.263 416.973 231.331 417.853 231.243 417.853C231.036 417.106 230.979 416.322 231.077 415.55C231.2 413.662 231.743 411.833 232.661 410.215C233.579 408.597 234.845 407.236 236.354 406.246C236.954 405.799 237.634 405.489 238.352 405.336Z" fill="#263238"/>
<path d="M245.685 405.88C245.685 405.953 244.99 406.456 243.982 407.513C242.68 408.883 241.657 410.525 240.976 412.337C240.317 414.157 240.02 416.103 240.104 418.052C240.163 419.559 240.388 420.469 240.3 420.49C239.963 419.736 239.774 418.917 239.742 418.083C239.547 416.07 239.807 414.036 240.5 412.153C241.194 410.27 242.3 408.592 243.727 407.262C244.282 406.659 244.949 406.189 245.685 405.88Z" fill="#263238"/>
<path d="M271.545 392.61C271.259 392.566 270.977 392.496 270.703 392.4C270.164 392.243 269.351 392.034 268.333 391.689C265.444 390.716 262.623 389.523 259.893 388.12C255.85 386.019 252.015 383.487 248.447 380.564C244.082 376.962 240.16 372.784 236.775 368.131C235.933 367.022 235.219 365.839 234.445 364.719L234.866 364.405C235.249 364.908 235.517 365.499 235.649 366.132C235.666 366.356 235.599 366.578 235.463 366.75C235.33 366.898 235.154 366.994 234.964 367.022C234.66 367.063 234.351 367.045 234.053 366.969C232.965 366.724 231.936 366.243 231.028 365.556C227.446 363.072 224.344 359.874 221.892 356.137C219.928 353.205 218.23 350.079 216.821 346.802C215.636 344.039 214.862 341.779 214.314 340.209C214.05 339.435 213.883 338.817 213.756 338.398C213.689 338.193 213.633 337.983 213.589 337.771C213.693 337.958 213.775 338.158 213.834 338.367C214.001 338.817 214.206 339.414 214.48 340.146C215.029 341.695 215.881 343.935 217.114 346.656C218.549 349.893 220.264 352.979 222.235 355.876C224.681 359.546 227.754 362.688 231.292 365.138C232.142 365.76 233.096 366.201 234.102 366.436C234.602 366.54 235.189 366.53 235.081 366.163C234.955 365.634 234.721 365.141 234.396 364.719L234.807 364.405C235.571 365.515 236.286 366.687 237.128 367.786C240.483 372.403 244.36 376.558 248.672 380.156C254.606 385.104 261.271 388.96 268.392 391.563C269.371 391.94 270.203 392.181 270.732 392.369C271.009 392.424 271.281 392.504 271.545 392.61Z" fill="#263238"/>
<path d="M405.413 333.187L377.703 355.981C369.556 357.226 363.995 363.181 358.443 369.648C351.129 378.126 352.784 386.613 350.61 395.09C350.034 396.766 349.327 398.387 348.495 399.936C346.84 403.735 342.493 402.604 340.221 403.337C337.509 404.206 336.305 405.587 335.032 408.308C334.42 409.701 334.2 411.254 334.4 412.778C334.6 414.302 335.211 415.731 336.158 416.89C337.813 418.753 340.594 419.108 342.943 419.663C349.494 421.191 356.26 422.74 362.84 421.359C369.419 419.977 375.794 414.87 376.773 407.753C381.444 409.02 386.385 408.475 390.716 406.215C395.012 403.922 398.795 400.666 401.809 396.67C408.663 387.995 413.647 376.943 414.293 365.609C414.94 354.275 411.248 342.679 405.413 333.187Z" fill="#FF6B6C"/>
<path d="M383.744 355.981C383.665 355.967 383.589 355.939 383.519 355.897L382.883 355.604C382.066 355.22 381.225 354.898 380.366 354.641C377.219 353.691 373.911 353.519 370.692 354.139C368.475 354.553 366.324 355.307 364.308 356.378C361.999 357.619 359.883 359.233 358.032 361.161C353.825 365.63 350.862 371.261 349.474 377.424C348.113 383.614 347.844 390.02 348.681 396.315C348.965 397.764 348.877 399.268 348.427 400.668C348.14 401.339 347.673 401.904 347.085 402.29C346.528 402.641 345.913 402.876 345.274 402.981C344.04 403.211 342.846 403.191 341.739 403.327C340.678 403.434 339.648 403.773 338.714 404.321C337.279 405.136 336.117 406.409 335.389 407.961C334.661 409.514 334.403 411.27 334.65 412.986C334.831 414.251 335.24 415.467 335.855 416.565C335.651 416.313 335.477 416.035 335.336 415.739C334.896 414.894 334.597 413.973 334.454 413.018C334.211 411.499 334.349 409.939 334.856 408.497C335.411 406.984 336.344 405.664 337.552 404.678C338.76 403.693 340.199 403.081 341.71 402.908C342.855 402.761 344.04 402.772 345.215 402.542C345.813 402.476 346.387 402.249 346.881 401.883C347.376 401.517 347.776 401.024 348.045 400.449C348.449 399.123 348.513 397.707 348.231 396.346C347.363 389.995 347.625 383.525 349.004 377.278C350.407 370.994 353.437 365.26 357.748 360.732C359.641 358.781 361.805 357.154 364.161 355.907C366.22 354.836 368.413 354.092 370.673 353.699C373.941 353.102 377.294 353.331 380.464 354.369C381.615 354.76 382.717 355.301 383.744 355.981Z" fill="#263238"/>
<path d="M341.857 418.91C341.346 418.346 340.982 417.65 340.799 416.89C340.221 415.074 340.269 413.097 340.936 411.316C341.602 409.535 342.842 408.067 344.432 407.178C345.054 406.758 345.772 406.526 346.508 406.508C346.508 406.592 345.715 406.791 344.618 407.555C343.165 408.476 342.036 409.884 341.408 411.56C340.779 413.237 340.686 415.088 341.142 416.827C341.475 418.125 341.935 418.857 341.857 418.91Z" fill="#263238"/>
<path d="M352.412 421.055C352.193 420.99 351.989 420.876 351.814 420.72C351.312 420.353 350.866 419.905 350.493 419.391C349.843 418.547 349.372 417.563 349.113 416.506C348.854 415.449 348.813 414.344 348.992 413.268C349.172 412.192 349.568 411.171 350.153 410.275C350.739 409.378 351.499 408.629 352.382 408.078C352.901 407.735 353.466 407.477 354.057 407.314C354.27 407.233 354.497 407.204 354.722 407.23C353.982 407.565 353.266 407.957 352.578 408.402C351.774 408.96 351.085 409.687 350.554 410.541C350.023 411.394 349.663 412.355 349.494 413.364C349.325 414.372 349.351 415.407 349.572 416.405C349.793 417.402 350.203 418.34 350.777 419.161C351.281 419.831 351.827 420.464 352.412 421.055Z" fill="#263238"/>
<path d="M414.294 365.588C414.196 365.588 414.499 363.735 414.636 360.732C414.722 358.989 414.722 357.242 414.636 355.499C414.499 353.358 414.247 351.226 413.882 349.115C413.182 345.28 412.126 341.529 410.73 337.917C410.201 336.525 409.75 335.405 409.408 334.652C409.216 334.261 409.062 333.851 408.948 333.427C409.193 333.781 409.406 334.16 409.584 334.558C409.976 335.29 410.485 336.379 411.062 337.76C412.565 341.363 413.679 345.138 414.382 349.01C414.758 351.147 415 353.307 415.106 355.478C415.182 357.247 415.156 359.019 415.028 360.784C414.951 361.978 414.807 363.167 414.597 364.342C414.532 364.767 414.43 365.183 414.294 365.588Z" fill="#263238"/>
<path d="M354.429 327.263C354.245 327.157 354.074 327.027 353.92 326.876C353.597 326.604 353.146 326.175 352.598 325.61C351.107 324.028 349.816 322.244 348.76 320.304L349.161 320.105C349.984 322.643 350.278 325.344 350.023 328.017C349.937 328.885 349.793 329.745 349.592 330.591L349.445 331.209L349.132 330.664C347.095 327.158 345.313 324.05 344.06 321.8L342.62 319.152C342.428 318.84 342.267 318.507 342.141 318.158C342.383 318.426 342.594 318.725 342.767 319.048L344.363 321.612C345.695 323.809 347.526 326.844 349.582 330.382L349.122 330.455C349.313 329.636 349.45 328.804 349.533 327.964C349.78 325.367 349.517 322.743 348.76 320.262L349.171 320.063C350.186 321.991 351.408 323.786 352.813 325.411C353.812 326.593 354.468 327.211 354.429 327.263Z" fill="#263238"/>
<g opacity="0.3">
<path d="M354.272 364.541C348.819 369.897 344.961 376.848 343.178 384.531C342.858 386.644 342.216 388.687 341.279 390.58C338.998 394.358 334.17 395.31 329.97 394.881L318.602 393.761L314.597 406.969C321.931 408.015 334.768 408.612 334.768 408.612C336.501 404.802 339.066 403.013 342.855 402.897C343.919 402.853 344.976 402.692 346.008 402.416C346.668 402.158 347.245 401.703 347.672 401.106C348.099 400.509 348.357 399.795 348.417 399.046C348.514 397.544 348.385 396.036 348.035 394.577C346.338 384.078 348.579 373.287 354.272 364.541Z" fill="black"/>
</g>
<path opacity="0.3" d="M250.973 380.888L283.725 392.913L284.479 398.031C284.479 398.031 253.519 388.246 250.973 380.888Z" fill="black"/>
<g opacity="0.6">
<path d="M285.938 239.458L200.919 286.908C206.403 318.305 216.419 337.572 239.272 358.157C241.691 360.334 252.177 367.984 255.076 369.345C257.955 370.834 261.264 371.063 264.299 369.983C268.02 368.455 270.399 364.573 272.034 360.69C276.578 349.952 277.253 337.886 277.86 326.154C279.528 328.423 280.636 331.104 281.082 333.951C287.661 324.532 275.951 292.235 276.519 280.503C277.508 260.085 289.453 259.551 285.938 239.458Z" fill="white"/>
</g>
<path d="M201.007 287.159C201.007 287.159 183.383 242.786 183.138 223.435C182.893 204.084 198.207 189.736 198.207 189.736C200.589 177.46 203.963 165.428 208.292 153.776C215.009 136.372 235.297 109.591 240.966 111.517C246.635 113.442 249.24 116.749 249.269 132.448C249.299 148.146 251.13 157.209 251.13 157.209C251.13 157.209 264.475 160.349 268.754 165.477C268.754 165.477 271.78 165.184 275.53 161.688C279.28 158.193 305.883 133.348 313.511 139.25C321.138 145.153 318.543 173.389 312.61 185.445C306.676 197.501 296.944 213.032 296.62 214.466C296.297 215.9 300.263 233.89 298.079 243.152C295.896 252.414 289.62 264.083 279.064 272.822C268.509 281.56 236.961 302.334 221.922 298.42C206.882 294.506 201.007 287.159 201.007 287.159Z" fill="#FF6B6C"/>
<path opacity="0.6" d="M201.007 287.159C201.007 287.159 183.383 242.786 183.138 223.435C182.893 204.084 198.207 189.736 198.207 189.736C200.589 177.46 203.963 165.428 208.292 153.776C215.009 136.372 235.297 109.591 240.966 111.517C246.635 113.442 249.24 116.749 249.269 132.448C249.299 148.146 251.13 157.209 251.13 157.209C251.13 157.209 264.475 160.349 268.754 165.477C268.754 165.477 271.78 165.184 275.53 161.688C279.28 158.193 305.883 133.348 313.511 139.25C321.138 145.153 318.543 173.389 312.61 185.445C306.676 197.501 296.944 213.032 296.62 214.466C296.297 215.9 300.263 233.89 298.079 243.152C295.896 252.414 289.62 264.083 279.064 272.822C268.509 281.56 236.961 302.334 221.922 298.42C206.882 294.506 201.007 287.159 201.007 287.159Z" fill="white"/>
<path d="M312.59 185.476C318.524 173.42 321.079 145.184 313.491 139.282C305.903 133.379 279.27 158.182 275.51 161.72C271.75 165.257 268.735 165.508 268.735 165.508C268.274 164.965 267.762 164.474 267.207 164.043C262.677 167.614 258.634 171.84 255.193 176.602C250.716 182.754 247.884 190.089 246.998 197.826C246.665 201.29 246.841 204.963 248.476 207.988C250.513 211.745 254.439 213.848 258.326 215.094C271.809 219.427 297.414 208.815 290.354 242.158C290.354 242.158 284.832 257.427 279.691 266.888C278.369 269.326 277.517 274.674 276.754 277.353C277.635 276.673 282.149 278.075 282.854 277.489C293.419 268.771 308.488 257.94 305.638 248.887C301.085 234.424 296.219 215.9 296.581 214.476C296.944 213.053 306.657 197.522 312.59 185.476Z" fill="#FF6B6C"/>
<g opacity="0.6">
<path d="M311.719 144.766C309.908 143.457 307.47 144.148 305.472 145.09C294.611 150.366 285.336 158.765 278.683 169.349C278.791 180.441 281.903 191.263 287.642 200.505C288.533 201.928 289.816 203.477 291.402 203.247C291.97 203.077 292.501 202.79 292.965 202.4C293.429 202.01 293.816 201.526 294.104 200.976C304.072 186.544 311.68 169.841 313.55 152.008C313.824 149.391 313.756 146.241 311.719 144.766Z" fill="white"/>
</g>
<path d="M233.652 191.264C238.088 184.922 242.131 178.255 246.988 172.279C250.745 167.482 255.254 163.42 260.314 160.275C257.318 159.06 254.25 158.06 251.13 157.282C251.13 157.282 249.299 148.282 249.269 132.521C249.24 116.76 246.626 113.474 240.966 111.59C235.307 109.706 215.009 136.445 208.292 153.849C204.54 163.895 201.515 174.234 199.245 184.775L199.431 184.869C203.602 188.009 206.902 192.279 210.975 195.544C215.048 198.809 220.404 201.07 225.212 199.27C228.796 197.846 231.371 194.518 233.652 191.264Z" fill="#FF6B6C"/>
<path d="M234.406 211.556C232.1 209.735 229.511 208.363 226.759 207.506C225.075 206.91 223.019 206.523 221.697 207.789C221.203 208.343 220.872 209.04 220.745 209.794C220.618 210.547 220.7 211.324 220.982 212.027C221.568 213.428 222.445 214.666 223.547 215.648C224.586 216.842 225.884 217.744 227.327 218.275C229.755 218.987 230.969 218.506 233.202 217.292C234.234 216.738 235.19 216.033 236.041 215.198C236.658 214.56 236.746 212.865 234.406 211.556Z" fill="#263238"/>
<path d="M244.834 224.628C240.849 227.925 239.781 232.613 238.538 237.835C237.294 243.058 236.423 248.521 233.721 253.063C231.018 257.605 225.819 261.027 220.992 259.488C219.687 259.022 218.482 258.284 217.445 257.318C216.409 256.352 215.561 255.176 214.95 253.858C213.746 251.209 213.114 248.305 213.1 245.36C212.939 240.847 213.694 236.351 215.313 232.179C216.932 228.008 219.377 224.261 222.48 221.195C223.857 221.419 225.196 221.856 226.455 222.493C227.572 223.288 233.858 227.286 238.43 226.093C243.003 224.9 244.834 224.628 244.834 224.628Z" fill="#FF6B6C"/>
<path d="M224.076 241.833C223.933 240.915 223.933 239.978 224.076 239.06C224.303 236.825 224.858 234.642 225.721 232.592C226.57 230.533 227.713 228.626 229.109 226.941C229.662 226.216 230.324 225.594 231.067 225.099C231.126 225.172 230.391 225.884 229.393 227.192C228.106 228.91 227.033 230.799 226.201 232.812C225.359 234.813 224.769 236.924 224.448 239.091C224.144 240.776 224.144 241.833 224.076 241.833Z" fill="#263238"/>
<path d="M251.972 219.803C251.895 219.99 251.796 220.166 251.678 220.327C251.369 220.801 251.011 221.236 250.611 221.624C249.091 223.03 247.304 224.066 245.372 224.659C244.062 225.101 242.732 225.472 241.387 225.769C239.852 226.196 238.273 226.417 236.687 226.428C233.014 226.404 229.441 225.145 226.475 222.828C225.743 222.244 224.911 221.817 224.027 221.572C223.165 221.384 222.235 221.572 221.295 221.373C220.406 221.199 219.563 220.82 218.826 220.261C218.088 219.703 217.474 218.978 217.026 218.139C216.167 216.671 215.716 214.973 215.724 213.241C215.74 211.746 216.046 210.27 216.625 208.909C217.45 206.939 218.772 205.254 220.443 204.042C220.9 203.723 221.382 203.447 221.883 203.215C222.053 203.131 222.23 203.064 222.412 203.017C222.412 203.017 221.697 203.362 220.561 204.22C218.977 205.459 217.733 207.128 216.958 209.055C216.428 210.379 216.152 211.802 216.145 213.241C216.161 214.883 216.601 216.488 217.418 217.878C217.834 218.644 218.398 219.306 219.074 219.819C219.75 220.331 220.521 220.683 221.334 220.85C222.177 221.007 223.107 220.85 224.086 221.038C225.036 221.299 225.931 221.754 226.72 222.378C229.605 224.633 233.074 225.873 236.648 225.926C238.202 225.926 239.751 225.726 241.26 225.329C242.699 225.005 244.041 224.68 245.225 224.283C247.126 223.74 248.9 222.782 250.434 221.467C250.975 220.944 251.489 220.388 251.972 219.803Z" fill="#263238"/>
<g opacity="0.6">
<path d="M206.334 179.856C215.776 171.826 225.983 164.88 236.785 159.135C238.375 158.426 239.821 157.396 241.045 156.1C242.455 154.373 242.944 152.039 243.385 149.82C245.02 141.563 246.655 132.919 244.54 124.787C243.796 121.93 242.102 118.801 239.331 118.581C237.579 118.434 235.973 119.523 234.573 120.674C224.595 128.858 218.73 141.375 213.188 153.452C209.458 161.594 205.649 170.029 205.238 179.092" fill="white"/>
</g>
<path d="M225.182 221.76C224.55 220.982 224.218 219.976 224.252 218.945C224.148 217.918 224.402 216.885 224.967 216.046C225.124 216.109 224.703 217.354 224.761 218.914C224.82 220.473 225.329 221.687 225.182 221.76Z" fill="#263238"/>
<g opacity="0.6">
<path d="M263.487 184.409C261.213 183.891 258.853 184.007 256.633 184.744C256.219 184.841 255.83 185.032 255.492 185.305C255.154 185.578 254.875 185.925 254.674 186.324C254.214 187.632 255.34 188.951 256.437 189.715C258.532 191.155 260.926 192.024 263.408 192.248C264.288 192.364 265.18 192.289 266.032 192.028C266.456 191.896 266.849 191.67 267.187 191.365C267.524 191.061 267.798 190.684 267.991 190.259C268.205 189.579 268.227 188.847 268.053 188.154C267.879 187.461 267.516 186.839 267.011 186.366C265.993 185.425 264.807 184.713 263.526 184.273" fill="white"/>
</g>
<g opacity="0.6">
<path d="M230.499 173.242C228.226 172.722 225.865 172.838 223.645 173.577C223.223 173.667 222.824 173.855 222.477 174.128C222.13 174.402 221.844 174.753 221.638 175.157C221.168 176.466 222.294 177.784 223.391 178.548C225.487 179.986 227.88 180.856 230.362 181.081C231.242 181.197 232.135 181.123 232.986 180.861C233.41 180.728 233.803 180.501 234.14 180.197C234.477 179.892 234.751 179.516 234.945 179.092C235.157 178.412 235.177 177.681 235.003 176.988C234.829 176.296 234.468 175.674 233.966 175.199C232.948 174.256 231.762 173.544 230.48 173.106" fill="white"/>
</g>
<path d="M232.487 135.305C232.555 135.378 231.331 136.718 229.745 139.198C228.82 140.646 227.995 142.164 227.278 143.74C225.511 147.616 224.407 151.798 224.017 156.089C223.862 157.828 223.823 159.577 223.9 161.322C224.047 164.315 224.429 166.147 224.331 166.168C224.18 165.756 224.072 165.328 224.008 164.891C223.898 164.39 223.813 163.884 223.753 163.373C223.684 162.777 223.567 162.097 223.538 161.343C223.401 159.57 223.401 157.789 223.538 156.016C223.884 151.665 225.011 147.426 226.857 143.531C227.603 141.943 228.471 140.424 229.452 138.989C229.853 138.361 230.274 137.837 230.626 137.377C230.933 136.974 231.26 136.59 231.606 136.226C231.867 135.885 232.162 135.576 232.487 135.305Z" fill="#263238"/>
<path d="M261.156 202.493C261.138 203.429 260.861 204.338 260.36 205.106C259.859 205.873 259.156 206.464 258.34 206.805C257.524 207.145 256.633 207.219 255.778 207.017C254.922 206.816 254.143 206.347 253.537 205.672C252.931 204.996 252.526 204.144 252.373 203.222C252.221 202.3 252.327 201.351 252.68 200.494C253.032 199.638 253.614 198.912 254.353 198.409C255.091 197.906 255.953 197.648 256.828 197.669C257.409 197.681 257.982 197.816 258.514 198.065C259.046 198.314 259.527 198.673 259.929 199.121C260.331 199.569 260.646 200.098 260.857 200.677C261.067 201.255 261.169 201.873 261.156 202.493Z" fill="#263238"/>
<path d="M227.464 189.924C227.446 190.86 227.169 191.769 226.668 192.537C226.167 193.304 225.464 193.895 224.648 194.236C223.833 194.576 222.941 194.65 222.086 194.448C221.231 194.247 220.451 193.778 219.845 193.103C219.239 192.427 218.834 191.575 218.681 190.653C218.529 189.731 218.635 188.782 218.988 187.925C219.34 187.068 219.922 186.343 220.661 185.84C221.399 185.337 222.261 185.079 223.136 185.1C224.308 185.127 225.422 185.651 226.234 186.555C227.045 187.46 227.488 188.671 227.464 189.924Z" fill="#263238"/>
<path d="M310.818 152.719C310.692 152.884 310.555 153.038 310.407 153.18L309.183 154.436C308.116 155.482 306.588 157.115 304.777 159.166C300.039 164.533 295.815 170.391 292.165 176.654L291.882 177.146L291.705 176.602C291.627 176.34 291.529 176.057 291.441 175.775C290.589 173.179 289.776 170.657 289.003 168.292H289.463C287.209 173.539 285.932 179.205 285.703 184.974C285.637 186.655 285.657 188.339 285.762 190.018C285.824 190.623 285.854 191.231 285.85 191.839C285.799 191.691 285.77 191.536 285.762 191.379C285.762 191.075 285.644 190.625 285.586 190.039C285.421 188.353 285.356 186.658 285.39 184.964C285.514 179.129 286.747 173.382 289.013 168.072L289.267 167.476L289.473 168.093L291.921 175.576L292.185 176.403L291.735 176.35C295.396 170.052 299.683 164.196 304.522 158.884C306.373 156.864 307.939 155.304 309.046 154.258C309.594 153.735 310.025 153.347 310.338 153.075C310.483 152.935 310.645 152.816 310.818 152.719Z" fill="#263238"/>
<path d="M241.044 302.376C241.121 302.662 241.164 302.958 241.172 303.255C241.23 303.831 241.289 304.689 241.338 305.767C241.44 308.776 241.319 311.789 240.976 314.778L240.927 315.186L240.623 314.924C237.389 312.239 234.619 308.97 232.438 305.265C232.203 304.867 231.987 304.469 231.772 304.082L232.242 303.883L234.798 315.186L234.984 316.002L234.435 315.406C232.445 313.249 230.815 310.742 229.618 307.996C229.285 307.229 228.99 306.443 228.737 305.641C228.634 305.362 228.562 305.07 228.521 304.773C228.661 305.032 228.776 305.305 228.864 305.589C229.079 306.123 229.393 306.908 229.843 307.871C231.104 310.535 232.757 312.967 234.739 315.071L234.376 315.291C233.603 311.973 232.702 308.132 231.743 304.009L231.331 302.23L232.213 303.81C232.428 304.197 232.643 304.584 232.869 304.972C235.021 308.624 237.732 311.865 240.888 314.558L240.535 314.715C240.909 311.753 241.092 308.767 241.084 305.778C241.084 304.731 241.084 303.915 241.084 303.266C241.045 302.971 241.032 302.673 241.044 302.376Z" fill="#263238"/>
<path d="M92.6757 390.13C88.1325 393.552 83.413 396.922 78.0571 398.502C72.7012 400.082 66.5131 399.548 62.2049 395.823C56.6825 391.009 55.6838 382.396 56.33 374.798C57.5735 359.33 63.6931 343.998 60.9026 328.749C59.8495 323.245 57.6754 318.055 54.5347 313.55C51.3939 309.044 47.3635 305.333 42.7298 302.68C38.065 300.106 32.9275 298.662 27.6818 298.448C22.4361 298.235 17.2108 299.258 12.3765 301.445C6.37434 304.218 0.754078 309.535 0.0393066 316.473C1.99758 322.92 10.9763 328.247 16.9392 330.508C22.9022 332.768 29.531 335.238 32.5076 341.203C35.0925 346.384 34.1133 352.653 33.4867 358.492C32.4911 368.402 32.8473 378.414 34.5442 388.214C35.8171 395.54 37.9516 402.981 42.5633 408.591C49.7698 417.361 61.7447 419.988 72.6033 418.742C83.462 417.497 93.7135 413.007 104.171 409.669L92.6757 390.13Z" fill="#FF6B6C"/>
<g opacity="0.5">
<path d="M60.031 334.327C60.4792 333.051 60.8456 331.743 61.1277 330.413C61.0493 329.862 60.9612 329.307 60.8633 328.749C59.8102 323.245 57.6361 318.055 54.4953 313.55C51.3546 309.044 47.3242 305.333 42.6905 302.68C38.0257 300.106 32.8882 298.662 27.6425 298.448C22.3968 298.235 17.1715 299.258 12.3372 301.445C6.33503 304.218 0.714772 309.535 0 316.473C1.95828 322.92 10.937 328.247 16.8999 330.508C22.8629 332.768 29.4917 335.238 32.4683 341.203C34.2111 344.699 34.3286 348.686 34.0447 352.715C35.1316 352.872 36.2302 352.914 37.3248 352.841C47.3316 352.182 56.467 344.395 60.031 334.327Z" fill="white"/>
</g>
<path d="M167.119 405.43C170.057 403.431 176.695 402.908 180.142 402.489C183.589 402.071 187.339 403.117 189.63 405.901C191.921 408.685 192.313 413.321 189.973 416.053C187.3 419.192 181.239 419.129 177.244 419.129C166.473 419.129 160.177 418.91 150.308 419.129" fill="#FF6B6C"/>
<path d="M150.337 419.129C150.586 419.081 150.838 419.056 151.091 419.056L153.265 418.962C155.145 418.91 157.867 418.847 161.235 418.836H173.073C175.295 418.836 177.636 418.836 180.044 418.836C182.52 418.86 184.982 418.443 187.329 417.601C188.475 417.135 189.476 416.333 190.218 415.289C190.885 414.232 191.258 412.994 191.295 411.72C191.338 410.51 191.13 409.305 190.684 408.192C190.239 407.079 189.568 406.085 188.719 405.283C187.134 403.852 185.183 402.962 183.119 402.73C181.302 402.587 179.475 402.664 177.675 402.96C175.034 403.187 172.414 403.642 169.842 404.321C169.149 404.521 168.472 404.777 167.815 405.085C167.595 405.218 167.366 405.333 167.129 405.43C167.129 405.43 167.178 405.378 167.286 405.304C167.394 405.231 167.55 405.116 167.766 404.99C168.412 404.633 169.087 404.339 169.783 404.111C172.346 403.354 174.968 402.843 177.616 402.583C179.443 402.253 181.299 402.151 183.148 402.28C185.309 402.503 187.357 403.418 189.023 404.907C189.929 405.755 190.647 406.808 191.125 407.991C191.603 409.173 191.828 410.454 191.784 411.741C191.749 413.121 191.345 414.461 190.619 415.602C189.824 416.735 188.744 417.602 187.505 418.104C185.106 418.973 182.587 419.401 180.054 419.37C177.616 419.37 175.286 419.37 173.053 419.37L161.225 419.224H153.255H151.081C150.831 419.212 150.583 419.18 150.337 419.129Z" fill="#263238"/>
<path d="M126.055 252.498C126.055 253.9 118.222 274.245 98.815 290.728C79.4085 307.211 63.3604 326.51 63.6933 352.119C64.0262 377.728 78.7917 405.796 78.7917 405.796L94.0564 418.638L150.337 419.129C150.337 419.129 176.265 412.463 179.545 389.659C182.825 366.854 176.265 355.981 176.265 355.981L177.244 333.176C177.244 333.176 192.666 302.659 193.654 292.842C194.643 283.025 186.105 247.233 186.105 247.233L126.055 252.498Z" fill="#FF6B6C"/>
<path d="M157.563 318.702C157.095 320.927 156.985 323.22 157.24 325.484C157.572 327.931 158.259 330.307 159.276 332.527C160.515 335.254 162.05 337.814 163.849 340.157C165.758 342.668 167.766 344.929 169.479 347.022C171.193 349.115 172.779 351.062 173.954 352.789C174.901 354.136 175.756 355.556 176.509 357.038C176.783 357.561 176.95 357.99 177.077 358.272C177.204 358.555 177.253 358.712 177.234 358.723C176.902 358.217 176.601 357.689 176.333 357.142C175.522 355.713 174.633 354.336 173.67 353.019C172.465 351.334 170.909 349.44 169.136 347.367C167.364 345.295 165.376 343.035 163.448 340.502C161.629 338.119 160.084 335.512 158.846 332.737C157.836 330.464 157.175 328.033 156.887 325.536C156.698 323.851 156.765 322.144 157.083 320.482C157.162 320.03 157.274 319.586 157.416 319.152C157.447 318.996 157.496 318.845 157.563 318.702Z" fill="#263238"/>
<path d="M178.644 365.222C178.746 365.421 178.828 365.632 178.889 365.849C179.026 366.268 179.261 366.896 179.477 367.702C180.119 369.993 180.574 372.339 180.838 374.714C181.236 378.245 181.236 381.815 180.838 385.347C180.612 387.438 180.229 389.506 179.692 391.532C179.137 393.698 178.386 395.801 177.45 397.811C176.507 399.836 175.386 401.76 174.101 403.557C172.889 405.215 171.553 406.766 170.106 408.193C167.644 410.593 164.903 412.643 161.95 414.294C159.972 415.414 157.908 416.352 155.781 417.099C155.037 417.382 154.44 417.539 154.038 417.664C153.839 417.739 153.632 417.788 153.422 417.811C153.609 417.707 153.806 417.623 154.009 417.56C154.401 417.392 154.988 417.214 155.723 416.9C157.807 416.075 159.833 415.088 161.783 413.949C164.681 412.272 167.372 410.216 169.793 407.827C171.206 406.405 172.516 404.869 173.709 403.232C174.966 401.459 176.064 399.563 176.99 397.57C177.917 395.577 178.662 393.491 179.212 391.343C179.749 389.36 180.138 387.333 180.377 385.284C180.799 381.787 180.832 378.25 180.475 374.745C180.255 372.381 179.856 370.039 179.281 367.744C179.104 366.927 178.899 366.31 178.791 365.881C178.727 365.665 178.678 365.445 178.644 365.222Z" fill="#263238"/>
<path d="M95.0353 418.596C94.5465 418.421 94.0717 418.204 93.6156 417.947C93.0628 417.681 92.5235 417.384 92 417.057C91.3831 416.681 90.6586 416.283 89.9242 415.739C89.1898 415.194 88.3478 414.692 87.5155 413.97C86.6832 413.248 85.8118 412.526 84.9012 411.72C81.0405 408.09 77.8261 403.743 75.4134 398.889C74.8846 397.759 74.3657 396.691 73.974 395.645C73.5824 394.598 73.2103 393.635 72.9166 392.735C72.6228 391.835 72.4074 390.998 72.2018 390.276C72.0286 389.653 71.8848 389.021 71.771 388.382C71.6411 387.85 71.5526 387.307 71.5066 386.76C71.705 387.27 71.8591 387.799 71.9668 388.34C72.0843 388.853 72.2507 389.481 72.4759 390.192C72.7011 390.904 72.9166 391.731 73.2593 392.61C73.602 393.489 73.9153 394.462 74.3657 395.467C74.8161 396.472 75.3448 397.56 75.8246 398.607C77.0552 400.983 78.4563 403.254 80.0153 405.399C81.6008 407.516 83.3392 409.496 85.2145 411.322C86.1056 412.139 86.928 412.934 87.7701 413.583C88.6122 414.232 89.3857 414.87 90.12 415.404C90.8544 415.937 91.5398 416.367 92.1371 416.775C92.7343 417.183 93.2631 417.486 93.7037 417.738C94.1711 417.98 94.6168 418.267 95.0353 418.596Z" fill="#263238"/>
<path d="M121.198 346.342C120.851 346.142 120.523 345.907 120.219 345.641C119.621 345.159 118.769 344.416 117.741 343.432C114.981 340.76 112.532 337.741 110.447 334.443L110.887 334.223L112.767 340.68L114.187 345.515L114.412 346.31L113.795 345.808C110.525 343.109 107.984 339.53 106.432 335.437C105.985 334.246 105.631 333.017 105.375 331.763C105.287 331.324 105.247 330.978 105.208 330.717C105.169 330.455 105.208 330.361 105.208 330.351C105.351 330.786 105.468 331.23 105.561 331.68C105.879 332.905 106.278 334.105 106.755 335.269C108.362 339.247 110.898 342.717 114.118 345.348L113.727 345.641C113.276 344.092 112.81 342.484 112.327 340.816C111.671 338.556 111.044 336.368 110.457 334.359L109.967 332.632L110.897 334.129C112.942 337.412 115.32 340.444 117.986 343.171C118.965 344.217 119.797 344.96 120.365 345.484C120.666 345.743 120.944 346.03 121.198 346.342Z" fill="#263238"/>
<g opacity="0.3">
<path d="M157.083 319.99C157.22 318.943 158.787 318.943 159.325 319.854C159.73 320.796 159.843 321.852 159.649 322.868C159.316 328.896 162.831 334.38 166.503 338.953C170.174 343.527 174.238 348.226 175.413 354.128C172.475 350.518 169.029 347.472 165.807 344.175C162.586 340.879 159.551 337.226 157.798 332.841C156.045 328.456 155.712 323.213 157.798 319.016" fill="black"/>
</g>
<g opacity="0.3">
<path d="M156.584 416.733C161.088 416.911 165.739 416.429 169.744 414.211C173.748 411.992 176.989 407.795 177.283 402.992L173.905 403.149C169.576 409.188 163.708 413.764 157.005 416.325" fill="black"/>
</g>
<path d="M163.917 170.594C163.917 170.594 139.439 174.655 134.21 176.874C128.982 179.092 107.558 190.939 104.19 202.221C104.19 202.221 102.516 214.937 107.774 230.583C109.683 236.286 125.222 255.585 128.913 257.793C132.605 260.001 186.682 249.735 186.682 249.735C189.933 245.025 199.284 228.657 199.206 216.392C199.108 200.997 193.948 183.687 193.948 183.687L163.917 170.594Z" fill="#FF6B6C"/>
<path d="M182.766 144.012C182.237 143.918 175.736 144.012 170.791 155.974C167.759 163.272 164.255 170.336 160.304 177.115L194.085 185.487C194.085 185.487 192.195 165.979 190.325 159.166C188.455 152.353 186.545 144.671 182.766 144.012Z" fill="#FF6B6C"/>
<g opacity="0.6">
<path d="M172.328 218.254C161.411 213.681 148.829 215.711 138.186 220.881C132.242 223.759 126.436 227.925 123.753 234.298C119.416 244.764 125.31 257.144 133.545 264.386C141.779 271.629 152.148 275.553 161.078 281.853C170.008 288.154 177.909 298.399 176.744 309.754L177.273 333.092C178.154 331.345 192.685 302.366 193.644 292.842C194.476 284.47 188.396 257.207 186.594 249.368C187.378 248.322 188.611 246.135 190.08 244.062C190.247 232.749 182.335 222.462 172.328 218.254Z" fill="white"/>
</g>
<path d="M161.029 213.775C161.097 213.513 161.111 213.239 161.071 212.971C161.03 212.703 160.935 212.447 160.792 212.222C160.65 211.997 160.463 211.808 160.245 211.668C160.027 211.527 159.784 211.439 159.531 211.41C156.757 211.039 153.941 211.454 151.365 212.613C151.075 212.702 150.805 212.856 150.576 213.066C150.346 213.275 150.161 213.535 150.033 213.827C149.978 214.156 149.999 214.494 150.094 214.811C150.19 215.129 150.357 215.416 150.582 215.648C151.241 216.497 152.091 217.153 153.051 217.558C154.011 217.962 155.051 218.102 156.074 217.963C157.098 217.824 158.073 217.412 158.908 216.764C159.743 216.116 160.412 215.254 160.853 214.257C160.922 214.101 160.981 213.94 161.029 213.775Z" fill="#263238"/>
<path d="M161.891 226.794C161.545 227.309 161.107 227.746 160.603 228.08C160.099 228.414 159.539 228.639 158.953 228.741C158.388 228.936 157.791 229.008 157.199 228.952C156.607 228.896 156.032 228.714 155.507 228.416C156.62 228.474 157.736 228.407 158.836 228.218C159.897 227.856 160.921 227.379 161.891 226.794Z" fill="#263238"/>
<path d="M104.807 204.607C104.807 204.607 93.2828 161.919 98.198 158.318C103.113 154.718 107.637 158.978 107.637 158.978L133.085 179.616L104.807 204.607Z" fill="#FF6B6C"/>
<g opacity="0.6">
<path d="M107.99 195.984C112.34 189.543 118.107 184.345 124.782 180.851L107.304 166.199C106.953 165.808 106.528 165.503 106.056 165.304C105.585 165.105 105.078 165.018 104.572 165.048C104.116 165.218 103.71 165.516 103.397 165.909C103.084 166.303 102.874 166.779 102.79 167.287C102.144 169.872 102.79 174.069 103.299 176.706C104.709 183.603 106.237 190.217 107.99 196.026" fill="white"/>
</g>
<g opacity="0.6">
<path d="M188.298 179.909C182.086 176.106 175.097 173.99 167.942 173.745C171.245 166.984 174.541 160.223 177.831 153.462C178.282 152.531 178.859 151.505 179.789 151.296C180.252 151.252 180.717 151.34 181.137 151.552C181.557 151.763 181.916 152.09 182.179 152.5C183.716 154.499 184.715 158.444 185.224 160.977C186.546 167.622 187.681 174.059 188.279 179.909" fill="white"/>
</g>
<path d="M191.608 240.787C191.547 241.006 191.468 241.22 191.373 241.425C191.177 241.886 190.923 242.472 190.599 243.215C189.596 245.387 188.374 247.436 186.957 249.326C184.798 252.105 182.163 254.417 179.192 256.14C178.35 256.6 177.459 257.04 176.539 257.437C175.58 257.847 174.599 258.196 173.602 258.484C172.585 258.767 171.556 258.994 170.517 259.164C169.439 259.317 168.354 259.411 167.267 259.447C165.337 259.509 163.407 259.351 161.509 258.976L161.656 258.463C164.344 259.693 166.772 261.491 168.794 263.748L169.156 264.156H168.628C164.459 264.179 160.314 263.472 156.359 262.063C155.248 261.67 154.156 261.216 153.089 260.702C152.717 260.525 152.433 260.368 152.247 260.273C152.148 260.227 152.056 260.167 151.972 260.096C152.369 260.227 152.759 260.384 153.138 260.566C153.892 260.88 155.008 261.32 156.437 261.791C160.385 263.084 164.499 263.709 168.628 263.643L168.461 264.051C166.474 261.859 164.092 260.119 161.46 258.934L159.277 257.95L161.607 258.421C163.47 258.784 165.364 258.935 167.257 258.871C168.334 258.871 169.401 258.714 170.439 258.599C171.462 258.438 172.475 258.215 173.474 257.929C174.444 257.667 175.398 257.345 176.333 256.966C177.234 256.579 178.115 256.15 178.948 255.7C181.877 254.025 184.49 251.782 186.654 249.086C188.078 247.235 189.331 245.241 190.394 243.131C190.746 242.419 191.03 241.844 191.246 241.394C191.348 241.179 191.469 240.976 191.608 240.787Z" fill="#263238"/>
<path d="M176.862 306.583C176.952 306.981 177.005 307.388 177.018 307.797C177.087 308.582 177.155 309.723 177.234 311.125C177.381 313.941 177.508 317.823 177.567 322.114C177.625 326.405 177.567 330.288 177.567 333.103C177.567 334.505 177.488 335.646 177.439 336.431C177.443 336.843 177.4 337.254 177.312 337.655C177.242 337.252 177.216 336.841 177.234 336.431C177.234 335.531 177.234 334.411 177.234 333.103C177.234 330.162 177.165 326.342 177.126 322.114C177.087 317.886 176.989 314.077 176.94 311.146C176.94 309.828 176.94 308.718 176.881 307.808C176.83 307.402 176.823 306.991 176.862 306.583Z" fill="#263238"/>
<path d="M139.567 211.316C139.567 212.252 139.307 213.167 138.82 213.945C138.333 214.723 137.641 215.329 136.832 215.687C136.023 216.045 135.133 216.138 134.274 215.954C133.415 215.771 132.626 215.32 132.008 214.657C131.389 213.994 130.969 213.15 130.799 212.232C130.629 211.314 130.718 210.362 131.055 209.498C131.391 208.634 131.96 207.896 132.689 207.377C133.418 206.859 134.275 206.583 135.151 206.585C136.323 206.588 137.446 207.088 138.274 207.975C139.102 208.861 139.567 210.063 139.567 211.316Z" fill="#263238"/>
<path d="M176.98 204.084C176.982 205.02 176.724 205.936 176.239 206.715C175.754 207.494 175.063 208.102 174.255 208.462C173.446 208.822 172.556 208.917 171.697 208.735C170.838 208.554 170.048 208.104 169.428 207.443C168.808 206.782 168.386 205.939 168.214 205.021C168.043 204.103 168.13 203.152 168.464 202.287C168.799 201.422 169.366 200.682 170.094 200.162C170.822 199.642 171.678 199.364 172.554 199.364C173.726 199.364 174.85 199.861 175.68 200.746C176.51 201.631 176.977 202.831 176.98 204.084Z" fill="#263238"/>
<path d="M169.656 214.979C169.703 215.522 169.67 216.069 169.558 216.601C169.349 218.077 168.88 219.497 168.177 220.787C167.944 221.229 167.65 221.631 167.306 221.98C166.919 222.338 166.487 222.638 166.023 222.87C164.976 223.392 163.782 223.467 162.684 223.079C162.097 222.897 161.542 222.614 161.039 222.242C160.51 221.886 160.003 221.495 159.522 221.07C158.505 220.178 157.588 219.163 156.79 218.045L157.24 217.951L157.162 218.234C156.846 219.584 156.273 220.85 155.48 221.953C154.687 223.057 153.689 223.975 152.55 224.649C151.522 225.215 150.361 225.444 149.211 225.308C148.23 225.183 147.286 224.826 146.45 224.262C145.266 223.417 144.294 222.274 143.62 220.934C143.443 220.574 143.286 220.204 143.15 219.824C143.062 219.563 143.023 219.416 143.043 219.416C143.062 219.416 143.288 219.939 143.797 220.829C144.5 222.103 145.476 223.179 146.646 223.969C147.437 224.501 148.331 224.834 149.26 224.942C150.322 225.047 151.39 224.822 152.335 224.293C153.406 223.637 154.343 222.757 155.088 221.705C155.834 220.653 156.373 219.451 156.672 218.171L156.741 217.899L156.888 217.375L157.191 217.804C157.971 218.88 158.857 219.863 159.835 220.735C160.299 221.15 160.786 221.535 161.294 221.886C161.755 222.24 162.268 222.509 162.812 222.681C163.744 223.009 164.752 222.989 165.672 222.624C166.592 222.259 167.368 221.571 167.874 220.672C168.577 219.435 169.081 218.08 169.362 216.664C169.577 215.554 169.617 214.979 169.656 214.979Z" fill="#263238"/>
<g opacity="0.6">
<path d="M150.22 173.064L144.012 174.32C144.448 177.085 145.361 179.74 146.705 182.148C147.175 182.996 147.889 183.917 148.81 183.844C149.08 183.808 149.338 183.705 149.564 183.543C149.79 183.382 149.978 183.166 150.112 182.912C150.383 182.406 150.559 181.848 150.631 181.269C151.078 178.536 150.937 175.731 150.22 173.064Z" fill="white"/>
</g>
<path d="M207.431 222.022C207.008 221.981 206.591 221.89 206.187 221.75L202.848 220.86C200.028 220.117 196.112 219.207 191.735 218.453C187.358 217.7 183.373 217.292 180.475 217.061L177.048 216.8C176.624 216.791 176.201 216.742 175.785 216.653C176.202 216.578 176.626 216.553 177.048 216.58C177.861 216.58 179.006 216.58 180.495 216.674C188.083 217.061 195.609 218.338 202.936 220.484C204.346 220.902 205.472 221.258 206.246 221.53C206.656 221.649 207.053 221.814 207.431 222.022Z" fill="#263238"/>
<path d="M210.818 213.461C210.381 213.528 209.938 213.545 209.496 213.514H205.913C202.877 213.514 198.697 213.514 194.075 213.608C189.453 213.702 185.263 213.995 182.247 214.194L178.673 214.435C178.233 214.476 177.791 214.476 177.351 214.435C177.775 214.301 178.212 214.221 178.654 214.194C179.496 214.079 180.71 213.932 182.227 213.775C185.243 213.472 189.434 213.168 194.065 213.032C198.697 212.896 202.877 212.969 205.923 213.105C207.43 213.168 208.664 213.242 209.506 213.315C209.947 213.318 210.386 213.367 210.818 213.461Z" fill="#263238"/>
<path d="M210.436 234.235C209.997 234.037 209.574 233.799 209.173 233.524C208.38 233.021 207.215 232.32 205.786 231.43C202.044 229.222 198.193 227.231 194.251 225.465C190.297 223.744 186.26 222.246 182.159 220.975C180.592 220.484 179.31 220.107 178.419 219.845C177.953 219.74 177.498 219.589 177.058 219.395C177.534 219.428 178.007 219.512 178.468 219.646C179.368 219.835 180.671 220.159 182.257 220.609C190.563 222.976 198.533 226.528 205.952 231.169C207.372 232.058 208.508 232.822 209.262 233.367C209.677 233.617 210.07 233.908 210.436 234.235Z" fill="#263238"/>
<path d="M133.212 228.176C132.88 228.471 132.519 228.727 132.135 228.94L129.168 230.897C126.622 232.54 123.137 234.863 119.377 237.584C115.617 240.305 112.307 242.911 109.938 244.826L107.079 247.139C106.749 247.44 106.392 247.703 106.011 247.924C106.306 247.571 106.634 247.252 106.991 246.972C107.617 246.386 108.547 245.559 109.703 244.554C112.023 242.555 115.313 239.897 119.083 237.166C122.853 234.434 126.378 232.153 128.972 230.593C130.275 229.808 131.332 229.191 132.076 228.793C132.436 228.55 132.816 228.344 133.212 228.176Z" fill="#263238"/>
<path d="M132.516 224.481C132.391 224.585 132.252 224.67 132.105 224.733L130.881 225.35L126.367 227.537C122.558 229.39 117.3 231.985 111.563 234.968C105.825 237.951 100.665 240.766 96.9441 242.817L92.538 245.255L91.3337 245.904C91.196 245.989 91.0476 246.053 90.8931 246.093C91.0114 245.98 91.1431 245.885 91.2847 245.81L92.4401 245.067C93.4192 244.439 94.9369 243.55 96.7777 242.482C100.449 240.337 105.59 237.469 111.337 234.476C117.085 231.483 122.372 228.95 126.22 227.15C128.179 226.261 129.716 225.57 130.803 225.109L132.056 224.586C132.203 224.525 132.359 224.489 132.516 224.481Z" fill="#263238"/>
<path d="M127.083 222.922C126.575 223.135 126.051 223.299 125.516 223.414C124.537 223.686 123.039 224.094 121.237 224.617C117.634 225.664 112.679 227.265 107.343 229.39C102.007 231.514 97.2776 233.785 93.9094 235.512C92.2253 236.381 90.8643 237.103 89.9341 237.605C89.46 237.887 88.9656 238.129 88.4556 238.327C88.8949 237.984 89.36 237.679 89.8459 237.417C90.7468 236.852 92.0784 236.088 93.7625 235.167C102.491 230.444 111.687 226.783 121.178 224.251C123 223.77 124.478 223.414 125.506 223.205C126.025 223.073 126.552 222.979 127.083 222.922Z" fill="#263238"/>
<path d="M179.613 160.171C179.721 160.509 179.79 160.861 179.819 161.217C179.907 161.939 180.005 162.976 180.064 164.273C180.212 167.698 179.982 171.13 179.378 174.498L179.251 175.22L178.908 174.571C178.693 174.174 178.468 173.734 178.233 173.305L174.737 166.659L175.148 166.597C174.714 168.518 174.461 170.482 174.394 172.457C174.345 173.891 174.394 174.718 174.326 174.728C174.266 174.536 174.233 174.335 174.228 174.132C174.165 173.576 174.133 173.017 174.13 172.457C174.102 170.451 174.299 168.448 174.718 166.492L174.845 165.895L175.129 166.429L178.673 173.033L179.349 174.31L178.879 174.393C179.475 171.062 179.757 167.675 179.721 164.284C179.692 161.751 179.535 160.181 179.613 160.171Z" fill="#263238"/>
<path d="M115.46 183.519C114.226 181.537 112.809 179.693 111.23 178.014L111.612 177.868C111.436 179.647 111.23 181.636 111.015 183.76C111.015 184.043 110.956 184.325 110.927 184.587L110.829 185.571L110.447 184.671C109.125 181.531 107.96 178.747 107.147 176.717C106.666 175.643 106.257 174.535 105.923 173.399C106.515 174.401 107.033 175.45 107.47 176.539C108.361 178.527 109.576 181.311 110.907 184.43L110.427 184.514L110.515 183.676C110.741 181.583 110.966 179.563 111.162 177.795V177.303L111.495 177.648C112.666 178.868 113.696 180.235 114.559 181.719C114.942 182.268 115.246 182.874 115.46 183.519Z" fill="#263238"/>
<path d="M214.353 67.886C212.45 63.314 209.278 59.4778 205.267 56.8972C201.43 54.2046 196.898 52.8684 192.313 53.0773C188.44 53.3628 184.761 55.0006 181.844 57.7386C178.927 60.4766 176.932 64.1632 176.167 68.2313C173.456 65.4522 169.987 63.668 166.264 63.1374C162.54 62.6068 158.755 63.3572 155.458 65.2801C151.482 67.7273 148.324 71.4463 146.43 75.913C144.332 80.3882 143.573 85.4452 144.257 90.3973C145.215 96.6762 148.033 102.461 152.295 106.901C156.809 111.37 162.909 114.227 168.852 115.902C178.84 118.748 191.892 122.129 191.892 122.129C191.892 122.129 199.304 111.663 206.324 103.521C210.505 98.6964 214.236 92.8043 215.802 86.4518C217.195 80.2573 216.687 73.7481 214.353 67.886Z" fill="#FF6B6C"/>
<path d="M309.525 110.449C310.25 107.979 310.25 105.332 309.525 102.862C308.901 100.394 307.569 98.1984 305.717 96.5823C304.716 95.7737 303.574 95.1883 302.358 94.8611C301.142 94.5339 299.877 94.4715 298.637 94.6776C297.162 94.9385 295.768 95.5777 294.574 96.5405C294.459 95.0936 294.044 93.6923 293.36 92.438C292.723 91.2827 291.874 90.2767 290.864 89.4801C289.855 88.6835 288.706 88.1127 287.485 87.8018C285.157 87.2986 282.739 87.5877 280.572 88.6286C278.325 89.5973 276.41 91.2817 275.089 93.4532C273.433 96.2598 272.674 99.5649 272.925 102.872C273.37 106.314 274.582 109.591 276.46 112.427C279.397 117.189 283.412 123.29 283.412 123.29C283.412 123.29 289.659 121.93 294.985 121.354C298.225 121.104 301.361 120.028 304.13 118.215C306.668 116.318 308.561 113.593 309.525 110.449Z" fill="#FF6B6C"/>
</svg>
