<svg width="61" height="61" viewBox="0 0 61 61" fill="none" xmlns="http://www.w3.org/2000/svg">
<g clip-path="url(#clip0_227_235)">
<path fill-rule="evenodd" clip-rule="evenodd" d="M38.1248 5.08337C40.502 5.08314 42.8316 5.74967 44.849 7.00724C46.8663 8.26482 48.4904 10.063 49.5369 12.1975L49.7758 12.7084H53.3748C53.8054 12.7084 54.2289 12.8177 54.6056 13.0262C54.9823 13.2347 55.2999 13.5354 55.5286 13.9003C55.7572 14.2651 55.8895 14.682 55.9129 15.112C55.9363 15.5419 55.85 15.9707 55.6623 16.3582L55.4895 16.6607L51.5448 22.5751C51.2423 23.0299 51.0944 23.57 51.1229 24.1154L51.1585 24.4407L51.5168 26.408C54.0306 40.2295 43.6174 52.9709 29.6763 53.3649L29.0104 53.375H7.62481C7.19425 53.3751 6.77073 53.2657 6.39401 53.0572C6.01728 52.8487 5.69969 52.548 5.47103 52.1832C5.24238 51.8183 5.11015 51.4014 5.08676 50.9714C5.06337 50.5415 5.14958 50.1127 5.33731 49.7252L5.51014 49.4227L24.4329 21.0374C25.0743 20.0765 25.4165 18.947 25.4165 17.7917C25.4165 14.4212 26.7554 11.1888 29.1387 8.80556C31.5219 6.42228 34.7544 5.08337 38.1248 5.08337ZM29.229 27.9584C28.5402 27.9584 27.5439 28.1363 26.5958 28.4896C25.6427 28.8454 25.1166 29.2394 24.9336 29.4503L16.3326 42.3544C18.8691 41.6249 21.5811 40.8218 24.1177 39.828C26.8296 38.7681 29.1451 37.5608 30.7489 36.1527C32.3044 34.7878 33.0415 33.3772 33.0415 31.7709C33.0415 30.7597 32.6398 29.79 31.9248 29.075C31.2098 28.36 30.2401 27.9584 29.229 27.9584ZM38.1248 15.25C37.4507 15.25 36.8042 15.5178 36.3276 15.9945C35.8509 16.4711 35.5831 17.1176 35.5831 17.7917C35.5831 18.4658 35.8509 19.1123 36.3276 19.5889C36.8042 20.0656 37.4507 20.3334 38.1248 20.3334C38.7989 20.3334 39.4454 20.0656 39.922 19.5889C40.3987 19.1123 40.6665 18.4658 40.6665 17.7917C40.6665 17.1176 40.3987 16.4711 39.922 15.9945C39.4454 15.5178 38.7989 15.25 38.1248 15.25Z" fill="#F7F7F9"/>
</g>
<defs>
<clipPath id="clip0_227_235">
<rect width="61" height="61" fill="white"/>
</clipPath>
</defs>
</svg>
