<svg width="61" height="64" viewBox="0 0 61 64" fill="none" xmlns="http://www.w3.org/2000/svg">
<path d="M45.7498 10.6666C41.4036 10.6666 38.7603 11.5466 37.2353 12.2933C35.2782 11.28 33.0415 10.6666 30.4998 10.6666C27.9582 10.6666 25.7215 11.28 23.7644 12.2933C22.2394 11.5466 19.5961 10.6666 15.2498 10.6666C7.62484 10.6666 2.5415 32 2.5415 37.3333C2.5415 39.5466 5.8965 41.5733 10.5223 42.4C12.149 48.3733 19.8248 52.9333 29.229 53.3333V41.92C27.7294 40.9333 25.4165 39.1466 25.4165 37.3333C25.4165 34.6666 30.4998 34.6666 30.4998 34.6666C30.4998 34.6666 35.5832 34.6666 35.5832 37.3333C35.5832 39.1466 33.2703 40.9333 31.7707 41.92V53.3333C41.1748 52.9333 48.8507 48.3733 50.4773 42.4C55.1032 41.5733 58.4582 39.5466 58.4582 37.3333C58.4582 32 53.3748 10.6666 45.7498 10.6666ZM10.5478 36.9866C9.27692 36.6666 8.28567 36.2933 7.62484 36C8.26025 28.6133 13.2165 17.0666 15.3769 16C16.7494 16 17.7915 16.16 18.7319 16.2933C13.3944 22.4533 11.2848 32.1066 10.5478 36.9866ZM22.8748 32C22.2007 32 21.5543 31.719 21.0776 31.2189C20.601 30.7188 20.3332 30.0405 20.3332 29.3333C20.3332 27.8933 21.4769 26.6666 22.8748 26.6666C23.5489 26.6666 24.1954 26.9476 24.6721 27.4477C25.1487 27.9478 25.4165 28.626 25.4165 29.3333C25.4165 30.8266 24.2728 32 22.8748 32ZM38.1248 32C37.4507 32 36.8043 31.719 36.3276 31.2189C35.851 30.7188 35.5832 30.0405 35.5832 29.3333C35.5832 27.8933 36.7269 26.6666 38.1248 26.6666C38.7989 26.6666 39.4454 26.9476 39.9221 27.4477C40.3987 27.9478 40.6665 28.626 40.6665 29.3333C40.6665 30.8266 39.5228 32 38.1248 32ZM50.4519 36.9866C49.7148 32.1066 47.6053 22.4533 42.2678 16.2933C43.2082 16.16 44.2503 16 45.6228 16C47.7832 17.0666 52.7394 28.6133 53.3748 36C52.7394 36.2933 51.7482 36.6666 50.4519 36.9866Z" fill="#F7F7F9"/>
</svg>
