<svg width="61" height="61" viewBox="0 0 61 61" fill="none" xmlns="http://www.w3.org/2000/svg">
<path d="M30.5 20.3333L27.1196 20.5621C24.9337 17.9696 18.8083 11.4375 12.7083 11.4375C12.7083 11.4375 7.70123 18.9608 12.6066 29.0004C11.2087 31.11 10.3446 32.2029 10.1666 34.7192L5.26123 35.4563L5.79498 37.9471L10.2683 37.2863L10.6241 39.0908L6.63373 41.48L7.82831 43.7421L11.5137 41.48C14.4366 47.6817 21.8329 50.8333 30.5 50.8333C39.1671 50.8333 46.5633 47.6817 49.4862 41.48L53.1716 43.7421L54.3662 41.48L50.3758 39.0908L50.7316 37.2863L55.205 37.9471L55.7387 35.4563L50.8333 34.7192C50.6554 32.2029 49.7912 31.11 48.3933 29.0004C53.2987 18.9608 48.2916 11.4375 48.2916 11.4375C42.1917 11.4375 36.0662 17.9696 33.8804 20.5621L30.5 20.3333ZM22.875 27.9583C23.5491 27.9583 24.1956 28.2261 24.6722 28.7028C25.1489 29.1794 25.4166 29.8259 25.4166 30.5C25.4166 31.1741 25.1489 31.8206 24.6722 32.2972C24.1956 32.7739 23.5491 33.0417 22.875 33.0417C22.2009 33.0417 21.5544 32.7739 21.0778 32.2972C20.6011 31.8206 20.3333 31.1741 20.3333 30.5C20.3333 29.8259 20.6011 29.1794 21.0778 28.7028C21.5544 28.2261 22.2009 27.9583 22.875 27.9583ZM38.125 27.9583C38.7991 27.9583 39.4456 28.2261 39.9222 28.7028C40.3989 29.1794 40.6666 29.8259 40.6666 30.5C40.6666 31.1741 40.3989 31.8206 39.9222 32.2972C39.4456 32.7739 38.7991 33.0417 38.125 33.0417C37.4509 33.0417 36.8044 32.7739 36.3278 32.2972C35.8511 31.8206 35.5833 31.1741 35.5833 30.5C35.5833 29.8259 35.8511 29.1794 36.3278 28.7028C36.8044 28.2261 37.4509 27.9583 38.125 27.9583ZM27.9583 35.5833H33.0416L31.2625 39.1163C31.7708 40.7429 33.1941 41.9375 34.9479 41.9375C35.959 41.9375 36.9288 41.5358 37.6437 40.8208C38.3587 40.1059 38.7604 39.1361 38.7604 38.125H40.0312C40.0312 39.4732 39.4957 40.7661 38.5424 41.7195C37.589 42.6728 36.2961 43.2083 34.9479 43.2083C33.0416 43.2083 31.3896 42.1663 30.5 40.6667C29.6104 42.1663 27.9583 43.2083 26.0521 43.2083C24.7039 43.2083 23.4109 42.6728 22.4576 41.7195C21.5043 40.7661 20.9687 39.4732 20.9687 38.125H22.2396C22.2396 39.1361 22.6412 40.1059 23.3562 40.8208C24.0712 41.5358 25.0409 41.9375 26.0521 41.9375C27.8058 41.9375 29.2291 40.7429 29.7375 39.1163L27.9583 35.5833Z" fill="#F7F7F9"/>
</svg>
