<svg width="61" height="61" viewBox="0 0 61 61" fill="none" xmlns="http://www.w3.org/2000/svg">
<path d="M54.2139 44.1996C57.7722 47.4275 55.4085 53.375 50.6302 53.375H28.111C26.4202 53.3817 24.7448 53.0537 23.1814 52.4097C21.618 51.7658 20.1976 50.8187 19.002 49.6231C17.8064 48.4276 16.8594 47.0071 16.2154 45.4437C15.5715 43.8804 15.2434 42.205 15.2502 40.5142V40.3871C9.40433 39.1925 5.0835 34.0838 5.0835 27.9583C5.0835 20.9688 10.726 15.25 17.7918 15.25H24.146C24.9085 15.25 25.4168 14.6654 25.4168 13.9792C25.4168 13.2929 24.9085 12.7083 24.146 12.7083H17.7918V7.625H24.146C27.6535 7.625 30.5002 10.4971 30.5002 13.9792C30.5002 17.5121 27.6535 20.3333 24.146 20.3333H17.7918C13.5727 20.3333 10.1668 23.7138 10.1668 27.9583C10.1668 31.4404 12.5052 34.3125 15.606 35.2529C17.0293 29.6613 22.0364 25.4167 28.111 25.4167C30.1443 25.4167 32.1777 25.9758 33.9568 26.8146C30.3731 28.8225 27.9585 32.5333 27.9585 36.8542C27.9585 40.0312 29.2293 42.8779 31.3389 44.9113L33.1181 43.1321C31.466 41.5817 30.5002 39.3196 30.5002 36.8542C30.5002 30.2713 36.4477 27.9583 39.396 27.9583C44.6827 27.9583 49.4356 32.7621 48.1393 38.7096L54.2139 44.1996ZM45.7502 48.2917C47.1735 48.2917 48.2918 47.1733 48.2918 45.75C48.2918 44.3267 47.1735 43.2083 45.7502 43.2083C44.3268 43.2083 43.2085 44.3267 43.2085 45.75C43.2085 47.1733 44.3268 48.2917 45.7502 48.2917Z" fill="#F7F7F9"/>
</svg>
