<svg width="222" height="182" viewBox="0 0 222 182" fill="none" xmlns="http://www.w3.org/2000/svg">
<path d="M189.776 34.1779C189.856 33.4449 190.045 32.7205 190.185 31.9918C190.744 30.2671 191.288 28.5424 192.337 26.9643C192.621 26.532 192.955 26.126 193.335 25.7527C194.523 24.6101 195.946 24.4592 197.464 25.2439C198.567 25.8499 199.498 26.6617 200.189 27.6197C201.767 29.6764 202.85 31.9314 202.651 34.415C202.599 35.6312 202.214 36.8195 201.528 37.8823C200.841 38.9451 199.873 39.8522 198.702 40.5291C195.916 42.1589 192.636 41.4863 190.919 38.9855C189.946 37.5319 189.545 35.845 189.776 34.1779Z" fill="#EBEBEB"/>
<path d="M175.004 36.0319C173.367 33.4448 173.307 30.7543 175.004 28.1672C176.559 25.7596 179.072 23.9211 182.078 22.9931C182.62 22.8247 183.186 22.7203 183.76 22.6827C184.445 22.5929 185.145 22.7209 185.728 23.0429C186.312 23.3648 186.741 23.8589 186.935 24.4332C187.422 25.7079 187.567 27.0613 187.36 28.3914C187.26 29.3961 187.085 30.3964 186.945 31.4097C186.566 33.2465 185.892 34.9669 184.449 36.4027C183.565 37.3345 182.377 38.0151 181.04 38.3559C179.878 38.6341 178.64 38.5544 177.538 38.1303C176.437 37.7062 175.541 36.9643 175.004 36.0319Z" fill="#EBEBEB"/>
<path d="M166.128 45.5608C163.482 43.8836 162.414 41.5552 162.688 38.7526C162.742 38.4432 162.815 38.1366 162.908 37.8342C163.315 35.9494 164.361 34.2116 165.913 32.8412C166.071 32.7119 166.238 32.591 166.412 32.479C168.1 31.3622 169.712 31.5002 171.105 32.9102C172.08 33.9519 172.804 35.1509 173.237 36.4372C173.871 38.1015 174.415 39.7831 174.16 41.5725C174.037 42.6579 173.592 43.6976 172.867 44.5907C171.215 46.5439 168.409 46.9967 166.128 45.5608Z" fill="#EBEBEB"/>
<path d="M199.126 57.1983C199.096 57.4656 199.041 57.733 198.981 58.0607C198.232 60.6477 196.191 62.1223 193.195 62.6829C190.03 63.2736 187.07 62.657 184.324 61.2858C182.577 60.3812 180.532 60.0021 178.509 60.2079C175.398 60.4968 172.458 60.0311 169.857 58.4616C167.676 57.1466 166.363 55.3658 166.492 52.99C166.544 52.1056 166.804 51.2396 167.257 50.4448C167.709 49.6501 168.344 48.9434 169.123 48.3678C169.992 47.6987 170.949 47.1199 171.974 46.6431C174.21 45.6112 176.234 44.2681 177.964 42.6677C178.785 41.8928 179.78 41.2709 180.888 40.8401C181.997 40.4093 183.196 40.1788 184.411 40.1627C185.627 40.1465 186.833 40.3451 187.956 40.7462C189.08 41.1473 190.096 41.7425 190.944 42.4952C192.047 43.4646 192.828 44.6724 193.205 45.992C193.701 47.7384 194.707 49.3461 196.126 50.6617C197.931 52.2371 198.998 54.3334 199.121 56.5472C199.141 56.7639 199.142 56.9815 199.126 57.1983Z" fill="#EBEBEB"/>
<path d="M209.205 46.0955C208.402 49.1655 206.51 51.1144 203.369 52.0587C200.229 53.0029 197.264 51.5154 196.765 48.6783C196.594 47.6905 196.701 46.6816 197.079 45.7376C197.948 43.4912 199.73 41.8053 201.707 40.2617C202.421 39.7168 203.217 39.2584 204.073 38.8992C205.841 38.1533 207.378 38.6146 208.337 40.0936C209.115 41.3872 209.475 42.8378 209.38 44.2932C209.345 44.9874 209.245 45.6773 209.205 46.0955Z" fill="#EBEBEB"/>
<path d="M71.0079 16.6462C70.6035 15.5726 70.3589 14.4559 70.0394 13.3607C69.6051 10.64 69.1409 7.92357 69.5103 5.16836C69.6052 4.41253 69.7892 3.66704 70.0594 2.94349C70.9181 0.718626 72.8001 -0.260142 75.4908 0.0589283C77.4623 0.329294 79.3387 0.977545 80.9822 1.9561C84.6464 4.01712 87.7465 6.57399 89.2342 10.1959C90.7218 13.8177 90.4572 17.5258 88.0011 20.8502C85.2505 24.6014 80.1685 25.3819 75.995 22.7776C73.6064 21.2553 71.856 19.1033 71.0079 16.6462Z" fill="#DBDBDB"/>
<path d="M51.5937 27.0117C47.4652 24.2306 45.4883 20.5009 46.0125 15.9951C46.4882 11.79 48.7122 7.87618 52.2726 4.97861C52.9141 4.45833 53.6346 4.01591 54.4142 3.66352C56.5259 2.68476 58.4079 2.9564 60.1103 4.44826C61.8126 5.94013 62.7311 7.83299 63.4899 9.77759C64.064 11.235 64.5183 12.7311 65.0275 14.2101C65.7963 16.9868 66.0659 19.7507 65.0575 22.5231C64.4782 24.2959 63.2913 25.8757 61.6528 27.0548C58.7424 29.0856 54.7337 29.1287 51.5937 27.0117Z" fill="#DBDBDB"/>
<path d="M45.8629 45.0521C40.9656 44.0949 37.8255 41.3871 36.238 37.2909C36.0914 36.8303 35.978 36.3623 35.8986 35.8896C35.2346 32.9792 35.3195 30.1075 36.6224 27.3178C36.7432 27.0567 36.8816 26.8019 37.0368 26.5547C38.6193 24.1013 40.9756 23.4459 43.9109 24.6704C46.0179 25.6187 47.8848 26.9203 49.4023 28.4993C51.464 30.4999 53.396 32.5739 54.3195 35.2127C54.9034 36.7947 55.0082 38.4795 54.6241 40.1065C53.6955 43.7542 50.0612 45.8756 45.8629 45.0521Z" fill="#DBDBDB"/>
<path d="M100.362 44.0086C100.512 44.4053 100.621 44.8063 100.786 45.328C101.54 49.3207 99.7328 52.4984 95.9238 54.8613C91.9051 57.3535 87.3123 58.0433 82.49 57.5647C79.4011 57.2185 76.2664 57.7642 73.574 59.117C69.4206 61.1564 64.9676 62.049 60.2101 61.2168C56.2164 60.5183 53.1462 58.703 51.6336 55.314C51.079 54.0466 50.831 52.6945 50.9048 51.3411C50.9787 49.9878 51.3728 48.6618 52.0629 47.4451C52.807 46.0451 53.7385 44.7253 54.8385 43.5127C57.2524 40.8857 59.1512 37.9347 60.4597 34.7771C61.0603 33.2557 62.0154 31.8567 63.2661 30.6664C64.5169 29.4761 66.0367 28.5197 67.7319 27.8563C69.4271 27.1929 71.2616 26.8366 73.1225 26.8092C74.9833 26.7818 76.8308 27.0841 78.5512 27.6972C80.7867 28.4697 82.7367 29.753 84.1923 31.4096C86.1224 33.5992 88.6694 35.3255 91.5906 36.4242C95.2349 37.8169 98.1752 39.921 99.9275 43.1074C100.095 43.3993 100.24 43.7003 100.362 44.0086Z" fill="#DBDBDB"/>
<path d="M106.667 23.1354C107.705 27.8784 106.427 31.5908 102.673 34.5702C98.8492 37.6186 93.7223 37.0236 91.0166 33.3069C90.0798 32.0036 89.5199 30.5247 89.3842 28.9951C89.0197 25.3862 90.3327 22.0963 92.02 18.8797C92.6341 17.7393 93.4269 16.6772 94.3763 15.7235C96.3282 13.7487 98.8093 13.5677 101.196 15.1587C103.297 16.5428 104.635 18.427 105.624 20.4966C106.113 21.4927 106.432 22.5275 106.667 23.1354Z" fill="#DBDBDB"/>
<path d="M33.2476 86.9278C32.8282 86.2854 32.5038 85.5998 32.1393 84.9315C31.4554 83.2327 30.7565 81.5468 30.5818 79.7574C30.5219 79.2629 30.5219 78.7643 30.5818 78.2698C30.8014 76.7478 31.8598 75.9113 33.632 75.8208C34.9379 75.7733 36.2396 75.9796 37.441 76.4244C40.0918 77.3385 42.4631 78.6363 43.9307 80.7922C44.6892 81.8175 45.1565 82.9831 45.2944 84.1939C45.4323 85.4048 45.2371 86.6267 44.7245 87.76C43.5164 90.4721 40.3763 91.5328 37.3112 90.3255C35.566 89.6033 34.1399 88.4109 33.2476 86.9278Z" fill="#EBEBEB"/>
<path d="M22.3398 95.7281C19.2796 94.4001 17.4624 92.2313 17.128 89.2605C16.8044 86.5102 17.6488 83.752 19.5042 81.4994C19.8371 81.0933 20.2336 80.729 20.6824 80.4171C21.1847 80.0046 21.8436 79.7641 22.5362 79.7403C23.2288 79.7165 23.9077 79.9111 24.4464 80.2878C25.6835 81.0887 26.6954 82.1204 27.4068 83.306C27.9908 84.1683 28.505 85.0867 29.0542 85.9793C29.9577 87.6738 30.5518 89.4287 30.3072 91.3086C30.1973 92.5067 29.6758 93.6493 28.8096 94.5898C28.0521 95.3991 26.992 95.9553 25.8114 96.163C24.6309 96.3707 23.4034 96.2169 22.3398 95.7281Z" fill="#EBEBEB"/>
<path d="M21.3463 107.93C18.0665 107.857 15.6503 106.473 14.0278 104.05C13.8663 103.769 13.723 103.482 13.5985 103.187C12.698 101.437 12.4166 99.4961 12.7898 97.6081C12.8284 97.4272 12.8801 97.2487 12.9445 97.0734C13.5935 95.3229 15.0063 94.6459 17.068 95.1029C18.5525 95.4779 19.9368 96.1021 21.1416 96.9398C22.7591 97.9918 24.3166 99.0956 25.2901 100.695C25.8997 101.645 26.216 102.714 26.2086 103.8C26.1787 106.232 24.1618 107.991 21.3463 107.93Z" fill="#EBEBEB"/>
<path d="M56.1365 101.221C56.2912 101.454 56.416 101.7 56.6007 102.019C57.679 104.494 56.9901 106.732 54.9034 108.668C52.6969 110.711 49.8564 111.664 46.6914 111.893C44.6588 112.013 42.7288 112.709 41.2 113.872C38.8437 115.644 36.118 116.709 32.943 116.705C30.2822 116.705 28.0408 115.873 26.5681 113.868C26.0233 113.117 25.6628 112.278 25.5091 111.402C25.3554 110.526 25.4117 109.632 25.6745 108.775C25.944 107.796 26.3444 106.847 26.8676 105.947C28.0245 103.996 28.8036 101.894 29.174 99.7251C29.3325 98.6818 29.7371 97.6777 30.3626 96.7748C30.9882 95.8718 31.8215 95.0893 32.811 94.4755C33.8005 93.8617 34.9252 93.4296 36.1157 93.206C37.3062 92.9824 38.537 92.9721 39.7323 93.1756C41.2815 93.4239 42.7238 94.0304 43.9057 94.9304C45.4691 96.1215 47.3597 96.9468 49.3971 97.3278C51.9181 97.7328 54.1764 98.9293 55.7371 100.687C55.8834 100.857 56.0168 101.036 56.1365 101.221Z" fill="#EBEBEB"/>
<path d="M57.0851 87.1391C58.4529 90.0538 58.1884 92.5848 56.2364 94.9002C54.2845 97.2157 50.8599 97.4657 48.5785 95.3832C47.7816 94.6517 47.2025 93.7638 46.8912 92.7961C46.1224 90.5195 46.4718 88.2558 47.0759 86.018C47.2991 85.2181 47.6502 84.449 48.1192 83.7328C49.0777 82.2453 50.6153 81.8658 52.4075 82.6117C53.9004 83.2895 55.1542 84.3024 56.0367 85.5437C56.4761 86.1474 56.8355 86.7726 57.0851 87.1391Z" fill="#EBEBEB"/>
<path d="M0 174.737L27.7463 174.633L55.4975 174.594L111 174.521L166.502 174.594L194.254 174.633L222 174.737L194.254 174.844L166.502 174.883L111 174.952L55.4975 174.879L27.7463 174.844L0 174.737Z" fill="#263238"/>
<path d="M209.37 113.195C209.37 113.876 212.295 161.008 213.299 174.737H167.286C169.713 164.94 181.464 112.113 181.674 111.328C182.068 109.879 176.841 103.968 179.727 100.441C182.722 96.7543 185.218 97.9056 186.117 96.9915C187.015 96.0774 187.804 91.9381 192.352 90.9852C196.201 90.1789 196.206 92.6754 197.843 92.7573C198.812 92.8048 199.121 92.0804 200.09 91.5889H200.115C200.12 91.5868 200.126 91.5858 200.132 91.5858C200.138 91.5858 200.144 91.5868 200.15 91.5889C200.809 91.2741 201.762 91.0714 203.384 91.2698C207.613 91.7872 208.701 98.7205 209.425 99.6217C210.149 100.523 213.259 99.8545 214.282 103.791C215.775 109.435 209.345 112.376 209.37 113.195Z" fill="#455A64"/>
<path opacity="0.2" d="M191.478 136.517C192.926 134.34 194.144 132.024 194.558 129.713C194.593 129.528 194.963 129.481 195.087 129.649C195.422 130.106 196.365 131.373 196.5 131.589C196.54 131.447 196.58 131.304 196.61 131.158C196.718 130.682 196.796 130.201 196.845 129.718C196.94 128.75 196.929 127.777 196.81 126.812C196.689 125.845 196.457 124.892 196.116 123.966C195.766 123.026 195.272 122.125 194.823 121.206C194.823 121.163 194.903 121.133 194.938 121.172C195.692 121.998 196.302 122.914 196.75 123.892C197.197 124.802 197.532 125.75 197.748 126.721C197.959 127.694 198.036 128.686 197.978 129.675C197.949 130.188 197.886 130.699 197.788 131.205C197.739 131.718 197.569 132.217 197.289 132.671C197.074 132.973 196.46 132.814 196.355 132.559C196.295 132.404 195.162 130.597 194.983 130.334C194.78 131.345 194.445 132.333 193.984 133.279C193.398 134.459 192.64 135.569 191.728 136.582C191.628 136.685 191.413 136.612 191.478 136.517Z" fill="black"/>
<path d="M198.427 100.264C198.427 99.8028 198.472 99.3414 198.502 98.8844C198.647 97.7713 198.955 96.6787 199.421 95.6333C199.555 95.3477 199.722 95.0747 199.92 94.8184C200.17 94.4633 200.57 94.2057 201.035 94.0995C201.501 93.9934 201.995 94.0471 202.416 94.2492C203.149 94.5536 203.793 94.9955 204.303 95.5427C205.446 96.7199 206.3 98.0392 206.39 99.6044C206.458 100.362 206.318 101.123 205.979 101.825C205.641 102.527 205.114 103.149 204.443 103.64C204.097 103.919 203.684 104.13 203.235 104.258C202.785 104.387 202.309 104.429 201.838 104.383C201.367 104.337 200.914 104.204 200.509 103.992C200.104 103.781 199.756 103.496 199.491 103.157C198.783 102.318 198.41 101.302 198.427 100.264Z" fill="#263238"/>
<path d="M189.421 102.321C188.817 101.633 188.437 100.818 188.321 99.9606C188.204 99.1032 188.355 98.2344 188.757 97.4442C189.522 95.8525 190.929 94.5538 192.716 93.7879C193.032 93.6524 193.368 93.5539 193.715 93.4947C194.131 93.3965 194.575 93.4324 194.964 93.5958C195.352 93.7592 195.659 94.0389 195.826 94.3829C196.234 95.1427 196.436 95.973 196.415 96.8104C196.44 97.4399 196.415 98.0694 196.415 98.6989C196.395 99.8526 196.002 100.978 195.282 101.95C194.815 102.583 194.136 103.077 193.335 103.369C192.643 103.611 191.875 103.639 191.162 103.448C190.448 103.257 189.833 102.859 189.421 102.321Z" fill="#263238"/>
<path d="M184.704 108.776C183.874 108.383 183.184 107.802 182.709 107.095C182.233 106.388 181.991 105.583 182.008 104.766C182.016 104.571 182.036 104.376 182.068 104.184C182.171 102.992 182.68 101.853 183.531 100.911C183.614 100.821 183.704 100.736 183.8 100.656C184.754 99.8588 185.762 99.8459 186.741 100.626C187.442 101.212 187.999 101.915 188.378 102.692C188.979 103.655 189.321 104.724 189.377 105.818C189.387 106.495 189.196 107.163 188.822 107.758C188.644 108.07 188.391 108.347 188.081 108.57C187.772 108.793 187.411 108.957 187.024 109.053C186.636 109.149 186.229 109.174 185.83 109.126C185.43 109.078 185.047 108.959 184.704 108.776Z" fill="#263238"/>
<path d="M206.125 113.958C206.125 114.126 206.125 114.295 206.125 114.519C205.876 116.153 204.732 117.209 202.92 117.74C201.07 118.259 199.059 118.143 197.304 117.416C196.145 116.966 194.847 116.858 193.61 117.11C191.764 117.522 189.806 117.326 188.119 116.558C187.406 116.271 186.795 115.825 186.349 115.265C185.903 114.706 185.639 114.054 185.583 113.376C185.541 112.826 185.631 112.275 185.845 111.756C186.06 111.237 186.395 110.761 186.831 110.358C187.313 109.888 187.858 109.468 188.453 109.108C189.757 108.331 190.904 107.374 191.848 106.275C192.291 105.746 192.855 105.3 193.504 104.965C194.153 104.63 194.875 104.413 195.624 104.327C196.374 104.24 197.136 104.287 197.864 104.463C198.593 104.639 199.272 104.942 199.86 105.352C200.625 105.884 201.209 106.586 201.547 107.383C202.002 108.435 202.759 109.37 203.749 110.099C204.992 110.962 205.824 112.19 206.085 113.549C206.105 113.695 206.12 113.825 206.125 113.958Z" fill="#263238"/>
<path d="M211.457 106.456C211.212 108.409 210.199 109.733 208.332 110.513C207.925 110.709 207.471 110.82 207.006 110.837C206.541 110.855 206.078 110.778 205.653 110.614C205.228 110.45 204.853 110.203 204.558 109.892C204.263 109.581 204.056 109.215 203.953 108.823C203.766 108.221 203.751 107.59 203.908 106.982C204.263 105.533 205.226 104.395 206.325 103.3C206.723 102.918 207.18 102.586 207.683 102.312C207.893 102.173 208.135 102.075 208.393 102.023C208.651 101.972 208.919 101.969 209.179 102.014C209.438 102.059 209.684 102.152 209.898 102.286C210.113 102.42 210.292 102.592 210.423 102.791C211.015 103.543 211.36 104.419 211.422 105.326C211.467 105.757 211.447 106.193 211.457 106.456Z" fill="#263238"/>
<path d="M200.175 91.5457C200.147 91.5571 200.12 91.5701 200.094 91.5847L200.175 91.5457Z" fill="black"/>
<path d="M188.213 143.821C188.213 143.735 188.213 143.649 188.238 143.537C188.295 143.162 188.478 142.81 188.763 142.523C189.049 142.237 189.425 142.029 189.846 141.924C190.283 141.804 190.743 141.763 191.199 141.803C191.655 141.843 192.097 141.963 192.497 142.157C193.028 142.405 193.645 142.479 194.234 142.364C194.671 142.269 195.125 142.251 195.57 142.311C196.016 142.371 196.442 142.508 196.825 142.713C197.163 142.882 197.444 143.125 197.639 143.417C197.835 143.709 197.938 144.04 197.938 144.378C197.95 144.946 197.709 145.498 197.264 145.917C197.037 146.16 196.766 146.37 196.46 146.538C195.247 147.124 194.434 147.154 192.761 146.969C191.089 146.784 190.315 146.572 189.237 145.822C188.938 145.595 188.696 145.319 188.525 145.009C188.353 144.699 188.256 144.363 188.238 144.02C188.218 143.959 188.213 143.89 188.213 143.821Z" fill="#263238"/>
<path d="M56.8104 174.737H14.1527C13.5686 157.11 12.7799 133.146 12.7749 132.576C12.7749 131.093 6.05546 126.419 7.88757 122.405C9.82951 118.214 12.5352 118.818 13.1543 117.744C13.7733 116.67 13.4039 112.492 17.5623 110.634C21.0568 109.064 21.7707 111.496 23.3781 111.233C24.3316 111.082 24.4365 110.31 25.2402 109.638L25.3101 109.582C25.8592 109.151 26.7329 108.758 28.3553 108.62C32.6036 108.249 35.5689 114.765 36.5174 115.489C37.4659 116.213 40.3065 114.933 42.3832 118.546C45.3785 123.759 39.947 127.937 40.1916 128.726C40.3863 129.278 50.8149 158.149 56.8104 174.737Z" fill="#F7F0F0"/>
<path opacity="0.4" d="M56.8104 174.737H14.1527C13.5686 157.11 12.7799 133.146 12.7749 132.576C12.7749 131.093 6.05546 126.419 7.88757 122.405C9.82951 118.214 12.5352 118.818 13.1543 117.744C13.7733 116.67 13.4039 112.492 17.5623 110.634C21.0568 109.064 21.7707 111.496 23.3781 111.233C24.3316 111.082 24.4365 110.31 25.2402 109.638L25.3101 109.582C25.8592 109.151 26.7329 108.758 28.3553 108.62C32.6036 108.249 35.5689 114.765 36.5174 115.489C37.4659 116.213 40.3065 114.933 42.3832 118.546C45.3785 123.759 39.947 127.937 40.1916 128.726C40.3863 129.278 50.8149 158.149 56.8104 174.737Z" fill="black"/>
<path opacity="0.2" d="M35.5691 153.777C33.6222 151.91 31.87 149.871 30.9015 147.68C30.8216 147.508 30.4472 147.53 30.3673 147.715C30.1527 148.224 29.5436 149.651 29.4588 149.871C29.3839 149.742 29.309 149.612 29.2441 149.483C29.024 149.035 28.8323 148.577 28.67 148.112C28.3394 147.186 28.1137 146.234 27.9961 145.27C27.8812 144.303 27.8812 143.327 27.9961 142.36C28.1059 141.377 28.3705 140.407 28.5851 139.423C28.5851 139.385 28.4903 139.372 28.4653 139.423C27.9298 140.368 27.5564 141.374 27.3571 142.412C27.1453 143.382 27.0566 144.369 27.0925 145.356C27.1262 146.344 27.2937 147.326 27.5917 148.28C27.7404 148.772 27.9204 149.257 28.1309 149.733C28.3047 150.224 28.5916 150.68 28.9745 151.074C29.2591 151.333 29.8232 151.074 29.8581 150.794C29.8831 150.634 30.552 148.659 30.6619 148.37C31.1055 149.321 31.6698 150.226 32.3442 151.07C33.2009 152.115 34.2074 153.062 35.3395 153.889C35.4643 153.967 35.654 153.859 35.5691 153.777Z" fill="black"/>
<path d="M26.024 118.399C25.8892 117.968 25.8193 117.494 25.7195 117.041C25.5548 115.93 25.5548 114.806 25.7195 113.695C25.778 113.389 25.8716 113.089 25.9991 112.798C26.1485 112.401 26.471 112.069 26.8985 111.872C27.326 111.676 27.8251 111.631 28.2904 111.746C29.0858 111.89 29.8343 112.185 30.482 112.609C31.9197 113.518 33.1128 114.622 33.627 116.127C33.8991 116.848 33.9699 117.615 33.8337 118.364C33.6975 119.113 33.3581 119.824 32.8433 120.439C32.584 120.781 32.2421 121.071 31.8409 121.288C31.4397 121.505 30.9888 121.645 30.5192 121.697C30.0496 121.75 29.5725 121.714 29.1205 121.592C28.6686 121.47 28.2525 121.265 27.9011 120.991C26.9676 120.325 26.309 119.416 26.024 118.399Z" fill="#FF9BBC"/>
<path d="M17.8468 122.245C17.0686 121.703 16.473 120.989 16.1218 120.18C15.7707 119.371 15.6768 118.496 15.8499 117.645C16.1539 115.941 17.1632 114.391 18.6904 113.281C18.9648 113.08 19.2707 112.913 19.599 112.785C19.9772 112.605 20.4187 112.549 20.8411 112.628C21.2636 112.707 21.6383 112.916 21.8954 113.217C22.5038 113.87 22.9292 114.636 23.1384 115.454C23.3331 116.058 23.4829 116.679 23.6376 117.291C23.9351 118.415 23.8642 119.589 23.433 120.68C23.1539 121.39 22.6316 122.009 21.9353 122.457C21.3306 122.835 20.5928 123.021 19.8473 122.982C19.1019 122.944 18.3949 122.683 17.8468 122.245Z" fill="#FF9BBC"/>
<path d="M15.0364 129.481C14.0047 129.249 13.0823 128.746 12.3977 128.04C11.7132 127.334 11.3006 126.462 11.2174 125.544C10.9815 124.367 11.1553 123.156 11.7166 122.064C11.7729 121.959 11.8363 121.857 11.9063 121.758C12.6152 120.792 13.5936 120.572 14.7568 121.129C15.5885 121.557 16.3131 122.124 16.8884 122.797C17.7341 123.611 18.3583 124.577 18.7156 125.626C18.9128 126.282 18.9128 126.97 18.7156 127.626C18.6297 127.964 18.4637 128.283 18.2281 128.562C17.9925 128.842 17.6924 129.076 17.3466 129.25C17.0009 129.424 16.6171 129.535 16.2194 129.575C15.8218 129.614 15.419 129.582 15.0364 129.481Z" fill="#FF9BBC"/>
<path d="M37.2662 130.123C37.3161 130.287 37.3511 130.455 37.406 130.671C37.6057 132.313 36.787 133.572 35.1745 134.461C33.5176 135.342 31.5328 135.641 29.6283 135.297C28.3787 135.096 27.0872 135.257 25.9541 135.754C24.2729 136.535 22.3152 136.747 20.4627 136.349C19.6891 136.215 18.9712 135.905 18.3839 135.45C17.7965 134.995 17.3611 134.412 17.123 133.762C16.9295 133.235 16.8634 132.679 16.9287 132.129C16.9939 131.578 17.1892 131.045 17.5024 130.563C17.8424 130.007 18.2562 129.488 18.7354 129.015C19.7803 127.991 20.6235 126.825 21.2315 125.565C21.5167 124.957 21.9432 124.406 22.4847 123.945C23.0262 123.485 23.6712 123.125 24.3799 122.888C25.0886 122.652 25.846 122.543 26.6053 122.569C27.3646 122.595 28.1097 122.755 28.7946 123.039C29.6953 123.4 30.4638 123.969 31.0161 124.682C31.7444 125.612 32.736 126.366 33.8965 126.872C35.3482 127.455 36.4975 128.483 37.1215 129.757C37.179 129.876 37.2273 129.998 37.2662 130.123Z" fill="#FF9BBC"/>
<path d="M40.3864 121.745C40.6859 123.69 40.0669 125.195 38.4644 126.324C38.1233 126.597 37.7134 126.797 37.2672 126.909C36.821 127.021 36.3508 127.042 35.8936 126.97C35.4365 126.898 35.005 126.736 34.6332 126.495C34.2615 126.254 33.9598 125.942 33.7518 125.583C33.4072 125.041 33.2173 124.437 33.1977 123.819C33.1428 122.345 33.7668 121.025 34.5356 119.753C34.8167 119.3 35.1677 118.883 35.5789 118.511C35.7458 118.334 35.9545 118.189 36.1913 118.087C36.428 117.984 36.6873 117.927 36.9519 117.918C37.2165 117.909 37.4802 117.949 37.7255 118.035C37.9709 118.121 38.1921 118.251 38.3745 118.417C39.1536 119.027 39.7278 119.808 40.0369 120.676C40.2017 121.064 40.3065 121.491 40.3864 121.745Z" fill="#FF9BBC"/>
<path d="M28.4801 161.72C28.4451 161.638 28.4202 161.556 28.3802 161.448C28.2777 161.08 28.3015 160.695 28.4487 160.339C28.5959 159.983 28.8601 159.671 29.2089 159.443C29.5654 159.195 29.9772 159.013 30.4186 158.908C30.8601 158.804 31.3218 158.779 31.7749 158.835C32.3758 158.902 32.9844 158.778 33.4872 158.486C33.855 158.262 34.2713 158.104 34.7113 158.022C35.1513 157.939 35.6059 157.934 36.0481 158.007C36.4341 158.059 36.7974 158.199 37.1015 158.41C37.4055 158.622 37.6397 158.9 37.7804 159.214C38.0249 159.743 38.0249 160.333 37.7804 160.862C37.6671 161.159 37.4985 161.439 37.2812 161.689C36.3876 162.612 35.6438 162.892 34.0113 163.25C32.3789 163.608 31.5602 163.638 30.2423 163.28C29.867 163.162 29.5233 162.98 29.2316 162.744C28.94 162.509 28.7064 162.225 28.545 161.909C28.5184 161.847 28.4967 161.784 28.4801 161.72Z" fill="#FF9BBC"/>
<path d="M67.2738 174.823L73.9134 155.696C73.9134 155.696 56.2063 150.345 51.7783 142.601C47.3502 134.857 51.0045 94.9994 55.4325 83.431C59.8605 71.8625 78.0119 57.0473 102.468 51.8862C126.925 46.725 152.16 56.8447 161.565 67.0722C170.97 77.2996 187.075 111.168 188.073 120.822C189.072 130.477 171.14 141.929 171.14 141.929L182.707 174.827L67.2738 174.823Z" fill="#F7F0F0"/>
<g opacity="0.1">
<path d="M73.9133 155.696C76.629 155.968 79.2399 156.61 81.9007 157.11C83.4832 157.386 85.0957 157.541 86.7032 157.848C82.3051 158.503 77.8471 157.369 73.9183 155.692L73.9133 155.696Z" fill="black"/>
<path d="M160.093 147.788C162.304 146.413 164.725 145.369 167.082 144.197C168.479 143.481 169.762 142.679 171.155 141.924C168.524 145.029 164.281 146.728 160.108 147.788H160.093Z" fill="black"/>
</g>
<path opacity="0.45" d="M158.69 174.823C158.69 174.823 149.894 158.9 143.419 155.696C136.944 152.492 106.407 154.148 100.087 161.672C94.9753 167.756 92.0999 174.823 92.0999 174.823H158.69Z" fill="white"/>
<path opacity="0.45" d="M121.573 152.915C96.7974 155.588 83.723 137.664 85.2955 127.2C87.1975 114.549 108.095 109.289 106.043 95.077C104.805 86.5311 97.1668 84.8021 96.4929 80.1454C95.4545 72.975 103.267 60.389 108.12 59.8802C112.972 59.3714 124.124 69.9007 125.163 77.0712C125.837 81.7279 118.923 85.0263 120.171 93.5722C122.227 107.779 143.983 108.443 149.429 120.305C153.932 130.093 146.354 150.242 121.573 152.915Z" fill="white"/>
<path d="M86.4387 102.2C76.1549 103.308 78.1368 117.11 88.4355 115.998C98.7343 114.885 96.7324 101.088 86.4387 102.2Z" fill="#263238"/>
<path d="M77.7375 96.224C78.0271 92.6927 83.4785 90.4419 86.6934 92.7746C85.1958 93.0161 83.808 93.1368 82.4451 93.637C80.6929 94.2449 79.3201 95.1849 77.7375 96.1981V96.224Z" fill="#263238"/>
<path d="M147.942 88.631C146.12 87.9885 144.517 87.3677 142.65 87.1478C141.182 86.9451 139.785 87.1219 138.282 87.2038C140.753 84.2416 146.634 85.2678 147.942 88.631Z" fill="#263238"/>
<path d="M141.037 96.3102C130.759 97.4183 132.736 111.22 143.034 110.108C153.333 108.995 151.331 95.1978 141.037 96.3102Z" fill="#263238"/>
<path d="M124.703 125.488C124.254 128.165 123.5 132.029 118.553 132.563C113.606 133.098 111.774 129.511 110.566 127.014C110.566 127.014 113.132 127.799 114.669 126.669C116.207 125.54 116.396 117.705 116.396 117.705C116.396 117.705 118.808 125.259 120.62 126.031C122.432 126.803 124.703 125.488 124.703 125.488Z" fill="#FF9BBC"/>
<path d="M118.169 129.882C116.917 126.01 116.336 122 116.446 117.981C117.696 121.853 118.277 125.863 118.169 129.882Z" fill="#263238"/>
<path d="M126.94 111.121C127.09 112.165 125.996 113.38 125.532 113.919C124.559 115.023 122.467 115.597 121.768 115.028C120.954 114.372 123.131 113.768 122.846 113.083C122.637 112.57 121.848 111.789 120.77 112.083C119.691 112.376 120.485 114.959 120.111 115.825C119.825 116.456 119.352 117.01 118.738 117.431C118.124 117.852 117.392 118.125 116.616 118.223H116.506C115.726 118.294 114.937 118.186 114.221 117.909C113.504 117.631 112.886 117.195 112.428 116.644C111.819 115.886 111.864 113.195 110.725 113.156C109.587 113.117 109.053 114.019 108.993 114.566C108.913 115.291 111.195 115.429 110.596 116.222C110.096 116.92 107.885 116.808 106.632 115.946C106.028 115.515 104.635 114.575 104.47 113.536C104.266 112.143 107.296 108.879 115.034 108.047H115.144C122.876 107.21 126.74 109.728 126.94 111.121Z" fill="#263238"/>
<path d="M103.272 120.866C103.874 121.616 104.556 122.316 105.309 122.957C106.737 124.207 108.249 125.44 110.126 126.122C111.384 126.553 112.812 126.984 113.995 126.406C114.869 125.712 115.059 124.16 115.363 123.103C115.753 121.34 116.042 119.533 116.402 117.718C116.751 120.107 117.095 125.557 115.024 127.346C113.401 128.42 111.12 127.885 109.532 127.187C107.535 126.324 106.038 124.858 104.785 123.306C104.15 122.562 103.646 121.741 103.287 120.87L103.272 120.866Z" fill="#263238"/>
<path d="M130.03 117.981C129.925 118.905 129.663 119.81 129.251 120.667C128.483 122.418 127.429 124.173 125.757 125.41C124.429 126.423 122.367 127.428 120.495 126.73C117.999 125.436 116.756 120.081 116.412 117.675C117.28 119.361 118.074 121.047 118.953 122.672C119.547 123.634 120.176 125.1 121.224 125.583C122.527 125.876 123.795 125.173 124.888 124.487C126.521 123.427 127.629 121.9 128.657 120.396C129.207 119.622 129.67 118.805 130.04 117.955L130.03 117.981Z" fill="#263238"/>
<path d="M129.471 137.565C126.975 138.647 124.299 139.527 121.688 139.721C121.478 139.721 121.403 140.049 121.583 140.152C122.082 140.458 123.455 141.316 123.67 141.446C123.51 141.472 123.35 141.497 123.171 141.515C122.633 141.578 122.091 141.615 121.548 141.627C120.462 141.649 119.375 141.583 118.303 141.428C117.23 141.274 116.178 141.024 115.163 140.682C114.13 140.342 113.166 139.876 112.168 139.445C112.123 139.445 112.083 139.51 112.123 139.54C113.004 140.217 113.994 140.779 115.063 141.209C116.055 141.629 117.096 141.957 118.169 142.187C119.244 142.417 120.346 142.539 121.453 142.549C122.03 142.552 122.607 142.529 123.181 142.481C123.757 142.469 124.324 142.356 124.848 142.149C125.197 141.985 125.053 141.463 124.773 141.364C124.603 141.303 122.652 140.251 122.367 140.092C123.508 139.981 124.632 139.761 125.717 139.436C127.068 139.015 128.352 138.446 129.536 137.742C129.636 137.699 129.566 137.518 129.471 137.565Z" fill="#263238"/>
<path opacity="0.1" d="M67.2738 174.823L73.9133 155.696C73.9133 155.696 56.2062 150.345 51.7782 142.601C48.2538 136.435 49.8513 109.927 52.8815 93.5334C52.7766 100.001 52.4472 132.369 58.7522 140.066C65.0573 147.762 77.5126 152.57 93.782 155.696C93.782 155.696 86.6932 161.957 86.6932 166.976C86.6932 170.36 92.2993 174.823 115.702 174.823H67.2738Z" fill="black"/>
<path opacity="0.1" d="M171.669 143.425C171.669 143.425 173.961 162.578 173.077 167.165C172.194 171.753 153.378 174.823 153.378 174.823H182.707L171.669 143.425Z" fill="black"/>
<path d="M88.88 55.9349C86.8082 56.4739 83.5983 55.1847 82.1056 53.8006C80.613 52.4165 77.8973 47.5356 77.8973 47.5356C77.8973 47.5356 77.0686 52.0285 77.5129 54.1326C77.7389 55.3324 78.2672 56.4746 79.0604 57.4785C76.9768 56.5266 75.1629 55.1881 73.7488 53.5592C71.752 51.0756 70.5389 49.4501 67.7583 49.0189C64.9776 48.5877 56.9104 58.578 50.5504 61.924C44.1904 65.2699 37.5708 66.9903 35.1646 70.2413C32.7584 73.4924 32.9531 88.7819 36.827 97.9616C40.7009 107.141 51.0995 116.502 55.7472 115.071C60.3949 113.639 57.5993 103.136 64.6831 89.9461C70.1245 79.8134 77.6626 75.3077 77.6626 75.3077L88.88 55.9349Z" fill="#F7F0F0"/>
<path opacity="0.1" d="M76.2298 76.3037C73.7787 78.1319 68.6717 82.5299 64.693 89.9461C57.6142 103.136 60.4098 113.639 55.7621 115.071C51.1144 116.502 40.7108 107.137 36.8369 97.9487C39.1083 102.26 49.7715 110.755 52.9964 108.655C55.4925 107.034 57.3196 95.8446 61.2434 89.5365C65.0724 83.4397 75.5559 76.7176 76.2298 76.3037Z" fill="black"/>
<path d="M88.8798 55.9349C86.3837 56.4825 83.3635 55.2149 81.6961 53.585C80.8977 52.6612 80.1754 51.6901 79.5345 50.6789C78.8805 49.6786 78.2565 48.6653 77.6525 47.6391L78.1517 47.5744C77.7174 50.7953 77.0484 54.4732 79.3797 57.2586L80.4331 58.5177L78.8556 57.8062C77.358 57.1295 75.9824 56.2682 74.772 55.2494C72.4257 53.3134 71.1926 49.9243 67.6133 49.4932C66.3852 49.6743 65.4267 50.6272 64.4832 51.3257C60.9887 54.2533 57.7788 57.5777 54.0646 60.3803C49.1574 64.2092 42.3531 65.6191 37.2811 69.1289C36.1028 69.9341 35.3115 71.0877 35.0596 72.367C34.4756 75.102 34.233 77.8832 34.3358 80.6628C34.4805 86.2379 35.2144 91.9122 37.2262 97.22C38.2868 99.854 39.7222 102.364 41.4995 104.692C43.8508 107.909 50.7748 115.605 55.5723 114.717C56.1514 114.553 56.6106 113.993 56.9501 113.402C57.9485 111.513 58.3778 109.409 58.8821 107.366C60.844 99.1732 62.4414 90.2565 68.8314 83.6121C64.7528 88.092 62.8408 93.6628 61.428 99.1344C60.7391 101.898 60.2199 104.688 59.6309 107.478C59.1317 109.577 58.7622 111.733 57.7289 113.717C56.4309 116.468 53.1711 115.73 50.8148 114.506C46.5265 112.225 43.2367 108.827 40.4361 105.279C34.7451 98.0996 33.1676 89.1958 32.888 80.6715C32.8531 79.2443 32.888 77.8128 32.9679 76.3597C33.1826 74.1564 33.2724 71.9014 34.5554 69.8619C35.9981 67.9647 38.3744 66.8005 40.546 65.7614C44.1852 64.0841 47.9243 62.7432 51.284 60.7641C53.2173 59.5015 55.0317 58.1088 56.7105 56.5989C59.0218 54.6112 61.2034 52.4898 63.6396 50.5409C64.608 49.8079 65.5665 49.0146 66.8395 48.6049C67.2258 48.484 67.646 48.4689 68.0426 48.5618L68.3671 48.6265C71.8616 49.3811 73.1346 52.6149 75.411 54.663C76.532 55.6424 77.8117 56.4761 79.21 57.1379L78.6858 57.6855C78.1055 56.9379 77.6657 56.1157 77.3829 55.2494C76.4843 52.4597 77.283 49.5233 77.7323 46.7336C78.9804 49.0059 80.2284 51.3515 81.8958 53.4082C83.4733 55.0208 86.3338 56.3747 88.8398 55.9177L88.8798 55.9349Z" fill="#263238"/>
<path d="M124.619 51.0411C126.775 51.1877 129.611 49.3164 130.709 47.7038C131.807 46.0912 133.265 40.805 133.265 40.805C133.265 40.805 135.187 45.0435 135.262 47.1778C135.337 48.391 135.104 49.6038 134.578 50.7307C136.376 49.4151 137.816 47.7737 138.796 45.9231C140.129 43.1291 140.913 41.3138 143.509 40.3825C146.105 39.4511 156.488 47.7125 163.517 49.8123C170.546 51.9121 177.495 52.3605 180.605 55.0942C183.715 57.8278 187.38 72.8069 185.882 82.4868C184.384 92.1666 176.502 103.235 171.61 102.692C166.717 102.148 166.847 91.3733 156.663 79.7962C148.84 70.9011 140.359 67.8915 140.359 67.8915L124.619 51.0411Z" fill="#F7F0F0"/>
<path opacity="0.1" d="M185.882 82.4824C184.384 92.1623 176.527 103.235 171.63 102.696C167.192 102.204 166.892 93.2834 159.259 82.9826C159.258 82.9726 159.258 82.9624 159.259 82.9524C163.462 86.2035 168.774 97.7676 172.538 98.1513C176.302 98.5351 182.113 89.5666 183.77 83.4914C184.769 79.8307 185.243 67.7837 185.268 67.512C186.162 72.5093 186.551 78.0413 185.882 82.4824Z" fill="black"/>
<path d="M124.619 51.0411C127.17 51.0411 129.646 49.1741 130.784 47.3071C131.912 44.9874 132.536 42.4694 133.195 40.0203C134.323 42.6591 135.831 45.3841 135.641 48.273C135.585 49.171 135.359 50.0551 134.972 50.8902L134.328 50.459C135.528 49.5526 136.572 48.5029 137.428 47.3416C139.146 44.9271 139.565 41.5294 142.81 40.1453C143.257 39.9053 143.784 39.7993 144.308 39.8435C145.65 40.0073 146.804 40.6067 147.917 41.137C150.792 42.5901 153.433 44.263 156.184 45.7765C158.197 46.9437 160.315 47.9689 162.519 48.8421C166.288 50.1357 170.272 50.7738 174.24 51.7439C176.647 52.3519 179.233 53.0375 181.135 54.6414C182.892 56.392 183.536 58.5781 184.295 60.6779C184.744 62.062 185.113 63.459 185.433 64.8603C187.27 73.238 187.929 82.228 184.15 90.2996C182.298 94.2837 179.921 98.2117 176.302 101.23C174.305 102.838 171.31 104.205 169.348 101.739C167.85 99.9882 166.942 97.9573 165.948 95.9955C164.68 93.3782 163.487 90.7481 162.125 88.1783C159.409 83.0775 156.134 77.9896 151.047 74.3806C158.94 79.6927 162.699 88.0877 166.647 95.7497C167.646 97.5305 169.473 101.92 171.704 102.317C176.597 102.317 181.494 93.4472 182.967 89.9245C184.127 87.3218 184.908 84.6048 185.293 81.8357C185.942 76.2778 185.258 70.5992 184.015 65.1276C183.428 62.3924 182.503 59.7195 181.254 57.1552C180.691 55.9529 179.633 54.973 178.284 54.4043C172.458 51.9121 165.464 51.7914 159.723 48.9585C155.4 46.9148 151.446 44.2587 147.303 42.0597C146.21 41.5466 145.041 40.7964 143.808 40.8481C140.419 41.9304 140.054 45.466 138.237 47.7901C137.308 49.0092 136.178 50.1045 134.882 51.0411L133.52 52.0328L134.233 50.6013C135.821 47.4451 134.258 43.9871 133.04 40.9171L133.54 40.8869C133.21 41.9994 132.846 43.1032 132.456 44.2027C132.081 45.3089 131.615 46.391 131.063 47.4408C129.84 49.3337 127.215 51.1403 124.629 51.0627L124.619 51.0411Z" fill="#263238"/>
<path d="M43.1071 172.771C42.5729 175.819 46.342 179.437 48.833 179.799C51.3241 180.161 53.2311 178.578 53.2311 178.578C53.2311 178.578 55.4726 181.597 59.7209 181.946C60.91 182.071 62.1164 181.939 63.2323 181.563C64.3482 181.187 65.3388 180.578 66.1158 179.79C66.1158 179.79 68.6118 181.437 73.0049 181.437C77.398 181.437 79.5496 177.716 79.5496 177.716C79.5496 177.716 82.5449 178.436 84.6965 176.931C86.8481 175.427 87.3523 171.697 85.8597 168.83C84.367 165.962 75.5559 157.02 64.8927 156.903C54.2295 156.787 43.9208 168.041 43.1071 172.771Z" fill="#F7F0F0"/>
<path d="M54.0899 170.425C53.2911 173.159 52.8169 175.871 53.371 178.673C51.4241 176.233 51.9732 172.637 54.0899 170.425Z" fill="#263238"/>
<path d="M77.5928 169.045C80.1687 171.123 81.4118 174.896 79.4598 177.6C79.959 174.582 78.9307 171.783 77.5928 169.045Z" fill="#263238"/>
<path d="M65.896 170.817C66.535 173.792 66.4251 176.763 66.1606 179.777C65.0473 176.91 65.1621 173.741 65.896 170.817Z" fill="#263238"/>
<path opacity="0.1" d="M79.1103 178.32C78.2916 179.372 76.2548 181.446 72.97 181.446C68.572 181.446 66.0809 179.799 66.0809 179.799C65.3047 180.586 64.3149 181.195 63.1999 181.571C62.0849 181.947 60.8793 182.079 59.691 181.955C55.4576 181.597 53.2012 178.583 53.2012 178.583C53.2012 178.583 51.2942 180.161 48.8031 179.803C46.312 179.445 42.538 175.828 43.0771 172.779C43.5764 169.852 47.7248 164.432 53.326 160.749C47.8946 165.259 46.2971 169.317 46.9061 171.844C47.5152 174.37 50.0062 176.673 52.8967 175.668C52.8967 175.668 56.4411 179.199 59.9805 179.799C61.0496 179.957 62.1465 179.899 63.1857 179.631C64.2249 179.362 65.1781 178.89 65.9711 178.251C65.9711 178.251 70.0945 180.583 73.4243 180.497C76.754 180.411 79.1103 178.32 79.1103 178.32Z" fill="black"/>
<path d="M151.841 174.823H196.161C196.161 174.823 194.129 146.922 194.214 146.107C194.299 145.292 201.073 143.002 200.354 137.216C199.855 133.202 196.68 133.555 196.081 132.594C195.482 131.632 195.317 124.63 191.184 123.703C187.05 122.776 187.065 124.914 185.458 124.673C183.85 124.431 184.17 121.948 180.241 122.37C175.598 122.866 174.285 126.902 173.252 127.717C172.218 128.532 169.932 127.148 166.443 130.515C163.113 133.732 167.521 140.122 166.942 141.519C166.592 142.36 151.841 174.823 151.841 174.823Z" fill="#F7F0F0"/>
<path opacity="0.2" d="M179.802 168.23C178.723 165.898 177.9 163.461 177.87 161.116C177.87 160.93 177.505 160.84 177.37 160.991C176.966 161.4 175.818 162.556 175.653 162.737C175.653 162.59 175.618 162.448 175.613 162.306C175.583 161.82 175.583 161.334 175.613 160.849C175.674 159.881 175.841 158.921 176.112 157.981C176.389 157.039 176.776 156.123 177.266 155.248C177.765 154.359 178.404 153.523 178.998 152.661C179.028 152.622 178.933 152.579 178.893 152.613C178.01 153.338 177.255 154.17 176.652 155.084C176.065 155.931 175.585 156.83 175.219 157.766C174.852 158.703 174.612 159.674 174.505 160.659C174.45 161.17 174.43 161.684 174.445 162.198C174.41 162.712 174.495 163.227 174.695 163.712C174.859 164.035 175.493 163.953 175.638 163.712C175.723 163.569 177.136 161.918 177.365 161.681C177.399 162.7 177.567 163.712 177.865 164.699C178.251 165.938 178.82 167.129 179.557 168.243C179.627 168.373 179.846 168.325 179.802 168.23Z" fill="black"/>
<path d="M185.053 132.184C185.103 131.727 185.223 131.274 185.308 130.817C185.601 129.726 186.052 128.672 186.651 127.678C186.829 127.41 187.038 127.157 187.275 126.924C187.571 126.59 188.006 126.371 188.487 126.311C188.969 126.251 189.458 126.357 189.851 126.605C190.539 126.984 191.12 127.49 191.553 128.088C192.551 129.381 193.215 130.765 193.09 132.331C193.057 133.09 192.816 133.831 192.388 134.494C191.959 135.158 191.355 135.724 190.624 136.147C190.244 136.39 189.806 136.559 189.343 136.642C188.879 136.726 188.4 136.721 187.938 136.63C187.477 136.538 187.044 136.361 186.669 136.111C186.294 135.861 185.986 135.543 185.767 135.181C185.157 134.276 184.906 133.223 185.053 132.184Z" fill="#FF9BBC"/>
<path d="M175.833 133.34C175.327 132.595 175.06 131.747 175.06 130.884C175.06 130.021 175.327 129.173 175.833 128.428C176.805 126.923 178.374 125.771 180.251 125.186C180.589 125.082 180.941 125.018 181.299 124.996C181.729 124.937 182.169 125.015 182.536 125.216C182.904 125.417 183.174 125.727 183.296 126.087C183.599 126.883 183.687 127.728 183.556 128.558C183.496 129.183 183.386 129.808 183.296 130.433C183.122 131.575 182.585 132.653 181.744 133.547C181.193 134.129 180.452 134.555 179.617 134.767C178.892 134.947 178.118 134.903 177.427 134.642C176.736 134.382 176.172 133.921 175.833 133.34Z" fill="#FF9BBC"/>
<path d="M170.292 139.285C169.52 138.814 168.913 138.168 168.535 137.42C168.158 136.671 168.024 135.848 168.15 135.038C168.182 134.845 168.227 134.654 168.285 134.465C168.544 133.291 169.199 132.21 170.167 131.356C170.262 131.274 170.364 131.198 170.471 131.128C171.525 130.433 172.528 130.52 173.397 131.391C174.005 132.042 174.458 132.791 174.73 133.594C175.195 134.611 175.391 135.706 175.304 136.798C175.226 137.471 174.947 138.116 174.495 138.669C174.277 138.959 173.992 139.208 173.657 139.398C173.322 139.588 172.945 139.716 172.55 139.774C172.155 139.832 171.75 139.819 171.361 139.735C170.973 139.65 170.608 139.497 170.292 139.285Z" fill="#FF9BBC"/>
<path d="M190.874 146.546C190.874 146.715 190.819 146.883 190.784 147.103C190.315 148.702 189.042 149.638 187.17 149.987C185.265 150.322 183.284 150.013 181.634 149.125C180.543 148.562 179.267 148.325 178.004 148.452C176.112 148.683 174.187 148.295 172.608 147.366C171.938 147.009 171.39 146.505 171.021 145.905C170.651 145.304 170.474 144.63 170.506 143.951C170.537 143.399 170.699 142.858 170.982 142.362C171.264 141.866 171.661 141.425 172.149 141.066C172.691 140.646 173.289 140.283 173.931 139.984C175.328 139.339 176.593 138.5 177.675 137.5C178.187 137.015 178.808 136.625 179.501 136.356C180.194 136.086 180.944 135.941 181.704 135.931C182.464 135.921 183.219 136.045 183.921 136.297C184.623 136.548 185.258 136.921 185.787 137.393C186.478 137.996 186.967 138.75 187.2 139.574C187.51 140.664 188.138 141.667 189.022 142.489C190.148 143.473 190.813 144.781 190.889 146.163C190.894 146.291 190.889 146.419 190.874 146.546Z" fill="#FF9BBC"/>
<path d="M197.179 139.622C196.68 141.536 195.497 142.752 193.54 143.343C193.11 143.497 192.644 143.562 192.18 143.533C191.716 143.504 191.266 143.383 190.866 143.177C190.466 142.972 190.127 142.69 189.875 142.352C189.623 142.014 189.466 141.63 189.416 141.23C189.308 140.615 189.375 139.986 189.611 139.398C190.155 137.992 191.268 136.94 192.501 135.978C192.952 135.633 193.456 135.343 193.999 135.116C194.226 135 194.48 134.927 194.742 134.902C195.005 134.877 195.271 134.901 195.522 134.971C195.773 135.042 196.004 135.158 196.199 135.311C196.395 135.465 196.55 135.653 196.655 135.862C197.143 136.669 197.369 137.575 197.309 138.484C197.279 138.91 197.204 139.342 197.179 139.622Z" fill="#FF9BBC"/>
<path opacity="0.1" d="M187.844 123.733C187.375 123.949 186.376 124.884 185.517 124.85C184.659 124.815 183.316 123.203 182.777 122.953C182.238 122.702 180.241 122.37 178.069 123.526C175.898 124.682 174.899 127.109 173.641 128.131C172.383 129.153 171.704 128.704 170.516 128.993C169.328 129.282 167.331 130.524 166.892 133.059C166.453 135.595 169.268 141.372 169.158 141.946C169.048 142.519 160.557 164.91 162.134 168.998C163.887 173.547 183.576 174.758 183.576 174.758L183.436 174.844H151.841C151.841 174.844 166.592 142.39 166.947 141.54C167.526 140.143 163.118 133.753 166.448 130.537C169.942 127.169 172.223 128.553 173.252 127.739C174.28 126.924 175.593 122.888 180.241 122.392C184.17 121.961 183.85 124.453 185.458 124.694C186.411 124.815 186.815 124.125 187.844 123.733Z" fill="black"/>
</svg>
