<svg width="35" height="39" viewBox="0 0 35 39" fill="none" xmlns="http://www.w3.org/2000/svg">
<path d="M26.2781 23.8327C26.1068 24.006 25.9794 24.2295 25.9095 24.4795C25.8396 24.7296 25.8299 24.9967 25.8812 25.2526L27.9937 35.788C28.0495 36.0632 28.0338 36.3512 27.9485 36.6161C27.8632 36.8811 27.7122 37.1113 27.5141 37.278C27.316 37.4448 27.0797 37.5407 26.8346 37.5538C26.5896 37.567 26.3466 37.4968 26.1359 37.3519L18.1515 31.7729C17.9575 31.637 17.7348 31.5652 17.5078 31.5652C17.2807 31.5652 17.058 31.637 16.864 31.7729L8.87964 37.3519C8.66897 37.4968 8.42596 37.567 8.18089 37.5538C7.93582 37.5407 7.69952 37.4448 7.50145 37.278C7.30337 37.1113 7.15228 36.8811 7.06699 36.6161C6.98171 36.3512 6.966 36.0632 7.02182 35.788L9.13433 25.2526C9.18568 24.9967 9.17589 24.7296 9.10601 24.4795C9.03613 24.2295 8.90877 24.006 8.73745 23.8327L1.68901 16.7509C1.50057 16.5664 1.36388 16.3217 1.29622 16.0477C1.22857 15.7737 1.23299 15.4828 1.30893 15.2117C1.38487 14.9406 1.52892 14.7016 1.72285 14.5248C1.91678 14.3481 2.15188 14.2415 2.39839 14.2187L11.689 13.2937C11.9157 13.2704 12.1325 13.1763 12.3162 13.0215C12.4999 12.8668 12.6433 12.6572 12.7312 12.4154L16.3609 2.45232C16.4578 2.19473 16.6181 1.97541 16.8218 1.82135C17.0256 1.66729 17.264 1.58521 17.5078 1.58521C17.7515 1.58521 17.9899 1.66729 18.1937 1.82135C18.3975 1.97541 18.5577 2.19473 18.6546 2.45232L22.2843 12.4154C22.3722 12.6572 22.5157 12.8668 22.6993 13.0215C22.883 13.1763 23.0998 13.2704 23.3265 13.2937L32.6171 14.2187C32.8636 14.2415 33.0987 14.3481 33.2927 14.5248C33.4866 14.7016 33.6307 14.9406 33.7066 15.2117C33.7825 15.4828 33.787 15.7737 33.7193 16.0477C33.6516 16.3217 33.515 16.5664 33.3265 16.7509L26.2781 23.8327Z" fill="#FFA31A"/>
<path d="M34.8829 14.7604C34.7315 14.223 34.4462 13.7488 34.0625 13.3968C33.6788 13.0448 33.2137 12.8305 32.725 12.7808L23.4453 11.8593L19.8078 1.89624C19.6185 1.37346 19.299 0.926905 18.8897 0.612805C18.4805 0.298705 17.9997 0.131104 17.5078 0.131104C17.016 0.131104 16.5352 0.298705 16.126 0.612805C15.7167 0.926905 15.3972 1.37346 15.2078 1.89624L11.5813 11.8593L2.29066 12.7862C1.80009 12.8337 1.33261 13.0469 0.946845 13.3992C0.561078 13.7515 0.274198 14.2271 0.122178 14.7664C-0.0298408 15.3057 -0.0402314 15.8847 0.0923096 16.4308C0.224851 16.9769 0.494423 17.4658 0.867222 17.8361L7.91566 24.9305L5.80316 35.4659C5.69146 36.0172 5.72333 36.5942 5.8948 37.1248C6.06626 37.6554 6.36972 38.116 6.76721 38.449C7.16471 38.782 7.63862 38.9726 8.12968 38.9971C8.62075 39.0216 9.10718 38.8788 9.52816 38.5865L17.4969 33.0075L25.4828 38.5865C25.9038 38.8788 26.3903 39.0216 26.8813 38.9971C27.3724 38.9726 27.8463 38.782 28.2438 38.449C28.6413 38.116 28.9447 37.6554 29.1162 37.1248C29.2877 36.5942 29.3196 36.0172 29.2078 35.4659L27.0969 24.9197L34.1438 17.8361C34.5165 17.4645 34.7856 16.9742 34.9171 16.427C35.0486 15.8797 35.0367 15.2999 34.8829 14.7604ZM32.5047 15.6603L25.4578 22.7439C25.1149 23.0875 24.8597 23.5323 24.7199 24.0305C24.58 24.5287 24.5607 25.0613 24.6641 25.5712L26.7813 36.1246L18.8016 30.5455C18.4123 30.2725 17.9652 30.128 17.5094 30.128C17.0536 30.128 16.6065 30.2725 16.2172 30.5455L8.24847 36.1246L10.3516 25.5784C10.455 25.0685 10.4357 24.5359 10.2958 24.0377C10.156 23.5395 9.90082 23.0947 9.55785 22.7511L2.50785 15.6711C2.50728 15.6657 2.50728 15.6603 2.50785 15.6549L11.7953 14.7298C12.2488 14.6838 12.6827 14.496 13.0503 14.1868C13.4179 13.8776 13.7052 13.4586 13.8813 12.9751L17.5078 3.02465L21.1328 12.9751C21.3089 13.4586 21.5962 13.8776 21.9638 14.1868C22.3314 14.496 22.7653 14.6838 23.2188 14.7298L32.5079 15.6549V15.6675L32.5047 15.6603Z" fill="#FFA31A"/>
</svg>
